SplineFontDB: 3.0
FontName: OpenDyslexic-BoldItalic
FullName: OpenDyslexic Bold Italic
FamilyName: OpenDyslexic
Weight: Bold
Copyright: Attribution-NonCommercial-ShareAlike 3.0 Unported (CC BY-NC-SA 3.0)
Version: 0.700
ItalicAngle: -12
UnderlinePosition: -142
UnderlineWidth: 143
Ascent: 1638
Descent: 410
sfntRevision: 0x0000b332
LayerCount: 2
Layer: 0 1 "Back"  1
Layer: 1 1 "Fore"  0
XUID: [1021 306 1845811580 3198103]
FSType: 0
OS2Version: 3
OS2_WeightWidthSlopeOnly: 0
OS2_UseTypoMetrics: 1
CreationTime: 1332625500
ModificationTime: 1332813732
PfmFamily: 17
TTFWeight: 700
TTFWidth: 5
LineGap: 53
VLineGap: 0
Panose: 2 0 8 3 0 0 0 9 0 4
OS2TypoAscent: -99
OS2TypoAOffset: 1
OS2TypoDescent: 6
OS2TypoDOffset: 1
OS2TypoLinegap: 0
OS2WinAscent: 0
OS2WinAOffset: 1
OS2WinDescent: 0
OS2WinDOffset: 1
HheadAscent: 0
HheadAOffset: 1
HheadDescent: 0
HheadDOffset: 1
OS2SubXSize: 1351
OS2SubYSize: 1228
OS2SubXOff: 0
OS2SubYOff: -446
OS2SupXSize: 1351
OS2SupYSize: 1228
OS2SupXOff: 0
OS2SupYOff: 595
OS2StrikeYSize: 102
OS2StrikeYPos: 512
OS2FamilyClass: 2050
OS2Vendor: '    '
OS2CodePages: 20000011.00000000
OS2UnicodeRanges: 800000af.4000204a.00000000.00000000
Lookup: 258 0 0 "'kern' Horizontal Kerning in Latin lookup 0"  {"'kern' Horizontal Kerning in Latin lookup 0 subtable"  } ['kern' ('latn' <'dflt' > ) ]
MarkAttachClasses: 1
DEI: 91125
TtTable: prep
PUSHW_1
 0
CALL
SVTCA[y-axis]
PUSHW_3
 1
 3
 2
CALL
SVTCA[x-axis]
PUSHW_3
 4
 3
 2
CALL
SVTCA[x-axis]
PUSHW_8
 4
 70
 63
 49
 31
 19
 0
 8
CALL
PUSHW_8
 5
 58
 47
 37
 31
 19
 0
 8
CALL
PUSHW_8
 6
 52
 47
 37
 31
 19
 0
 8
CALL
SVTCA[y-axis]
PUSHW_8
 1
 63
 47
 37
 31
 19
 0
 8
CALL
PUSHW_8
 2
 85
 63
 49
 31
 19
 0
 8
CALL
PUSHW_8
 3
 77
 63
 49
 31
 19
 0
 8
CALL
SVTCA[y-axis]
PUSHW_3
 7
 4
 7
CALL
PUSHW_1
 0
DUP
RCVT
RDTG
ROUND[Black]
RTG
WCVTP
EndTTInstrs
TtTable: fpgm
PUSHW_1
 0
FDEF
MPPEM
PUSHW_1
 9
LT
IF
PUSHB_2
 1
 1
INSTCTRL
EIF
PUSHW_1
 511
SCANCTRL
PUSHW_1
 68
SCVTCI
PUSHW_2
 9
 3
SDS
SDB
ENDF
PUSHW_1
 1
FDEF
DUP
DUP

StartChar: .notdef
Encoding: 65536 -1 0
Width: 1298
Flags: W
LayerCount: 2
Fore
SplineSet
56 -320 m 1,0,1
 125 112 125 112 162.5 552.5 c 128,-1,2
 200 993 200 993 208 1439 c 1,3,4
 339 1419 339 1419 461.5 1409 c 128,-1,5
 584 1399 584 1399 703 1399 c 0,6,7
 827 1399 827 1399 958 1409 c 128,-1,8
 1089 1419 1089 1419 1229 1439 c 1,9,10
 1157 992 1157 992 1117 547 c 128,-1,11
 1077 102 1077 102 1073 -346 c 1,12,13
 942 -327 942 -327 816 -318.5 c 128,-1,14
 690 -310 690 -310 567 -310 c 0,15,16
 446 -310 446 -310 324 -318 c 128,-1,17
 202 -326 202 -326 79 -343 c 1,18,-1
 56 -320 l 1,0,1
203 -28 m 1,19,20
 209 -27 209 -27 215 -26.5 c 128,-1,21
 221 -26 221 -26 227 -26 c 1,22,-1
 224 -51 l 1,23,-1
 203 -28 l 1,19,20
334 1288 m 1,24,25
 321 957 321 957 294.5 630.5 c 128,-1,26
 268 304 268 304 227 -26 c 1,27,28
 318 -20 318 -20 410 -17 c 128,-1,29
 502 -14 502 -14 593 -14 c 0,30,31
 640 -14 640 -14 684.5 -14.5 c 128,-1,32
 729 -15 729 -15 772.5 -16.5 c 128,-1,33
 816 -18 816 -18 860 -20.5 c 128,-1,34
 904 -23 904 -23 951 -26 c 1,35,36
 968 306 968 306 998 632.5 c 128,-1,37
 1028 959 1028 959 1076 1289 c 1,38,39
 979 1281 979 1281 885.5 1276 c 128,-1,40
 792 1271 792 1271 695 1271 c 0,41,42
 604 1271 604 1271 514 1275.5 c 128,-1,43
 424 1280 424 1280 334 1288 c 1,24,25
EndSplineSet
Validated: 5
EndChar

StartChar: exclam
Encoding: 33 33 4
Width: 629
Flags: W
LayerCount: 2
Fore
SplineSet
225 285 m 1,0,1
 248 290 248 290 272 293 c 128,-1,2
 296 296 296 296 322 296 c 0,3,4
 344 296 344 296 371.5 292 c 128,-1,5
 399 288 399 288 431 280 c 1,6,-1
 431 233 l 2,7,8
 431 200 431 200 431.5 167 c 128,-1,9
 432 134 432 134 433 101 c 0,10,11
 433 93 433 93 433 79.5 c 128,-1,12
 433 66 433 66 433.5 52 c 128,-1,13
 434 38 434 38 434 24.5 c 128,-1,14
 434 11 434 11 434 3 c 1,15,16
 357 37 357 37 303 37 c 0,17,18
 247 37 247 37 160 1 c 1,19,-1
 188 153 l 1,20,-1
 188 152 l 1,21,22
 193 181 193 181 198 211 c 128,-1,23
 203 241 203 241 209 270 c 1,24,-1
 225 285 l 1,0,1
344 1465 m 1,25,26
 362 1460 362 1460 380.5 1457.5 c 128,-1,27
 399 1455 399 1455 418 1455 c 0,28,29
 462 1455 462 1455 531 1477 c 1,30,31
 519 1346 519 1346 507.5 1203 c 128,-1,32
 496 1060 496 1060 487 930 c 0,33,34
 485 907 485 907 483 882 c 128,-1,35
 481 857 481 857 479 834 c 1,36,37
 479 797 479 797 479 761 c 128,-1,38
 479 725 479 725 478 689 c 0,39,40
 478 675 478 675 478 656.5 c 128,-1,41
 478 638 478 638 477.5 617.5 c 128,-1,42
 477 597 477 597 477 578 c 128,-1,43
 477 559 477 559 477 546 c 2,44,-1
 477 475 l 1,45,46
 436 482 436 482 403.5 485 c 128,-1,47
 371 488 371 488 344 488 c 0,48,49
 316 488 316 488 281 485 c 128,-1,50
 246 482 246 482 202 475 c 1,51,52
 237 713 237 713 265.5 961.5 c 128,-1,53
 294 1210 294 1210 319 1449 c 1,54,-1
 344 1465 l 1,25,26
EndSplineSet
Validated: 1
EndChar

StartChar: quotedbl
Encoding: 34 34 5
Width: 1133
Flags: W
LayerCount: 2
Fore
SplineSet
497 1455 m 1,0,1
 495 1321 495 1321 486.5 1183.5 c 128,-1,2
 478 1046 478 1046 461 903 c 1,3,4
 439 902 439 902 410 900.5 c 128,-1,5
 381 899 381 899 351 897.5 c 128,-1,6
 321 896 321 896 292.5 894 c 128,-1,7
 264 892 264 892 242 890 c 1,8,9
 274 1028 274 1028 289.5 1162 c 128,-1,10
 305 1296 305 1296 305 1427 c 2,11,-1
 305 1485 l 1,12,13
 324 1483 324 1483 346.5 1481.5 c 128,-1,14
 369 1480 369 1480 392 1478.5 c 128,-1,15
 415 1477 415 1477 437.5 1476 c 128,-1,16
 460 1475 460 1475 479 1474 c 1,17,-1
 497 1455 l 1,0,1
890 1460 m 1,18,19
 848 1253 848 1253 848 1048 c 0,20,21
 848 1014 848 1014 849 976 c 128,-1,22
 850 938 850 938 855 890 c 1,23,24
 833 892 833 892 804.5 894 c 128,-1,25
 776 896 776 896 746 897.5 c 128,-1,26
 716 899 716 899 687.5 900.5 c 128,-1,27
 659 902 659 902 638 903 c 1,28,29
 644 1047 644 1047 659.5 1189.5 c 128,-1,30
 675 1332 675 1332 698 1475 c 1,31,32
 726 1475 726 1475 761 1476.5 c 128,-1,33
 796 1478 796 1478 824 1480 c 2,34,-1
 869 1483 l 1,35,-1
 890 1460 l 1,18,19
EndSplineSet
Validated: 1
EndChar

StartChar: numbersign
Encoding: 35 35 6
Width: 1516
Flags: W
LayerCount: 2
Fore
SplineSet
928 879 m 1,0,-1
 901 879 l 1,1,-1
 909 905 l 1,2,-1
 928 879 l 1,0,-1
804 587 m 1,3,4
 820 635 820 635 836 684 c 128,-1,5
 852 733 852 733 869 781 c 1,6,-1
 901 879 l 1,7,8
 838 879 838 879 779.5 879 c 128,-1,9
 721 879 721 879 655 878 c 1,10,11
 653 871 653 871 650.5 865 c 128,-1,12
 648 859 648 859 646 851 c 0,13,14
 634 815 634 815 623.5 782.5 c 128,-1,15
 613 750 613 750 602.5 718.5 c 128,-1,16
 592 687 592 687 581 654.5 c 128,-1,17
 570 622 570 622 558 586 c 1,18,-1
 646 586 l 2,19,20
 675 586 675 586 703.5 586.5 c 128,-1,21
 732 587 732 587 761 587 c 2,22,-1
 804 587 l 1,3,4
842 1432 m 1,23,24
 808 1335 808 1335 774 1238 c 128,-1,25
 740 1141 740 1141 708 1043 c 1,26,27
 742 1043 742 1043 772 1043 c 128,-1,28
 802 1043 802 1043 831.5 1043 c 128,-1,29
 861 1043 861 1043 891.5 1043.5 c 128,-1,30
 922 1044 922 1044 956 1044 c 1,31,32
 991 1141 991 1141 1030 1242 c 128,-1,33
 1069 1343 1069 1343 1107 1437 c 1,34,35
 1139 1439 1139 1439 1177 1441 c 128,-1,36
 1215 1443 1215 1443 1246 1445 c 1,37,-1
 1286 1445 l 1,38,39
 1244 1346 1244 1346 1204 1246.5 c 128,-1,40
 1164 1147 1164 1147 1129 1046 c 1,41,42
 1197 1048 1197 1048 1273.5 1050.5 c 128,-1,43
 1350 1053 1350 1053 1416 1056 c 1,44,45
 1412 1034 1412 1034 1407.5 1001.5 c 128,-1,46
 1403 969 1403 969 1400 947 c 2,47,-1
 1392 886 l 1,48,49
 1312 884 1312 884 1230.5 883 c 128,-1,50
 1149 882 1149 882 1069 881 c 1,51,52
 1056 842 1056 842 1044 806 c 128,-1,53
 1032 770 1032 770 1020.5 734.5 c 128,-1,54
 1009 699 1009 699 997.5 663 c 128,-1,55
 986 627 986 627 974 587 c 1,56,57
 1004 587 1004 587 1034 586 c 128,-1,58
 1064 585 1064 585 1093 585 c 0,59,60
 1130 584 1130 584 1177 583.5 c 128,-1,61
 1224 583 1224 583 1261 583 c 1,62,63
 1259 567 1259 567 1257.5 541.5 c 128,-1,64
 1256 516 1256 516 1255 500 c 2,65,-1
 1250 417 l 1,66,67
 1196 419 1196 419 1133 420 c 128,-1,68
 1070 421 1070 421 1016 422 c 0,69,70
 989 422 989 422 968.5 423 c 128,-1,71
 948 424 948 424 921 424 c 1,72,73
 910 387 910 387 897.5 349 c 128,-1,74
 885 311 885 311 873 276 c 0,75,76
 864 249 864 249 854.5 217.5 c 128,-1,77
 845 186 845 186 835.5 154.5 c 128,-1,78
 826 123 826 123 816.5 92 c 128,-1,79
 807 61 807 61 799 34 c 1,80,81
 782 35 782 35 758 35.5 c 128,-1,82
 734 36 734 36 717 36 c 2,83,-1
 623 36 l 1,84,-1
 694 255 l 2,85,86
 702 279 702 279 709 299.5 c 128,-1,87
 716 320 716 320 722 340 c 128,-1,88
 728 360 728 360 735 380.5 c 128,-1,89
 742 401 742 401 750 425 c 1,90,91
 685 425 685 425 626.5 425 c 128,-1,92
 568 425 568 425 501 423 c 1,93,94
 470 332 470 332 436 242.5 c 128,-1,95
 402 153 402 153 367 63 c 1,96,-1
 367 65 l 1,97,-1
 355 31 l 1,98,-1
 274 27 l 1,99,-1
 175 23 l 1,100,101
 259 219 259 219 330 422 c 1,102,103
 261 420 261 420 185.5 417.5 c 128,-1,104
 110 415 110 415 43 413 c 1,105,106
 44 422 44 422 46 434.5 c 128,-1,107
 48 447 48 447 49.5 460.5 c 128,-1,108
 51 474 51 474 52.5 486.5 c 128,-1,109
 54 499 54 499 55 508 c 0,110,111
 56 515 56 515 57 525 c 128,-1,112
 58 535 58 535 59.5 545.5 c 128,-1,113
 61 556 61 556 62.5 565.5 c 128,-1,114
 64 575 64 575 65 581 c 1,115,-1
 241 583 l 2,116,117
 282 583 282 583 314.5 583.5 c 128,-1,118
 347 584 347 584 388 585 c 1,119,120
 414 662 414 662 437 731.5 c 128,-1,121
 460 801 460 801 486 880 c 1,122,123
 416 880 416 880 339 881.5 c 128,-1,124
 262 883 262 883 195 885 c 1,125,-1
 199 956 l 2,126,127
 201 976 201 976 202 1004 c 128,-1,128
 203 1032 203 1032 203 1052 c 1,129,130
 287 1048 287 1048 371 1046.5 c 128,-1,131
 455 1045 455 1045 538 1044 c 1,132,133
 567 1139 567 1139 599.5 1238.5 c 128,-1,134
 632 1338 632 1338 663 1432 c 1,135,-1
 842 1432 l 1,23,24
EndSplineSet
Validated: 5
EndChar

StartChar: dollar
Encoding: 36 36 7
Width: 1069
Flags: W
LayerCount: 2
Fore
SplineSet
540 -243 m 1,0,1
 521 -242 521 -242 498 -241.5 c 128,-1,2
 475 -241 475 -241 451.5 -241 c 128,-1,3
 428 -241 428 -241 405 -241 c 128,-1,4
 382 -241 382 -241 363 -241 c 1,5,-1
 374 -181 l 2,6,7
 380 -150 380 -150 384.5 -123 c 128,-1,8
 389 -96 389 -96 393.5 -69 c 128,-1,9
 398 -42 398 -42 403 -15 c 128,-1,10
 408 12 408 12 413 43 c 1,11,12
 320 48 320 48 227 65.5 c 128,-1,13
 134 83 134 83 41 121 c 1,14,-1
 53 205 l 2,15,16
 55 222 55 222 57.5 244.5 c 128,-1,17
 60 267 60 267 63 290.5 c 128,-1,18
 66 314 66 314 68.5 336.5 c 128,-1,19
 71 359 71 359 73 376 c 1,20,21
 161 317 161 317 252.5 286 c 128,-1,22
 344 255 344 255 437 251 c 1,23,-1
 456 427 l 1,24,-1
 474 601 l 1,25,26
 402 616 402 616 333 642.5 c 128,-1,27
 264 669 264 669 211 724 c 0,28,29
 166 772 166 772 149.5 835.5 c 128,-1,30
 133 899 133 899 133 964 c 1,31,32
 135 1003 135 1003 149 1043 c 128,-1,33
 163 1083 163 1083 186 1119 c 128,-1,34
 209 1155 209 1155 240 1185 c 128,-1,35
 271 1215 271 1215 309 1235 c 1,36,37
 373 1264 373 1264 435 1277 c 128,-1,38
 497 1290 497 1290 554 1294 c 1,39,-1
 561 1349 l 2,40,41
 563 1368 563 1368 565.5 1389.5 c 128,-1,42
 568 1411 568 1411 570 1433 c 128,-1,43
 572 1455 572 1455 574 1477 c 128,-1,44
 576 1499 576 1499 578 1518 c 1,45,46
 588 1518 588 1518 607 1517.5 c 128,-1,47
 626 1517 626 1517 636 1517 c 0,48,49
 646 1516 646 1516 665.5 1516 c 128,-1,50
 685 1516 685 1516 695 1516 c 1,51,-1
 671 1296 l 1,52,53
 746 1292 746 1292 827.5 1281.5 c 128,-1,54
 909 1271 909 1271 994 1248 c 1,55,-1
 983 1168 l 1,56,-1
 970 1076 l 1,57,58
 890 1118 890 1118 811 1136 c 128,-1,59
 732 1154 732 1154 655 1159 c 1,60,61
 644 1059 644 1059 634 960.5 c 128,-1,62
 624 862 624 862 614 762 c 2,63,-1
 612 742 l 1,64,65
 649 735 649 735 686.5 726 c 128,-1,66
 724 717 724 717 761 704 c 128,-1,67
 798 691 798 691 832 673 c 128,-1,68
 866 655 866 655 895 629 c 0,69,70
 940 587 940 587 959.5 525.5 c 128,-1,71
 979 464 979 464 979 402 c 0,72,73
 979 366 979 366 970 328.5 c 128,-1,74
 961 291 961 291 944 256 c 128,-1,75
 927 221 927 221 903 189.5 c 128,-1,76
 879 158 879 158 849 134 c 1,77,78
 785 89 785 89 712.5 68.5 c 128,-1,79
 640 48 640 48 567 42 c 1,80,-1
 565 -54 l 1,81,82
 563 -97 563 -97 562.5 -139 c 128,-1,83
 562 -181 562 -181 561 -224 c 1,84,-1
 540 -243 l 1,0,1
484 754 m 1,85,-1
 484 755 l 1,86,-1
 486 755 l 1,87,-1
 484 754 l 1,85,-1
282 936 m 0,88,89
 282 896 282 896 300 864.5 c 128,-1,90
 318 833 318 833 346.5 810 c 128,-1,91
 375 787 375 787 411 773 c 128,-1,92
 447 759 447 759 484 755 c 1,93,94
 491 818 491 818 497 880.5 c 128,-1,95
 503 943 503 943 510 1007 c 0,96,97
 514 1046 514 1046 517 1078 c 128,-1,98
 520 1110 520 1110 525 1151 c 1,99,100
 478 1145 478 1145 435.5 1132 c 128,-1,101
 393 1119 393 1119 355 1088 c 0,102,103
 319 1059 319 1059 300.5 1019.5 c 128,-1,104
 282 980 282 980 282 936 c 0,88,89
589 582 m 1,105,106
 588 578 588 578 588 571 c 1,107,108
 586 572 586 572 586 572 c 1,109,-1
 581 568 l 1,110,-1
 589 582 l 1,105,106
778 403 m 0,111,112
 778 439 778 439 761 467 c 128,-1,113
 744 495 744 495 717 516 c 128,-1,114
 690 537 690 537 656 551 c 128,-1,115
 622 565 622 565 588 571 c 1,116,117
 584 522 584 522 581.5 473.5 c 128,-1,118
 579 425 579 425 577 377 c 2,119,-1
 570 246 l 1,120,121
 606 252 606 252 642.5 260.5 c 128,-1,122
 679 269 679 269 714 282 c 0,123,124
 733 288 733 288 745.5 301.5 c 128,-1,125
 758 315 758 315 765.5 332 c 128,-1,126
 773 349 773 349 775.5 367.5 c 128,-1,127
 778 386 778 386 778 403 c 0,111,112
EndSplineSet
Validated: 5
EndChar

StartChar: percent
Encoding: 37 37 8
Width: 2030
Flags: W
LayerCount: 2
Fore
SplineSet
1380 651 m 0,0,1
 1328 651 1328 651 1293.5 624.5 c 128,-1,2
 1259 598 1259 598 1238 557.5 c 128,-1,3
 1217 517 1217 517 1208.5 470 c 128,-1,4
 1200 423 1200 423 1200 382 c 0,5,6
 1200 343 1200 343 1210 306 c 128,-1,7
 1220 269 1220 269 1241 240.5 c 128,-1,8
 1262 212 1262 212 1293.5 195 c 128,-1,9
 1325 178 1325 178 1367 178 c 0,10,11
 1416 178 1416 178 1446.5 206 c 128,-1,12
 1477 234 1477 234 1494 275 c 128,-1,13
 1511 316 1511 316 1517 362 c 128,-1,14
 1523 408 1523 408 1523 443 c 0,15,16
 1523 479 1523 479 1515.5 516 c 128,-1,17
 1508 553 1508 553 1491 583 c 128,-1,18
 1474 613 1474 613 1447 632 c 128,-1,19
 1420 651 1420 651 1380 651 c 0,0,1
1389 793 m 0,20,21
 1458 793 1458 793 1519 766.5 c 128,-1,22
 1580 740 1580 740 1618 683 c 1,23,-1
 1617 684 l 1,24,25
 1660 625 1660 625 1674.5 553 c 128,-1,26
 1689 481 1689 481 1689 407 c 0,27,28
 1689 369 1689 369 1685.5 328 c 128,-1,29
 1682 287 1682 287 1672 247 c 128,-1,30
 1662 207 1662 207 1645 168.5 c 128,-1,31
 1628 130 1628 130 1600 97 c 1,32,-1
 1601 98 l 1,33,34
 1581 71 1581 71 1554.5 52 c 128,-1,35
 1528 33 1528 33 1498 21 c 128,-1,36
 1468 9 1468 9 1436.5 4 c 128,-1,37
 1405 -1 1405 -1 1375 -1 c 0,38,39
 1299 -1 1299 -1 1227 26 c 128,-1,40
 1155 53 1155 53 1107 115 c 1,41,-1
 1108 114 l 1,42,43
 1065 164 1065 164 1048 228 c 128,-1,44
 1031 292 1031 292 1031 358 c 0,45,46
 1031 400 1031 400 1036.5 444 c 128,-1,47
 1042 488 1042 488 1055.5 530.5 c 128,-1,48
 1069 573 1069 573 1090 612.5 c 128,-1,49
 1111 652 1111 652 1143 686 c 1,50,-1
 1143 685 l 1,51,52
 1191 740 1191 740 1256 766.5 c 128,-1,53
 1321 793 1321 793 1389 793 c 0,20,21
466 1349 m 2,54,55
 424 1349 424 1349 393.5 1326 c 128,-1,56
 363 1303 363 1303 344 1268 c 128,-1,57
 325 1233 325 1233 316 1192 c 128,-1,58
 307 1151 307 1151 307 1114 c 2,59,-1
 307 1101 l 1,60,61
 306 1095 306 1095 306 1089 c 128,-1,62
 306 1083 306 1083 306 1077 c 0,63,64
 306 1038 306 1038 313 998 c 128,-1,65
 320 958 320 958 337 925 c 128,-1,66
 354 892 354 892 382.5 871 c 128,-1,67
 411 850 411 850 455 850 c 0,68,69
 507 850 507 850 541 880.5 c 128,-1,70
 575 911 575 911 595 954.5 c 128,-1,71
 615 998 615 998 623 1047 c 128,-1,72
 631 1096 631 1096 631 1133 c 256,73,74
 631 1170 631 1170 621 1207 c 128,-1,75
 611 1244 611 1244 591.5 1274.5 c 128,-1,76
 572 1305 572 1305 543 1325.5 c 128,-1,77
 514 1346 514 1346 476 1349 c 1,78,-1
 466 1349 l 2,54,55
1439 1489 m 2,79,80
 1447 1489 1447 1489 1462.5 1490 c 128,-1,81
 1478 1491 1478 1491 1494.5 1492 c 128,-1,82
 1511 1493 1511 1493 1526 1494 c 128,-1,83
 1541 1495 1541 1495 1550 1496 c 1,84,85
 1477 1403 1477 1403 1403 1303.5 c 128,-1,86
 1329 1204 1329 1204 1256 1102 c 128,-1,87
 1183 1000 1183 1000 1112.5 898 c 128,-1,88
 1042 796 1042 796 976 699 c 0,89,90
 856 524 856 524 733 348 c 128,-1,91
 610 172 610 172 481 4 c 1,92,93
 449 3 449 3 414 2 c 128,-1,94
 379 1 379 1 347 -1 c 1,95,-1
 297 -1 l 1,96,97
 367 88 367 88 437.5 184 c 128,-1,98
 508 280 508 280 578 377.5 c 128,-1,99
 648 475 648 475 716 572.5 c 128,-1,100
 784 670 784 670 848 763 c 0,101,102
 973 946 973 946 1100.5 1129 c 128,-1,103
 1228 1312 1228 1312 1364 1486 c 1,104,-1
 1439 1489 l 2,79,80
478 1490 m 1,105,106
 551 1488 551 1488 615 1458.5 c 128,-1,107
 679 1429 679 1429 724 1374 c 0,108,109
 766 1323 766 1323 783 1259.5 c 128,-1,110
 800 1196 800 1196 800 1129 c 0,111,112
 800 1087 800 1087 794 1043.5 c 128,-1,113
 788 1000 788 1000 775 957.5 c 128,-1,114
 762 915 762 915 740.5 875.5 c 128,-1,115
 719 836 719 836 688 802 c 0,116,117
 641 751 641 751 579 724.5 c 128,-1,118
 517 698 517 698 451 698 c 0,119,120
 416 698 416 698 381.5 704 c 128,-1,121
 347 710 347 710 316 723 c 128,-1,122
 285 736 285 736 258 757 c 128,-1,123
 231 778 231 778 212 808 c 1,124,125
 171 868 171 868 157 940 c 128,-1,126
 143 1012 143 1012 143 1086 c 0,127,128
 143 1124 143 1124 146.5 1164.5 c 128,-1,129
 150 1205 150 1205 159.5 1245 c 128,-1,130
 169 1285 169 1285 186 1322.5 c 128,-1,131
 203 1360 203 1360 230 1393 c 0,132,133
 272 1444 272 1444 332 1467 c 128,-1,134
 392 1490 392 1490 454 1491 c 0,135,136
 457 1491 457 1491 459.5 1490.5 c 128,-1,137
 462 1490 462 1490 465 1490 c 2,138,-1
 478 1490 l 1,105,106
EndSplineSet
Validated: 1
EndChar

StartChar: ampersand
Encoding: 38 38 9
Width: 1620
Flags: W
LayerCount: 2
Fore
SplineSet
506 835 m 1,0,-1
 492 822 l 1,1,-1
 479 836 l 1,2,-1
 506 835 l 1,0,-1
492 822 m 1,3,4
 452 787 452 787 418.5 748 c 128,-1,5
 385 709 385 709 360.5 665 c 128,-1,6
 336 621 336 621 322.5 573 c 128,-1,7
 309 525 309 525 309 473 c 0,8,9
 309 407 309 407 333.5 357.5 c 128,-1,10
 358 308 358 308 400 276 c 128,-1,11
 442 244 442 244 496.5 228 c 128,-1,12
 551 212 551 212 611 212 c 0,13,14
 693 212 693 212 775 241.5 c 128,-1,15
 857 271 857 271 925 324 c 1,16,17
 850 409 850 409 777 493.5 c 128,-1,18
 704 578 704 578 629 663 c 1,19,-1
 492 822 l 1,3,4
618 947 m 1,20,21
 683 877 683 877 747 807 c 128,-1,22
 811 737 811 737 875 665 c 2,23,-1
 1068 450 l 1,24,25
 1120 528 1120 528 1144 619 c 128,-1,26
 1168 710 1168 710 1182 808 c 1,27,28
 1201 808 1201 808 1226 808 c 128,-1,29
 1251 808 1251 808 1277.5 808 c 128,-1,30
 1304 808 1304 808 1329.5 808.5 c 128,-1,31
 1355 809 1355 809 1374 809 c 1,32,33
 1368 779 1368 779 1361.5 745.5 c 128,-1,34
 1355 712 1355 712 1348 677.5 c 128,-1,35
 1341 643 1341 643 1333.5 609.5 c 128,-1,36
 1326 576 1326 576 1319 546 c 0,37,38
 1302 482 1302 482 1272.5 422.5 c 128,-1,39
 1243 363 1243 363 1205 309 c 1,40,-1
 1319 182 l 1,41,-1
 1478 5 l 1,42,43
 1451 8 1451 8 1415.5 10.5 c 128,-1,44
 1380 13 1380 13 1342 16 c 128,-1,45
 1304 19 1304 19 1268 21 c 128,-1,46
 1232 23 1232 23 1205 25 c 1,47,-1
 1075 168 l 1,48,49
 970 86 970 86 849.5 47.5 c 128,-1,50
 729 9 729 9 601 9 c 0,51,52
 553 9 553 9 505 15 c 128,-1,53
 457 21 457 21 411.5 34.5 c 128,-1,54
 366 48 366 48 325 71 c 128,-1,55
 284 94 284 94 251 129 c 0,56,57
 198 183 198 183 174 254.5 c 128,-1,58
 150 326 150 326 150 401 c 0,59,60
 150 479 150 479 171 551 c 128,-1,61
 192 623 192 623 230 687 c 128,-1,62
 268 751 268 751 320.5 806 c 128,-1,63
 373 861 373 861 435 906 c 1,64,65
 404 957 404 957 383 1012.5 c 128,-1,66
 362 1068 362 1068 362 1131 c 0,67,68
 362 1165 362 1165 369 1201.5 c 128,-1,69
 376 1238 376 1238 391 1272.5 c 128,-1,70
 406 1307 406 1307 428 1338 c 128,-1,71
 450 1369 450 1369 480 1392 c 1,72,-1
 479 1391 l 1,73,74
 511 1418 511 1418 547 1435 c 128,-1,75
 583 1452 583 1452 621 1462.5 c 128,-1,76
 659 1473 659 1473 698 1477 c 128,-1,77
 737 1481 737 1481 775 1481 c 0,78,79
 858 1481 858 1481 942 1460.5 c 128,-1,80
 1026 1440 1026 1440 1108 1408 c 1,81,82
 1099 1393 1099 1393 1086.5 1373 c 128,-1,83
 1074 1353 1074 1353 1060.5 1332 c 128,-1,84
 1047 1311 1047 1311 1035 1291 c 128,-1,85
 1023 1271 1023 1271 1014 1256 c 1,86,87
 941 1294 941 1294 865 1322 c 128,-1,88
 789 1350 789 1350 709 1350 c 0,89,90
 667 1350 667 1350 628.5 1337.5 c 128,-1,91
 590 1325 590 1325 560.5 1301.5 c 128,-1,92
 531 1278 531 1278 513.5 1243.5 c 128,-1,93
 496 1209 496 1209 496 1165 c 0,94,95
 496 1134 496 1134 507.5 1104.5 c 128,-1,96
 519 1075 519 1075 536.5 1048 c 128,-1,97
 554 1021 554 1021 575.5 995.5 c 128,-1,98
 597 970 597 970 618 946 c 1,99,-1
 618 947 l 1,20,21
EndSplineSet
Validated: 5
EndChar

StartChar: quotesingle
Encoding: 39 39 10
Width: 713
Flags: W
LayerCount: 2
Fore
SplineSet
483 1463 m 1,0,1
 467 1331 467 1331 455 1189.5 c 128,-1,2
 443 1048 443 1048 436 916 c 1,3,4
 408 925 408 925 387 929 c 128,-1,5
 366 933 366 933 350 933 c 0,6,7
 329 933 329 933 303 929 c 128,-1,8
 277 925 277 925 248 918 c 1,9,10
 257 984 257 984 264.5 1057 c 128,-1,11
 272 1130 272 1130 278.5 1205 c 128,-1,12
 285 1280 285 1280 290.5 1353 c 128,-1,13
 296 1426 296 1426 299 1492 c 1,14,15
 328 1481 328 1481 349.5 1477 c 128,-1,16
 371 1473 371 1473 388 1473 c 0,17,18
 406 1473 406 1473 424 1475.5 c 128,-1,19
 442 1478 442 1478 459 1483 c 1,20,-1
 483 1463 l 1,0,1
EndSplineSet
Validated: 1
EndChar

StartChar: parenleft
Encoding: 40 40 11
Width: 668
Flags: W
LayerCount: 2
Fore
SplineSet
673 1505 m 1,0,1
 605 1409 605 1409 541.5 1308.5 c 128,-1,2
 478 1208 478 1208 425.5 1102 c 128,-1,3
 373 996 373 996 337 885.5 c 128,-1,4
 301 775 301 775 289 660 c 1,5,-1
 289 661 l 1,6,7
 287 610 287 610 285.5 559.5 c 128,-1,8
 284 509 284 509 284 458 c 0,9,10
 284 400 284 400 286.5 344 c 128,-1,11
 289 288 289 288 293 231 c 0,12,13
 302 122 302 122 332 3.5 c 128,-1,14
 362 -115 362 -115 405 -231 c 1,15,16
 343 -220 343 -220 287.5 -214.5 c 128,-1,17
 232 -209 232 -209 179 -208 c 1,18,19
 123 -45 123 -45 99.5 121.5 c 128,-1,20
 76 288 76 288 76 456 c 0,21,22
 76 569 76 569 85 682 c 1,23,24
 103 798 103 798 143.5 909 c 128,-1,25
 184 1020 184 1020 240.5 1125 c 128,-1,26
 297 1230 297 1230 367 1329.5 c 128,-1,27
 437 1429 437 1429 515 1521 c 1,28,29
 553 1521 553 1521 587 1526 c 128,-1,30
 621 1531 621 1531 654 1537 c 1,31,-1
 673 1505 l 1,0,1
EndSplineSet
Validated: 1
EndChar

StartChar: parenright
Encoding: 41 41 12
Width: 670
Flags: W
LayerCount: 2
Fore
SplineSet
421 912 m 0,0,1
 421 1081 421 1081 395.5 1232 c 128,-1,2
 370 1383 370 1383 312 1532 c 1,3,-1
 327 1530 l 1,4,-1
 323 1545 l 1,5,6
 363 1538 363 1538 402.5 1533 c 128,-1,7
 442 1528 442 1528 482 1526 c 1,8,9
 518 1446 518 1446 543.5 1364.5 c 128,-1,10
 569 1283 569 1283 585 1199.5 c 128,-1,11
 601 1116 601 1116 608 1029.5 c 128,-1,12
 615 943 615 943 615 852 c 0,13,14
 615 687 615 687 587.5 527 c 128,-1,15
 560 367 560 367 486 217 c 1,16,17
 434 114 434 114 373 9.5 c 128,-1,18
 312 -95 312 -95 245 -196 c 1,19,20
 191 -196 191 -196 128.5 -202.5 c 128,-1,21
 66 -209 66 -209 -12 -226 c 1,22,23
 63 -120 63 -120 131.5 -11.5 c 128,-1,24
 200 97 200 97 256 208 c 128,-1,25
 312 319 312 319 352 432.5 c 128,-1,26
 392 546 392 546 410 660 c 1,27,-1
 410 659 l 1,28,29
 416 723 416 723 418.5 786 c 128,-1,30
 421 849 421 849 421 912 c 0,0,1
EndSplineSet
Validated: 1
EndChar

StartChar: asterisk
Encoding: 42 42 13
Width: 985
Flags: W
LayerCount: 2
Fore
SplineSet
897 1220 m 1,0,1
 820 1177 820 1177 743 1135 c 128,-1,2
 666 1093 666 1093 588 1052 c 1,3,-1
 573 1043 l 1,4,5
 647 999 647 999 727.5 951.5 c 128,-1,6
 808 904 808 904 880 858 c 1,7,8
 874 849 874 849 865 834 c 128,-1,9
 856 819 856 819 846 803 c 128,-1,10
 836 787 836 787 826.5 772.5 c 128,-1,11
 817 758 817 758 811 749 c 1,12,13
 737 799 737 799 667.5 846 c 128,-1,14
 598 893 598 893 522 943 c 1,15,-1
 516 873 l 2,16,17
 511 808 511 808 505.5 735.5 c 128,-1,18
 500 663 500 663 496 597 c 1,19,-1
 365 597 l 1,20,21
 367 633 367 633 371.5 679 c 128,-1,22
 376 725 376 725 380 761 c 0,23,24
 383 787 383 787 385 808.5 c 128,-1,25
 387 830 387 830 389 851 c 128,-1,26
 391 872 391 872 393 894 c 128,-1,27
 395 916 395 916 397 942 c 1,28,29
 355 917 355 917 314.5 893 c 128,-1,30
 274 869 274 869 232 844 c 2,31,-1
 71 748 l 1,32,-1
 50 798 l 2,33,34
 45 810 45 810 37.5 829 c 128,-1,35
 30 848 30 848 25 859 c 1,36,37
 105 905 105 905 193 952.5 c 128,-1,38
 281 1000 281 1000 364 1045 c 1,39,40
 287 1088 287 1088 207 1136 c 128,-1,41
 127 1184 127 1184 55 1231 c 1,42,43
 58 1235 58 1235 62.5 1242 c 128,-1,44
 67 1249 67 1249 72 1256.5 c 128,-1,45
 77 1264 77 1264 81 1270.5 c 128,-1,46
 85 1277 85 1277 88 1281 c 0,47,48
 91 1286 91 1286 91 1288 c 128,-1,49
 91 1290 91 1290 93.5 1294.5 c 128,-1,50
 96 1299 96 1299 102.5 1309 c 128,-1,51
 109 1319 109 1319 125 1339 c 1,52,53
 182 1299 182 1299 246.5 1256.5 c 128,-1,54
 311 1214 311 1214 369 1176 c 0,55,56
 378 1171 378 1171 383 1168 c 128,-1,57
 388 1165 388 1165 392 1162 c 128,-1,58
 396 1159 396 1159 401 1155.5 c 128,-1,59
 406 1152 406 1152 415 1146 c 1,60,-1
 427 1294 l 1,61,-1
 442 1492 l 1,62,-1
 574 1492 l 1,63,64
 564 1402 564 1402 555.5 1319 c 128,-1,65
 547 1236 547 1236 540 1146 c 1,66,67
 620 1192 620 1192 704 1243.5 c 128,-1,68
 788 1295 788 1295 865 1342 c 1,69,70
 873 1323 873 1323 884.5 1293.5 c 128,-1,71
 896 1264 896 1264 905 1244 c 1,72,-1
 897 1220 l 1,0,1
EndSplineSet
Validated: 1
EndChar

StartChar: plus
Encoding: 43 43 14
Width: 1286
Flags: W
LayerCount: 2
Fore
SplineSet
739 1254 m 1,0,1
 724 1123 724 1123 711 993.5 c 128,-1,2
 698 864 698 864 687 732 c 1,3,4
 811 732 811 732 941 733 c 128,-1,5
 1071 734 1071 734 1194 736 c 1,6,-1
 1178 552 l 1,7,8
 1050 554 1050 554 924 554 c 128,-1,9
 798 554 798 554 670 554 c 1,10,11
 659 427 659 427 649 293.5 c 128,-1,12
 639 160 639 160 631 33 c 1,13,-1
 447 33 l 1,14,-1
 461 178 l 2,15,16
 465 218 465 218 469.5 266 c 128,-1,17
 474 314 474 314 479 364 c 128,-1,18
 484 414 484 414 488.5 463 c 128,-1,19
 493 512 493 512 496 554 c 1,20,21
 437 554 437 554 379.5 553.5 c 128,-1,22
 322 553 322 553 263 553 c 0,23,24
 233 553 233 553 197 552.5 c 128,-1,25
 161 552 161 552 124 552 c 128,-1,26
 87 552 87 552 51.5 552 c 128,-1,27
 16 552 16 552 -12 552 c 1,28,-1
 4 737 l 1,29,30
 132 734 132 734 258 733.5 c 128,-1,31
 384 733 384 733 512 733 c 1,32,-1
 536 1025 l 1,33,-1
 554 1254 l 1,34,-1
 739 1254 l 1,0,1
EndSplineSet
Validated: 1
EndChar

StartChar: comma
Encoding: 44 44 15
Width: 543
Flags: W
LayerCount: 2
Fore
SplineSet
245 258 m 1,0,1
 260 257 260 257 274 257 c 128,-1,2
 288 257 288 257 304 257 c 0,3,4
 346 257 346 257 393.5 260 c 128,-1,5
 441 263 441 263 496 270 c 1,6,7
 491 246 491 246 486.5 217 c 128,-1,8
 482 188 482 188 477.5 158 c 128,-1,9
 473 128 473 128 469 99.5 c 128,-1,10
 465 71 465 71 462 47 c 1,11,-1
 420 -12 l 1,12,13
 373 -73 373 -73 323 -138 c 128,-1,14
 273 -203 273 -203 223 -262 c 1,15,16
 210 -263 210 -263 190.5 -264.5 c 128,-1,17
 171 -266 171 -266 150 -268 c 128,-1,18
 129 -270 129 -270 109 -272 c 128,-1,19
 89 -274 89 -274 76 -276 c 1,20,21
 89 -247 89 -247 104 -213 c 128,-1,22
 119 -179 119 -179 134 -143.5 c 128,-1,23
 149 -108 149 -108 163 -73.5 c 128,-1,24
 177 -39 177 -39 189 -9 c 2,25,-1
 212 51 l 1,26,27
 216 99 216 99 219 145.5 c 128,-1,28
 222 192 222 192 225 240 c 1,29,-1
 245 258 l 1,0,1
EndSplineSet
Validated: 1
EndChar

StartChar: hyphen
Encoding: 45 45 16
Width: 1059
Flags: W
LayerCount: 2
Fore
SplineSet
283 655 m 1,0,1
 291 655 291 655 299.5 654.5 c 128,-1,2
 308 654 308 654 317 654 c 2,3,-1
 351 654 l 2,4,5
 444 654 444 654 534.5 657 c 128,-1,6
 625 660 625 660 719 663 c 1,7,-1
 820 665 l 1,8,9
 800 631 800 631 788 600 c 128,-1,10
 776 569 776 569 776 546 c 0,11,12
 776 525 776 525 788 485 c 1,13,14
 725 485 725 485 653 484.5 c 128,-1,15
 581 484 581 484 507 482.5 c 128,-1,16
 433 481 433 481 360.5 479.5 c 128,-1,17
 288 478 288 478 225 475 c 1,18,19
 247 512 247 512 257.5 542.5 c 128,-1,20
 268 573 268 573 268 596 c 0,21,22
 268 617 268 617 265 632 c 1,23,-1
 283 655 l 1,0,1
EndSplineSet
Validated: 1
EndChar

StartChar: period
Encoding: 46 46 17
Width: 846
Flags: W
LayerCount: 2
Fore
SplineSet
301 345 m 1,0,1
 364 339 364 339 425 339 c 0,2,3
 443 339 443 339 465.5 339.5 c 128,-1,4
 488 340 488 340 511 341.5 c 128,-1,5
 534 343 534 343 556.5 344 c 128,-1,6
 579 345 579 345 597 347 c 1,7,8
 580 269 580 269 572 200 c 128,-1,9
 564 131 564 131 564 69 c 0,10,11
 564 64 564 64 564.5 55.5 c 128,-1,12
 565 47 565 47 565 38 c 128,-1,13
 565 29 565 29 565.5 20.5 c 128,-1,14
 566 12 566 12 566 8 c 1,15,16
 521 12 521 12 482 14 c 128,-1,17
 443 16 443 16 410 16 c 0,18,19
 375 16 375 16 334.5 14 c 128,-1,20
 294 12 294 12 248 8 c 1,21,22
 264 84 264 84 271.5 154 c 128,-1,23
 279 224 279 224 279 288 c 2,24,-1
 279 325 l 1,25,-1
 301 345 l 1,0,1
EndSplineSet
Validated: 1
EndChar

StartChar: slash
Encoding: 47 47 18
Width: 741
Flags: W
LayerCount: 2
Fore
SplineSet
701 1444 m 1,0,1
 717 1445 717 1445 738 1448 c 128,-1,2
 759 1451 759 1451 781 1454 c 128,-1,3
 803 1457 803 1457 824 1460 c 128,-1,4
 845 1463 845 1463 861 1465 c 1,5,6
 772 1255 772 1255 684.5 1029.5 c 128,-1,7
 597 804 597 804 516 591 c 0,8,9
 445 405 445 405 371.5 216 c 128,-1,10
 298 27 298 27 223 -157 c 1,11,12
 171 -159 171 -159 113 -164 c 128,-1,13
 55 -169 55 -169 -25 -181 c 1,14,15
 20 -84 20 -84 65.5 18 c 128,-1,16
 111 120 111 120 156 223.5 c 128,-1,17
 201 327 201 327 245.5 429.5 c 128,-1,18
 290 532 290 532 332 630 c 0,19,20
 373 726 373 726 416.5 828 c 128,-1,21
 460 930 460 930 505 1032.5 c 128,-1,22
 550 1135 550 1135 595.5 1236.5 c 128,-1,23
 641 1338 641 1338 685 1432 c 1,24,-1
 701 1444 l 1,0,1
EndSplineSet
Validated: 1
EndChar

StartChar: zero
Encoding: 48 48 19
Width: 1397
Flags: W
LayerCount: 2
Fore
SplineSet
707 1384 m 2,0,1
 668 1384 668 1384 630.5 1370.5 c 128,-1,2
 593 1357 593 1357 561 1333 c 128,-1,3
 529 1309 529 1309 504 1276 c 128,-1,4
 479 1243 479 1243 466 1205 c 1,5,6
 441 1143 441 1143 426 1080 c 128,-1,7
 411 1017 411 1017 403.5 955.5 c 128,-1,8
 396 894 396 894 393.5 834 c 128,-1,9
 391 774 391 774 391 717 c 0,10,11
 391 657 391 657 397.5 600 c 128,-1,12
 404 543 404 543 424 489 c 256,13,14
 444 435 444 435 493 406 c 128,-1,15
 542 377 542 377 600 377 c 2,16,-1
 610 377 l 2,17,18
 612 377 612 377 613 376.5 c 128,-1,19
 614 376 614 376 616 376 c 2,20,-1
 623 376 l 2,21,22
 682 376 682 376 727.5 401 c 128,-1,23
 773 426 773 426 807.5 467.5 c 128,-1,24
 842 509 842 509 867 563.5 c 128,-1,25
 892 618 892 618 909 676 c 128,-1,26
 926 734 926 734 936 792 c 128,-1,27
 946 850 946 850 951.5 900 c 128,-1,28
 957 950 957 950 958.5 986.5 c 128,-1,29
 960 1023 960 1023 960 1039 c 0,30,31
 960 1077 960 1077 957 1114.5 c 128,-1,32
 954 1152 954 1152 946 1190 c 1,33,34
 940 1232 940 1232 922 1267.5 c 128,-1,35
 904 1303 904 1303 876.5 1329.5 c 128,-1,36
 849 1356 849 1356 814 1370.5 c 128,-1,37
 779 1385 779 1385 740 1385 c 0,38,39
 738 1385 738 1385 735.5 1384.5 c 128,-1,40
 733 1384 733 1384 731 1384 c 2,41,-1
 707 1384 l 2,0,1
743 1480 m 2,42,43
 792 1480 792 1480 841 1469 c 128,-1,44
 890 1458 890 1458 933.5 1436 c 128,-1,45
 977 1414 977 1414 1012 1381 c 128,-1,46
 1047 1348 1047 1348 1069 1303 c 0,47,48
 1113 1212 1113 1212 1127.5 1115.5 c 128,-1,49
 1142 1019 1142 1019 1142 922 c 0,50,51
 1142 877 1142 877 1140 832 c 128,-1,52
 1138 787 1138 787 1135 744 c 1,53,54
 1126 676 1126 676 1114.5 607 c 128,-1,55
 1103 538 1103 538 1085.5 470 c 128,-1,56
 1068 402 1068 402 1041.5 336 c 128,-1,57
 1015 270 1015 270 975 209 c 1,58,59
 940 159 940 159 896.5 121.5 c 128,-1,60
 853 84 853 84 803.5 59 c 128,-1,61
 754 34 754 34 701.5 22 c 128,-1,62
 649 10 649 10 597 10 c 2,63,-1
 566 10 l 2,64,65
 516 10 516 10 467.5 21 c 128,-1,66
 419 32 419 32 375.5 54 c 128,-1,67
 332 76 332 76 297 109 c 128,-1,68
 262 142 262 142 239 186 c 1,69,70
 195 275 195 275 180.5 369 c 128,-1,71
 166 463 166 463 166 558 c 0,72,73
 166 606 166 606 168 653.5 c 128,-1,74
 170 701 170 701 173 747 c 1,75,76
 182 812 182 812 194.5 881.5 c 128,-1,77
 207 951 207 951 225 1019.5 c 128,-1,78
 243 1088 243 1088 269.5 1154.5 c 128,-1,79
 296 1221 296 1221 334 1280 c 1,80,81
 368 1329 368 1329 412.5 1366 c 128,-1,82
 457 1403 457 1403 507.5 1428.5 c 128,-1,83
 558 1454 558 1454 611 1467 c 128,-1,84
 664 1480 664 1480 715 1480 c 2,85,-1
 743 1480 l 2,42,43
EndSplineSet
Validated: 1
EndChar

StartChar: one
Encoding: 49 49 20
Width: 1206
Flags: W
LayerCount: 2
Fore
SplineSet
268 305 m 1,0,1
 345 311 345 311 415 314.5 c 128,-1,2
 485 318 485 318 563 319 c 1,3,4
 574 440 574 440 584 556.5 c 128,-1,5
 594 673 594 673 604 788.5 c 128,-1,6
 614 904 614 904 623.5 1020.5 c 128,-1,7
 633 1137 633 1137 642 1258 c 1,8,9
 566 1244 566 1244 478.5 1233 c 128,-1,10
 391 1222 391 1222 304 1214 c 1,11,12
 305 1234 305 1234 305.5 1260.5 c 128,-1,13
 306 1287 306 1287 306.5 1314 c 128,-1,14
 307 1341 307 1341 307.5 1367.5 c 128,-1,15
 308 1394 308 1394 308 1414 c 1,16,17
 398 1419 398 1419 478.5 1429 c 128,-1,18
 559 1439 559 1439 639 1452 c 1,19,-1
 666 1456 l 1,20,21
 689 1455 689 1455 712.5 1455 c 128,-1,22
 736 1455 736 1455 759 1455 c 0,23,24
 771 1455 771 1455 786 1455 c 128,-1,25
 801 1455 801 1455 817 1455.5 c 128,-1,26
 833 1456 833 1456 848 1456.5 c 128,-1,27
 863 1457 863 1457 875 1458 c 1,28,29
 843 1172 843 1172 816.5 888.5 c 128,-1,30
 790 605 790 605 769 319 c 1,31,32
 843 317 843 317 923.5 312.5 c 128,-1,33
 1004 308 1004 308 1076 301 c 1,34,35
 1074 246 1074 246 1072 182 c 128,-1,36
 1070 118 1070 118 1070 63 c 2,37,-1
 1070 7 l 1,38,39
 957 22 957 22 848.5 30 c 128,-1,40
 740 38 740 38 636 38 c 0,41,42
 535 38 535 38 429 31 c 128,-1,43
 323 24 323 24 209 11 c 1,44,45
 214 42 214 42 219.5 77.5 c 128,-1,46
 225 113 225 113 230 149 c 128,-1,47
 235 185 235 185 240 220.5 c 128,-1,48
 245 256 245 256 250 288 c 1,49,-1
 268 305 l 1,0,1
EndSplineSet
Validated: 1
EndChar

StartChar: two
Encoding: 50 50 21
Width: 1399
Flags: W
LayerCount: 2
Fore
SplineSet
884 561 m 1,0,1
 831 510 831 510 785.5 452.5 c 128,-1,2
 740 395 740 395 716 330 c 1,3,4
 825 329 825 329 938 325.5 c 128,-1,5
 1051 322 1051 322 1172 311 c 1,6,7
 1170 278 1170 278 1169.5 238.5 c 128,-1,8
 1169 199 1169 199 1168 158.5 c 128,-1,9
 1167 118 1167 118 1167 79 c 128,-1,10
 1167 40 1167 40 1167 7 c 1,11,12
 925 37 925 37 705 37 c 0,13,14
 476 37 476 37 221 7 c 1,15,16
 227 40 227 40 233 78.5 c 128,-1,17
 239 117 239 117 245.5 157 c 128,-1,18
 252 197 252 197 258 235.5 c 128,-1,19
 264 274 264 274 269 308 c 1,20,21
 349 377 349 377 435.5 444.5 c 128,-1,22
 522 512 522 512 607 575 c 1,23,24
 667 617 667 617 724 660.5 c 128,-1,25
 781 704 781 704 831 755 c 1,26,27
 869 797 869 797 906 838.5 c 128,-1,28
 943 880 943 880 969 925 c 0,29,30
 992 963 992 963 1005.5 1005.5 c 128,-1,31
 1019 1048 1019 1048 1019 1091 c 0,32,33
 1019 1144 1019 1144 998.5 1183.5 c 128,-1,34
 978 1223 978 1223 944 1248.5 c 128,-1,35
 910 1274 910 1274 865 1286.5 c 128,-1,36
 820 1299 820 1299 772 1299 c 0,37,38
 672 1299 672 1299 566 1268 c 128,-1,39
 460 1237 460 1237 354 1189 c 1,40,41
 355 1211 355 1211 356.5 1239.5 c 128,-1,42
 358 1268 358 1268 359 1298.5 c 128,-1,43
 360 1329 360 1329 360.5 1357.5 c 128,-1,44
 361 1386 361 1386 361 1408 c 1,45,46
 468 1434 468 1434 573.5 1457 c 128,-1,47
 679 1480 679 1480 781 1480 c 0,48,49
 827 1480 827 1480 874.5 1475 c 128,-1,50
 922 1470 922 1470 967.5 1458 c 128,-1,51
 1013 1446 1013 1446 1055 1426.5 c 128,-1,52
 1097 1407 1097 1407 1133 1378 c 1,53,54
 1183 1333 1183 1333 1207 1270.5 c 128,-1,55
 1231 1208 1231 1208 1231 1142 c 0,56,57
 1231 1081 1231 1081 1217 1025 c 128,-1,58
 1203 969 1203 969 1178 916.5 c 128,-1,59
 1153 864 1153 864 1118.5 815 c 128,-1,60
 1084 766 1084 766 1044 719 c 1,61,-1
 1013 687 l 1,62,63
 981 656 981 656 949 623.5 c 128,-1,64
 917 591 917 591 884 560 c 1,65,-1
 884 561 l 1,0,1
EndSplineSet
Validated: 1
EndChar

StartChar: three
Encoding: 51 51 22
Width: 1343
Flags: W
LayerCount: 2
Fore
SplineSet
1180 1170 m 0,0,1
 1180 1111 1180 1111 1162.5 1054 c 128,-1,2
 1145 997 1145 997 1113 948 c 128,-1,3
 1081 899 1081 899 1034.5 861.5 c 128,-1,4
 988 824 988 824 931 804 c 1,5,6
 979 794 979 794 1019.5 769.5 c 128,-1,7
 1060 745 1060 745 1088 704 c 0,8,9
 1118 659 1118 659 1132.5 607 c 128,-1,10
 1147 555 1147 555 1147 498 c 0,11,12
 1147 449 1147 449 1140 397 c 128,-1,13
 1133 345 1133 345 1115.5 295 c 128,-1,14
 1098 245 1098 245 1068.5 200.5 c 128,-1,15
 1039 156 1039 156 994 122 c 1,16,17
 940 83 940 83 880.5 60.5 c 128,-1,18
 821 38 821 38 760.5 26.5 c 128,-1,19
 700 15 700 15 640 11.5 c 128,-1,20
 580 8 580 8 524 8 c 0,21,22
 349 8 349 8 166 56 c 1,23,24
 172 92 172 92 178.5 134.5 c 128,-1,25
 185 177 185 177 191 220.5 c 128,-1,26
 197 264 197 264 203 306.5 c 128,-1,27
 209 349 209 349 213 385 c 1,28,29
 299 337 299 337 385.5 319.5 c 128,-1,30
 472 302 472 302 557 302 c 0,31,32
 594 302 594 302 632 304.5 c 128,-1,33
 670 307 670 307 707.5 315.5 c 128,-1,34
 745 324 745 324 780 339 c 128,-1,35
 815 354 815 354 845 378 c 0,36,37
 862 391 862 391 880 406 c 128,-1,38
 898 421 898 421 912.5 438 c 128,-1,39
 927 455 927 455 936.5 474 c 128,-1,40
 946 493 946 493 946 515 c 0,41,42
 946 559 946 559 926 595.5 c 128,-1,43
 906 632 906 632 877 658 c 0,44,45
 851 680 851 680 820.5 693.5 c 128,-1,46
 790 707 790 707 756.5 713.5 c 128,-1,47
 723 720 723 720 687.5 722 c 128,-1,48
 652 724 652 724 618 724 c 2,49,-1
 484 724 l 1,50,-1
 489 791 l 2,51,52
 491 814 491 814 493.5 846 c 128,-1,53
 496 878 496 878 498 901 c 1,54,55
 509 901 509 901 523.5 901 c 128,-1,56
 538 901 538 901 553 900.5 c 128,-1,57
 568 900 568 900 582 900 c 128,-1,58
 596 900 596 900 608 900 c 0,59,60
 631 899 631 899 654 899 c 128,-1,61
 677 899 677 899 700 899 c 0,62,63
 753 899 753 899 802 915 c 128,-1,64
 851 931 851 931 888.5 962 c 128,-1,65
 926 993 926 993 948.5 1038.5 c 128,-1,66
 971 1084 971 1084 971 1142 c 0,67,68
 971 1198 971 1198 943.5 1232.5 c 128,-1,69
 916 1267 916 1267 875.5 1286 c 128,-1,70
 835 1305 835 1305 788.5 1311.5 c 128,-1,71
 742 1318 742 1318 705 1318 c 0,72,73
 614 1318 614 1318 518.5 1303 c 128,-1,74
 423 1288 423 1288 324 1265 c 1,75,76
 325 1282 325 1282 325.5 1305 c 128,-1,77
 326 1328 326 1328 327 1352 c 128,-1,78
 328 1376 328 1376 328.5 1399 c 128,-1,79
 329 1422 329 1422 329 1439 c 1,80,81
 433 1456 433 1456 534 1468 c 128,-1,82
 635 1480 635 1480 732 1480 c 0,83,84
 782 1480 782 1480 835 1474.5 c 128,-1,85
 888 1469 888 1469 937.5 1455.5 c 128,-1,86
 987 1442 987 1442 1031 1419.5 c 128,-1,87
 1075 1397 1075 1397 1108.5 1362.5 c 128,-1,88
 1142 1328 1142 1328 1161 1280.5 c 128,-1,89
 1180 1233 1180 1233 1180 1170 c 0,0,1
EndSplineSet
Validated: 1
EndChar

StartChar: four
Encoding: 52 52 23
Width: 1198
Flags: W
LayerCount: 2
Fore
SplineSet
740 1366 m 1,0,-1
 695 1307 l 1,1,2
 697 1325 697 1325 699.5 1343 c 128,-1,3
 702 1361 702 1361 705 1381 c 1,4,-1
 740 1366 l 1,0,-1
621 610 m 1,5,6
 638 784 638 784 656 957.5 c 128,-1,7
 674 1131 674 1131 695 1307 c 1,8,9
 629 1218 629 1218 566.5 1132 c 128,-1,10
 504 1046 504 1046 442.5 960 c 128,-1,11
 381 874 381 874 319 786.5 c 128,-1,12
 257 699 257 699 193 607 c 1,13,14
 303 608 303 608 406.5 609 c 128,-1,15
 510 610 510 610 621 610 c 1,5,6
675 1456 m 1,16,17
 734 1457 734 1457 802.5 1460 c 128,-1,18
 871 1463 871 1463 931 1465 c 1,19,20
 900 1250 900 1250 879 1036.5 c 128,-1,21
 858 823 858 823 843 608 c 1,22,23
 868 608 868 608 894 607.5 c 128,-1,24
 920 607 920 607 945 606 c 0,25,26
 953 606 953 606 965 606 c 128,-1,27
 977 606 977 606 989 605.5 c 128,-1,28
 1001 605 1001 605 1011.5 605 c 128,-1,29
 1022 605 1022 605 1028 605 c 1,30,31
 1026 586 1026 586 1024 558 c 128,-1,32
 1022 530 1022 530 1021 511 c 1,33,34
 1019 493 1019 493 1018.5 465.5 c 128,-1,35
 1018 438 1018 438 1017 421 c 1,36,37
 970 423 970 423 924 425 c 128,-1,38
 878 427 878 427 831 428 c 1,39,40
 830 399 830 399 830 371 c 128,-1,41
 830 343 830 343 830 314 c 0,42,43
 830 246 830 246 831.5 169 c 128,-1,44
 833 92 833 92 835 24 c 1,45,46
 805 26 805 26 768 28 c 128,-1,47
 731 30 731 30 693 31.5 c 128,-1,48
 655 33 655 33 618 34.5 c 128,-1,49
 581 36 581 36 550 36 c 1,50,-1
 570 213 l 2,51,52
 576 272 576 272 581.5 322.5 c 128,-1,53
 587 373 587 373 595 432 c 1,54,-1
 516 432 l 2,55,56
 391 432 391 432 255 429 c 128,-1,57
 119 426 119 426 -8 421 c 1,58,59
 -6 435 -6 435 -3.5 453 c 128,-1,60
 -1 471 -1 471 1 489.5 c 128,-1,61
 3 508 3 508 5 526 c 128,-1,62
 7 544 7 544 9 558 c 1,63,64
 168 783 168 783 329.5 1005.5 c 128,-1,65
 491 1228 491 1228 659 1448 c 1,66,-1
 675 1456 l 1,16,17
EndSplineSet
Validated: 5
EndChar

StartChar: five
Encoding: 53 53 24
Width: 1298
Flags: W
LayerCount: 2
Fore
SplineSet
405 1474 m 1,0,1
 597 1453 597 1453 792 1453 c 0,2,3
 880 1453 880 1453 976 1458 c 128,-1,4
 1072 1463 1072 1463 1180 1473 c 1,5,-1
 1154 1306 l 1,6,7
 1060 1298 1060 1298 969.5 1294.5 c 128,-1,8
 879 1291 879 1291 789 1291 c 0,9,10
 725 1291 725 1291 671 1292 c 128,-1,11
 617 1293 617 1293 555 1296 c 1,12,13
 553 1252 553 1252 551 1210 c 128,-1,14
 549 1168 549 1168 546.5 1126 c 128,-1,15
 544 1084 544 1084 541.5 1041.5 c 128,-1,16
 539 999 539 999 535 954 c 1,17,18
 578 964 578 964 620 971.5 c 128,-1,19
 662 979 662 979 704 979 c 0,20,21
 754 979 754 979 803.5 972.5 c 128,-1,22
 853 966 853 966 899.5 950.5 c 128,-1,23
 946 935 946 935 987.5 910.5 c 128,-1,24
 1029 886 1029 886 1064 850 c 0,25,26
 1123 787 1123 787 1148 704.5 c 128,-1,27
 1173 622 1173 622 1173 535 c 0,28,29
 1173 483 1173 483 1165.5 426.5 c 128,-1,30
 1158 370 1158 370 1139 316 c 128,-1,31
 1120 262 1120 262 1088.5 212.5 c 128,-1,32
 1057 163 1057 163 1009 126 c 0,33,34
 962 89 962 89 908.5 66 c 128,-1,35
 855 43 855 43 798.5 30 c 128,-1,36
 742 17 742 17 684.5 12.5 c 128,-1,37
 627 8 627 8 572 8 c 0,38,39
 482 8 482 8 391 16.5 c 128,-1,40
 300 25 300 25 203 48 c 1,41,42
 209 83 209 83 216 125 c 128,-1,43
 223 167 223 167 229 210.5 c 128,-1,44
 235 254 235 254 241 296 c 128,-1,45
 247 338 247 338 252 373 c 1,46,47
 337 328 337 328 423 309.5 c 128,-1,48
 509 291 509 291 594 291 c 0,49,50
 628 291 628 291 664 294.5 c 128,-1,51
 700 298 700 298 734.5 307.5 c 128,-1,52
 769 317 769 317 801.5 333 c 128,-1,53
 834 349 834 349 862 373 c 0,54,55
 883 392 883 392 901 411.5 c 128,-1,56
 919 431 919 431 932 453 c 128,-1,57
 945 475 945 475 952.5 500.5 c 128,-1,58
 960 526 960 526 960 556 c 0,59,60
 960 608 960 608 941.5 658 c 128,-1,61
 923 708 923 708 885 740 c 1,62,63
 833 776 833 776 775 788 c 128,-1,64
 717 800 717 800 661 800 c 0,65,66
 588 800 588 800 508 781.5 c 128,-1,67
 428 763 428 763 344 726 c 1,68,69
 352 813 352 813 358.5 905.5 c 128,-1,70
 365 998 365 998 370 1091 c 128,-1,71
 375 1184 375 1184 378.5 1276 c 128,-1,72
 382 1368 382 1368 383 1455 c 1,73,-1
 405 1474 l 1,0,1
EndSplineSet
Validated: 1
EndChar

StartChar: six
Encoding: 54 54 25
Width: 1370
Flags: W
LayerCount: 2
Fore
SplineSet
668 810 m 256,0,1
 614 810 614 810 562 789 c 128,-1,2
 510 768 510 768 470 726 c 1,3,4
 447 700 447 700 429.5 668.5 c 128,-1,5
 412 637 412 637 400 603 c 128,-1,6
 388 569 388 569 381.5 534 c 128,-1,7
 375 499 375 499 375 467 c 0,8,9
 375 419 375 419 398.5 387 c 128,-1,10
 422 355 422 355 458.5 336 c 128,-1,11
 495 317 495 317 540 309.5 c 128,-1,12
 585 302 585 302 629 302 c 256,13,14
 673 302 673 302 719 314 c 128,-1,15
 765 326 765 326 803.5 350 c 128,-1,16
 842 374 842 374 868 410 c 128,-1,17
 894 446 894 446 899 494 c 1,18,-1
 899 515 l 2,19,20
 899 521 899 521 899.5 526.5 c 128,-1,21
 900 532 900 532 900 538 c 0,22,23
 900 589 900 589 889.5 638 c 128,-1,24
 879 687 879 687 848 728 c 1,25,26
 819 771 819 771 770.5 790.5 c 128,-1,27
 722 810 722 810 668 810 c 256,0,1
1102 1426 m 1,28,-1
 1120 1428 l 1,29,30
 1113 1387 1113 1387 1105.5 1334.5 c 128,-1,31
 1098 1282 1098 1282 1093 1241 c 1,32,33
 1022 1270 1022 1270 953 1285 c 128,-1,34
 884 1300 884 1300 820 1300 c 0,35,36
 779 1300 779 1300 737 1294 c 128,-1,37
 695 1288 695 1288 655.5 1274 c 128,-1,38
 616 1260 616 1260 580.5 1237 c 128,-1,39
 545 1214 545 1214 517 1179 c 0,40,41
 485 1140 485 1140 463 1098.5 c 128,-1,42
 441 1057 441 1057 425 1013.5 c 128,-1,43
 409 970 409 970 398 925.5 c 128,-1,44
 387 881 387 881 379 837 c 1,45,46
 443 903 443 903 526 941.5 c 128,-1,47
 609 980 609 980 700 980 c 0,48,49
 745 980 745 980 789 973 c 128,-1,50
 833 966 833 966 873.5 950 c 128,-1,51
 914 934 914 934 950 909.5 c 128,-1,52
 986 885 986 885 1013 850 c 1,53,-1
 1012 851 l 1,54,55
 1039 819 1039 819 1057.5 782.5 c 128,-1,56
 1076 746 1076 746 1087.5 706.5 c 128,-1,57
 1099 667 1099 667 1103.5 625.5 c 128,-1,58
 1108 584 1108 584 1108 542 c 0,59,60
 1108 490 1108 490 1101 434.5 c 128,-1,61
 1094 379 1094 379 1077 325 c 128,-1,62
 1060 271 1060 271 1031.5 221 c 128,-1,63
 1003 171 1003 171 960 130 c 0,64,65
 921 94 921 94 876 70.5 c 128,-1,66
 831 47 831 47 782 33.5 c 128,-1,67
 733 20 733 20 683.5 15 c 128,-1,68
 634 10 634 10 586 10 c 0,69,70
 532 10 532 10 479.5 20.5 c 128,-1,71
 427 31 427 31 380 53 c 128,-1,72
 333 75 333 75 294 109.5 c 128,-1,73
 255 144 255 144 230 192 c 0,74,75
 186 274 186 274 171 365 c 128,-1,76
 156 456 156 456 156 551 c 0,77,78
 156 632 156 632 163.5 728.5 c 128,-1,79
 171 825 171 825 193 923 c 128,-1,80
 215 1021 215 1021 253.5 1115 c 128,-1,81
 292 1209 292 1209 355 1286 c 1,82,83
 401 1338 401 1338 458.5 1375 c 128,-1,84
 516 1412 516 1412 579 1435.5 c 128,-1,85
 642 1459 642 1459 708 1470 c 128,-1,86
 774 1481 774 1481 838 1481 c 0,87,88
 908 1481 908 1481 976.5 1470 c 128,-1,89
 1045 1459 1045 1459 1112 1442 c 1,90,-1
 1102 1426 l 1,28,-1
EndSplineSet
Validated: 1
EndChar

StartChar: seven
Encoding: 55 55 26
Width: 1077
Flags: W
LayerCount: 2
Fore
SplineSet
49 1484 m 1,0,1
 266 1454 266 1454 485 1454 c 0,2,3
 717 1454 717 1454 974 1487 c 1,4,5
 974 1484 974 1484 973 1476.5 c 128,-1,6
 972 1469 972 1469 971 1461 c 128,-1,7
 970 1453 970 1453 969 1445.5 c 128,-1,8
 968 1438 968 1438 967 1435 c 2,9,-1
 959 1389 l 1,10,11
 854 1137 854 1137 765 878.5 c 128,-1,12
 676 620 676 620 591 362 c 0,13,14
 566 285 566 285 537 198.5 c 128,-1,15
 508 112 508 112 482 36 c 1,16,17
 457 37 457 37 425.5 37 c 128,-1,18
 394 37 394 37 369 37 c 0,19,20
 340 37 340 37 306 36.5 c 128,-1,21
 272 36 272 36 236.5 34.5 c 128,-1,22
 201 33 201 33 166.5 31.5 c 128,-1,23
 132 30 132 30 103 28 c 1,24,25
 149 112 149 112 195.5 202 c 128,-1,26
 242 292 242 292 288 383.5 c 128,-1,27
 334 475 334 475 378.5 566 c 128,-1,28
 423 657 423 657 465 743 c 0,29,30
 501 817 501 817 535 886 c 128,-1,31
 569 955 569 955 603 1023 c 128,-1,32
 637 1091 637 1091 672 1159.5 c 128,-1,33
 707 1228 707 1228 745 1301 c 1,34,35
 605 1292 605 1292 464 1292 c 0,36,37
 248 1292 248 1292 25 1319 c 1,38,39
 26 1351 26 1351 26 1392 c 128,-1,40
 26 1433 26 1433 26 1465 c 1,41,-1
 49 1484 l 1,0,1
EndSplineSet
Validated: 1
EndChar

StartChar: eight
Encoding: 56 56 27
Width: 1399
Flags: W
LayerCount: 2
Fore
SplineSet
686 719 m 0,0,1
 632 719 632 719 577 701 c 128,-1,2
 522 683 522 683 478 648 c 1,3,4
 456 628 456 628 439 603 c 128,-1,5
 422 578 422 578 410.5 550.5 c 128,-1,6
 399 523 399 523 393 494 c 128,-1,7
 387 465 387 465 387 437 c 0,8,9
 387 404 387 404 403.5 375.5 c 128,-1,10
 420 347 420 347 444 324 c 0,11,12
 482 289 482 289 535.5 276.5 c 128,-1,13
 589 264 589 264 644 264 c 0,14,15
 698 264 698 264 754.5 277 c 128,-1,16
 811 290 811 290 855 325 c 1,17,18
 891 355 891 355 914 394 c 128,-1,19
 937 433 937 433 938 481 c 0,20,21
 938 529 938 529 924 572.5 c 128,-1,22
 910 616 910 616 878 649 c 1,23,24
 842 688 842 688 792 704 c 128,-1,25
 742 720 742 720 686 719 c 0,0,1
269 671 m 1,26,27
 309 714 309 714 359 744 c 128,-1,28
 409 774 409 774 464 791 c 1,29,30
 421 807 421 807 387 836.5 c 128,-1,31
 353 866 353 866 330 904 c 128,-1,32
 307 942 307 942 294.5 986.5 c 128,-1,33
 282 1031 282 1031 282 1078 c 0,34,35
 282 1157 282 1157 313 1235.5 c 128,-1,36
 344 1314 344 1314 410 1369 c 1,37,38
 447 1396 447 1396 488.5 1414 c 128,-1,39
 530 1432 530 1432 574 1442.5 c 128,-1,40
 618 1453 618 1453 662.5 1457.5 c 128,-1,41
 707 1462 707 1462 749 1462 c 256,42,43
 791 1462 791 1462 834.5 1458 c 128,-1,44
 878 1454 878 1454 920 1443.5 c 128,-1,45
 962 1433 962 1433 1001 1415 c 128,-1,46
 1040 1397 1040 1397 1073 1370 c 1,47,48
 1115 1330 1115 1330 1136.5 1276 c 128,-1,49
 1158 1222 1158 1222 1158 1164 c 256,50,51
 1158 1106 1158 1106 1141 1047 c 128,-1,52
 1124 988 1124 988 1091.5 937 c 128,-1,53
 1059 886 1059 886 1012 848 c 128,-1,54
 965 810 965 810 904 794 c 1,55,56
 960 777 960 777 1007 746 c 128,-1,57
 1054 715 1054 715 1088 672 c 128,-1,58
 1122 629 1122 629 1141 575 c 128,-1,59
 1160 521 1160 521 1160 458 c 0,60,61
 1160 412 1160 412 1152.5 363 c 128,-1,62
 1145 314 1145 314 1128 267.5 c 128,-1,63
 1111 221 1111 221 1082.5 180 c 128,-1,64
 1054 139 1054 139 1011 109 c 0,65,66
 968 78 968 78 920.5 58.5 c 128,-1,67
 873 39 873 39 823.5 28 c 128,-1,68
 774 17 774 17 724 13 c 128,-1,69
 674 9 674 9 625 9 c 0,70,71
 575 9 575 9 525.5 13 c 128,-1,72
 476 17 476 17 428 28 c 128,-1,73
 380 39 380 39 335.5 58 c 128,-1,74
 291 77 291 77 253 108 c 0,75,76
 197 153 197 153 175.5 219 c 128,-1,77
 154 285 154 285 154 357 c 0,78,79
 154 397 154 397 160 439 c 128,-1,80
 166 481 166 481 180 522 c 128,-1,81
 194 563 194 563 216 601 c 128,-1,82
 238 639 238 639 270 671 c 1,83,-1
 269 671 l 1,26,27
475 1145 m 1,84,85
 472 1127 472 1127 472 1114 c 0,86,87
 472 1073 472 1073 489 1038 c 128,-1,88
 506 1003 506 1003 535 977.5 c 128,-1,89
 564 952 564 952 601.5 937.5 c 128,-1,90
 639 923 639 923 680 923 c 0,91,92
 685 923 685 923 690.5 923 c 128,-1,93
 696 923 696 923 702 924 c 1,94,95
 707 923 707 923 712.5 923 c 128,-1,96
 718 923 718 923 723 923 c 0,97,98
 773 923 773 923 818.5 942.5 c 128,-1,99
 864 962 864 962 898 996 c 128,-1,100
 932 1030 932 1030 952 1075.5 c 128,-1,101
 972 1121 972 1121 972 1172 c 0,102,103
 972 1221 972 1221 951 1254.5 c 128,-1,104
 930 1288 930 1288 896.5 1308.5 c 128,-1,105
 863 1329 863 1329 821 1338 c 128,-1,106
 779 1347 779 1347 736 1347 c 0,107,108
 691 1347 691 1347 645.5 1334.5 c 128,-1,109
 600 1322 600 1322 562.5 1297 c 128,-1,110
 525 1272 525 1272 501 1234.5 c 128,-1,111
 477 1197 477 1197 475 1147 c 1,112,-1
 475 1145 l 1,84,85
EndSplineSet
Validated: 33
EndChar

StartChar: nine
Encoding: 57 57 28
Width: 1378
Flags: W
LayerCount: 2
Fore
SplineSet
455 8 m 0,0,1
 314 8 314 8 177 49 c 1,2,-1
 192 59 l 1,3,-1
 168 61 l 1,4,5
 174 96 174 96 180 134.5 c 128,-1,6
 186 173 186 173 191 212.5 c 128,-1,7
 196 252 196 252 201 290.5 c 128,-1,8
 206 329 206 329 210 364 c 1,9,10
 352 302 352 302 484 302 c 0,11,12
 558 302 558 302 636.5 314 c 128,-1,13
 715 326 715 326 783 368 c 1,14,-1
 781 366 l 1,15,16
 813 392 813 392 834 425.5 c 128,-1,17
 855 459 855 459 868.5 496 c 128,-1,18
 882 533 882 533 890.5 573 c 128,-1,19
 899 613 899 613 906 652 c 1,20,21
 843 586 843 586 760.5 548 c 128,-1,22
 678 510 678 510 587 510 c 0,23,24
 542 510 542 510 498 517 c 128,-1,25
 454 524 454 524 413.5 539.5 c 128,-1,26
 373 555 373 555 337 580 c 128,-1,27
 301 605 301 605 274 640 c 1,28,-1
 274 639 l 1,29,30
 220 703 220 703 200.5 785 c 128,-1,31
 181 867 181 867 181 952 c 0,32,33
 181 1004 181 1004 187.5 1059 c 128,-1,34
 194 1114 194 1114 210.5 1167.5 c 128,-1,35
 227 1221 227 1221 255 1269.5 c 128,-1,36
 283 1318 283 1318 327 1358 c 0,37,38
 367 1395 367 1395 412 1418.5 c 128,-1,39
 457 1442 457 1442 505 1455.5 c 128,-1,40
 553 1469 553 1469 603 1474.5 c 128,-1,41
 653 1480 653 1480 702 1480 c 0,42,43
 753 1480 753 1480 804.5 1470 c 128,-1,44
 856 1460 856 1460 902 1439 c 128,-1,45
 948 1418 948 1418 987 1385 c 128,-1,46
 1026 1352 1026 1352 1052 1307 c 1,47,48
 1099 1216 1099 1216 1115 1120.5 c 128,-1,49
 1131 1025 1131 1025 1131 928 c 0,50,51
 1131 846 1131 846 1122.5 750.5 c 128,-1,52
 1114 655 1114 655 1091.5 558.5 c 128,-1,53
 1069 462 1069 462 1030.5 370 c 128,-1,54
 992 278 992 278 931 202 c 1,55,56
 885 149 885 149 829 112 c 128,-1,57
 773 75 773 75 711 52 c 128,-1,58
 649 29 649 29 584 18.5 c 128,-1,59
 519 8 519 8 455 8 c 0,0,1
616 811 m 0,60,61
 676 811 676 811 737 818 c 128,-1,62
 798 825 798 825 855 848 c 0,63,64
 889 861 889 861 909.5 889.5 c 128,-1,65
 930 918 930 918 941 952 c 128,-1,66
 952 986 952 986 955.5 1021.5 c 128,-1,67
 959 1057 959 1057 959 1084 c 0,68,69
 959 1134 959 1134 945.5 1179.5 c 128,-1,70
 932 1225 932 1225 898 1258 c 1,71,72
 852 1305 852 1305 787.5 1322 c 128,-1,73
 723 1339 723 1339 654 1339 c 0,74,75
 591 1339 591 1339 528 1319.5 c 128,-1,76
 465 1300 465 1300 415 1258 c 1,77,78
 388 1234 388 1234 368.5 1203.5 c 128,-1,79
 349 1173 349 1173 337 1139.5 c 128,-1,80
 325 1106 325 1106 319 1071 c 128,-1,81
 313 1036 313 1036 313 1002 c 0,82,83
 313 979 313 979 316 955 c 128,-1,84
 319 931 319 931 326.5 910 c 128,-1,85
 334 889 334 889 348 872 c 128,-1,86
 362 855 362 855 383 846 c 0,87,88
 437 824 437 824 496 818 c 128,-1,89
 555 812 555 812 616 811 c 0,60,61
EndSplineSet
Validated: 1
EndChar

StartChar: colon
Encoding: 58 58 29
Width: 807
Flags: W
LayerCount: 2
Fore
SplineSet
301 328 m 1,0,1
 330 332 330 332 359.5 334.5 c 128,-1,2
 389 337 389 337 420 337 c 0,3,4
 477 337 477 337 548 325 c 1,5,6
 545 290 545 290 542.5 248 c 128,-1,7
 540 206 540 206 537 163 c 128,-1,8
 534 120 534 120 531.5 78 c 128,-1,9
 529 36 529 36 527 1 c 1,10,11
 450 29 450 29 396 29 c 0,12,13
 366 29 366 29 329 22 c 128,-1,14
 292 15 292 15 250 2 c 1,15,16
 254 37 254 37 259 76.5 c 128,-1,17
 264 116 264 116 268.5 156.5 c 128,-1,18
 273 197 273 197 277 236.5 c 128,-1,19
 281 276 281 276 284 311 c 1,20,-1
 301 328 l 1,0,1
374 1100 m 1,21,22
 423 1080 423 1080 480 1080 c 0,23,24
 508 1080 508 1080 544.5 1088.5 c 128,-1,25
 581 1097 581 1097 625 1113 c 1,26,27
 621 1080 621 1080 616.5 1040.5 c 128,-1,28
 612 1001 612 1001 607.5 959.5 c 128,-1,29
 603 918 603 918 599 878.5 c 128,-1,30
 595 839 595 839 592 806 c 1,31,32
 555 799 555 799 522 795.5 c 128,-1,33
 489 792 489 792 458 792 c 0,34,35
 429 792 429 792 397 796.5 c 128,-1,36
 365 801 365 801 328 809 c 1,37,38
 332 854 332 854 335 904.5 c 128,-1,39
 338 955 338 955 341 998 c 2,40,-1
 347 1084 l 1,41,-1
 374 1100 l 1,21,22
EndSplineSet
Validated: 1
EndChar

StartChar: semicolon
Encoding: 59 59 30
Width: 555
Flags: W
LayerCount: 2
Fore
SplineSet
298 1073 m 1,0,1
 314 1071 314 1071 329.5 1070 c 128,-1,2
 345 1069 345 1069 360 1069 c 0,3,4
 398 1069 398 1069 441 1077.5 c 128,-1,5
 484 1086 484 1086 535 1105 c 1,6,-1
 533 1060 l 1,7,8
 525 997 525 997 517.5 927.5 c 128,-1,9
 510 858 510 858 504 795 c 1,10,11
 456 782 456 782 415.5 777.5 c 128,-1,12
 375 773 375 773 339 773 c 0,13,14
 322 773 322 773 303.5 773.5 c 128,-1,15
 285 774 285 774 254 777 c 1,16,17
 259 819 259 819 262.5 868 c 128,-1,18
 266 917 266 917 269 958 c 0,19,20
 271 981 271 981 272.5 1006.5 c 128,-1,21
 274 1032 274 1032 276 1056 c 1,22,-1
 298 1073 l 1,0,1
268 246 m 2,23,24
 278 246 278 246 287 246.5 c 128,-1,25
 296 247 296 247 306 247 c 0,26,27
 336 247 336 247 370 246 c 128,-1,28
 404 245 404 245 447 241 c 1,29,30
 445 215 445 215 442.5 181.5 c 128,-1,31
 440 148 440 148 438 123 c 2,32,-1
 432 46 l 1,33,-1
 346 -97 l 2,34,35
 318 -142 318 -142 287.5 -191 c 128,-1,36
 257 -240 257 -240 230 -285 c 1,37,38
 196 -287 196 -287 155 -296 c 128,-1,39
 114 -305 114 -305 66 -323 c 1,40,41
 76 -292 76 -292 88.5 -255.5 c 128,-1,42
 101 -219 101 -219 114 -180.5 c 128,-1,43
 127 -142 127 -142 139.5 -105.5 c 128,-1,44
 152 -69 152 -69 163 -38 c 2,45,-1
 197 59 l 1,46,47
 199 81 199 81 201 102 c 128,-1,48
 203 123 203 123 205 143 c 0,49,50
 207 164 207 164 209 194 c 128,-1,51
 211 224 211 224 213 246 c 1,52,-1
 268 246 l 2,23,24
EndSplineSet
Validated: 1
EndChar

StartChar: less
Encoding: 60 60 31
Width: 1569
Flags: W
LayerCount: 2
Fore
SplineSet
1257 967 m 1,0,1
 1129 928 1129 928 1008 894.5 c 128,-1,2
 887 861 887 861 767.5 829.5 c 128,-1,3
 648 798 648 798 526.5 767.5 c 128,-1,4
 405 737 405 737 276 705 c 1,5,-1
 602 546 l 1,6,7
 734 483 734 483 872.5 415 c 128,-1,8
 1011 347 1011 347 1141 280 c 1,9,10
 1136 222 1136 222 1133.5 159 c 128,-1,11
 1131 96 1131 96 1131 24 c 1,12,13
 1068 57 1068 57 999.5 91 c 128,-1,14
 931 125 931 125 861.5 159 c 128,-1,15
 792 193 792 193 723.5 226.5 c 128,-1,16
 655 260 655 260 591 291 c 0,17,18
 443 363 443 363 289 439 c 128,-1,19
 135 515 135 515 -10 590 c 1,20,21
 -6 615 -6 615 -1 645 c 128,-1,22
 4 675 4 675 8.5 705.5 c 128,-1,23
 13 736 13 736 17 765.5 c 128,-1,24
 21 795 21 795 23 821 c 1,25,-1
 210 867 l 2,26,27
 342 899 342 899 485 935.5 c 128,-1,28
 628 972 628 972 773 1011 c 128,-1,29
 918 1050 918 1050 1059.5 1090.5 c 128,-1,30
 1201 1131 1201 1131 1331 1173 c 1,31,32
 1325 1154 1325 1154 1316.5 1129 c 128,-1,33
 1308 1104 1308 1104 1299.5 1077.5 c 128,-1,34
 1291 1051 1291 1051 1283 1025.5 c 128,-1,35
 1275 1000 1275 1000 1270 981 c 1,36,-1
 1257 967 l 1,0,1
EndSplineSet
Validated: 1
EndChar

StartChar: equal
Encoding: 61 61 32
Width: 1831
Flags: W
LayerCount: 2
Fore
SplineSet
328 935 m 1,0,1
 476 929 476 929 623.5 926.5 c 128,-1,2
 771 924 771 924 920 924 c 0,3,4
 1080 924 1080 924 1253 927.5 c 128,-1,5
 1426 931 1426 931 1586 936 c 1,6,7
 1546 841 1546 841 1526 751 c 1,8,9
 1374 748 1374 748 1216.5 746.5 c 128,-1,10
 1059 745 1059 745 907 745 c 0,11,12
 765 745 765 745 616 746.5 c 128,-1,13
 467 748 467 748 326 751 c 1,14,15
 324 794 324 794 319.5 834 c 128,-1,16
 315 874 315 874 307 911 c 1,17,-1
 328 935 l 1,0,1
329 567 m 1,18,19
 488 569 488 569 646 570 c 128,-1,20
 804 571 804 571 964 571 c 0,21,22
 1095 571 1095 571 1235 570 c 128,-1,23
 1375 569 1375 569 1506 567 c 1,24,25
 1506 513 1506 513 1512.5 459.5 c 128,-1,26
 1519 406 1519 406 1533 352 c 1,27,28
 1382 357 1382 357 1219.5 360 c 128,-1,29
 1057 363 1057 363 905 363 c 0,30,31
 827 363 827 363 744 362 c 128,-1,32
 661 361 661 361 577.5 359.5 c 128,-1,33
 494 358 494 358 411 356 c 128,-1,34
 328 354 328 354 250 352 c 1,35,36
 273 408 273 408 287 457 c 128,-1,37
 301 506 301 506 309 551 c 1,38,-1
 329 567 l 1,18,19
EndSplineSet
Validated: 1
EndChar

StartChar: greater
Encoding: 62 62 33
Width: 1569
Flags: W
LayerCount: 2
Fore
SplineSet
392 1100 m 1,0,1
 393 1115 393 1115 393.5 1130 c 128,-1,2
 394 1145 394 1145 396 1160 c 0,3,4
 397 1172 397 1172 398 1189 c 128,-1,5
 399 1206 399 1206 400 1223.5 c 128,-1,6
 401 1241 401 1241 402 1257.5 c 128,-1,7
 403 1274 403 1274 403 1286 c 1,8,9
 477 1248 477 1248 555.5 1208.5 c 128,-1,10
 634 1169 634 1169 713.5 1129.5 c 128,-1,11
 793 1090 793 1090 872 1051 c 128,-1,12
 951 1012 951 1012 1026 976 c 0,13,14
 1153 914 1153 914 1285 849 c 128,-1,15
 1417 784 1417 784 1542 721 c 1,16,17
 1531 663 1531 663 1522 605 c 128,-1,18
 1513 547 1513 547 1507 488 c 1,19,-1
 1297 435 l 2,20,21
 1164 402 1164 402 1025.5 366.5 c 128,-1,22
 887 331 887 331 747.5 293.5 c 128,-1,23
 608 256 608 256 470.5 216.5 c 128,-1,24
 333 177 333 177 201 136 c 1,25,26
 216 178 216 178 227 213.5 c 128,-1,27
 238 249 238 249 247 280.5 c 128,-1,28
 256 312 256 312 263.5 340 c 128,-1,29
 271 368 271 368 278 396 c 1,30,31
 463 450 463 450 651 500 c 128,-1,32
 839 550 839 550 1025 598 c 2,33,-1
 1262 658 l 1,34,35
 1180 700 1180 700 1098 739.5 c 128,-1,36
 1016 779 1016 779 933 819 c 0,37,38
 799 884 799 884 666.5 948.5 c 128,-1,39
 534 1013 534 1013 403 1082 c 1,40,-1
 392 1100 l 1,0,1
EndSplineSet
Validated: 1
EndChar

StartChar: question
Encoding: 63 63 34
Width: 961
Flags: W
LayerCount: 2
Fore
SplineSet
212 310 m 1,0,1
 259 312 259 312 307 313.5 c 128,-1,2
 355 315 355 315 403 315 c 2,3,-1
 462 315 l 1,4,-1
 451 168 l 2,5,6
 448 137 448 137 445.5 97.5 c 128,-1,7
 443 58 443 58 441 27 c 1,8,-1
 383 27 l 2,9,10
 333 27 333 27 272 24.5 c 128,-1,11
 211 22 211 22 160 19 c 1,12,13
 164 50 164 50 168.5 85 c 128,-1,14
 173 120 173 120 177.5 155.5 c 128,-1,15
 182 191 182 191 186 225.5 c 128,-1,16
 190 260 190 260 193 292 c 1,17,-1
 212 310 l 1,0,1
457 413 m 1,18,19
 401 413 401 413 334.5 411.5 c 128,-1,20
 268 410 268 410 211 408 c 1,21,-1
 219 491 l 2,22,23
 224 551 224 551 232.5 610.5 c 128,-1,24
 241 670 241 670 267 729 c 1,25,26
 290 775 290 775 323 811 c 128,-1,27
 356 847 356 847 391 879 c 1,28,29
 404 889 404 889 415.5 899 c 128,-1,30
 427 909 427 909 440 919 c 2,31,-1
 489 961 l 1,32,-1
 504 973 l 2,33,34
 527 991 527 991 552.5 1012 c 128,-1,35
 578 1033 578 1033 600 1056 c 128,-1,36
 622 1079 622 1079 636 1103.5 c 128,-1,37
 650 1128 650 1128 650 1153 c 0,38,39
 650 1195 650 1195 634.5 1228 c 128,-1,40
 619 1261 619 1261 592 1284.5 c 128,-1,41
 565 1308 565 1308 529.5 1320 c 128,-1,42
 494 1332 494 1332 455 1332 c 0,43,44
 414 1332 414 1332 370.5 1323 c 128,-1,45
 327 1314 327 1314 282 1298.5 c 128,-1,46
 237 1283 237 1283 191.5 1262 c 128,-1,47
 146 1241 146 1241 102 1218 c 1,48,49
 103 1228 103 1228 104 1244.5 c 128,-1,50
 105 1261 105 1261 105.5 1278.5 c 128,-1,51
 106 1296 106 1296 107 1312.5 c 128,-1,52
 108 1329 108 1329 108 1340 c 256,53,54
 108 1351 108 1351 109 1368 c 128,-1,55
 110 1385 110 1385 110 1395 c 1,56,57
 207 1437 207 1437 305 1458 c 128,-1,58
 403 1479 403 1479 499 1479 c 0,59,60
 536 1479 536 1479 573.5 1476 c 128,-1,61
 611 1473 611 1473 647 1464 c 128,-1,62
 683 1455 683 1455 716 1439.5 c 128,-1,63
 749 1424 749 1424 777 1399 c 0,64,65
 818 1363 818 1363 836 1312.5 c 128,-1,66
 854 1262 854 1262 854 1207 c 0,67,68
 854 1151 854 1151 837.5 1103 c 128,-1,69
 821 1055 821 1055 794 1012 c 128,-1,70
 767 969 767 969 732 930 c 128,-1,71
 697 891 697 891 661 853 c 2,72,-1
 582 772 l 1,73,-1
 572 757 l 2,74,75
 564 746 564 746 556.5 734.5 c 128,-1,76
 549 723 549 723 541 713 c 2,77,-1
 531 699 l 2,78,79
 523 689 523 689 517 679 c 128,-1,80
 511 669 511 669 506 657 c 0,81,82
 492 618 492 618 487.5 575 c 128,-1,83
 483 532 483 532 481 490 c 0,84,85
 480 475 480 475 479.5 460 c 128,-1,86
 479 445 479 445 477 430 c 1,87,-1
 457 413 l 1,18,19
EndSplineSet
Validated: 1
EndChar

StartChar: at
Encoding: 64 64 35
Width: 2081
Flags: W
LayerCount: 2
Fore
SplineSet
729 616 m 0,0,1
 728 608 728 608 727.5 599 c 128,-1,2
 727 590 727 590 727 582 c 0,3,4
 727 531 727 531 743 492 c 128,-1,5
 759 453 759 453 787.5 426 c 128,-1,6
 816 399 816 399 855.5 385.5 c 128,-1,7
 895 372 895 372 943 372 c 0,8,9
 988 372 988 372 1034 386.5 c 128,-1,10
 1080 401 1080 401 1114 436 c 0,11,12
 1159 481 1159 481 1176.5 538.5 c 128,-1,13
 1194 596 1194 596 1194 655 c 0,14,15
 1194 704 1194 704 1178 743 c 128,-1,16
 1162 782 1162 782 1133 808 c 128,-1,17
 1104 834 1104 834 1064.5 848 c 128,-1,18
 1025 862 1025 862 979 862 c 0,19,20
 932 862 932 862 887 846 c 128,-1,21
 842 830 842 830 807 797 c 0,22,23
 769 761 769 761 751.5 713.5 c 128,-1,24
 734 666 734 666 729 616 c 0,0,1
1201 208 m 1,25,-1
 1203 233 l 1,26,27
 1145 178 1145 178 1072.5 145 c 128,-1,28
 1000 112 1000 112 922 112 c 256,29,30
 844 112 844 112 772.5 141 c 128,-1,31
 701 170 701 170 655 231 c 0,32,33
 615 284 615 284 597 350 c 128,-1,34
 579 416 579 416 579 484 c 0,35,36
 579 531 579 531 586 580.5 c 128,-1,37
 593 630 593 630 608 677.5 c 128,-1,38
 623 725 623 725 647.5 769.5 c 128,-1,39
 672 814 672 814 708 851 c 1,40,41
 765 914 765 914 839 942.5 c 128,-1,42
 913 971 913 971 993 971 c 256,43,44
 1073 971 1073 971 1141 936.5 c 128,-1,45
 1209 902 1209 902 1258 845 c 1,46,-1
 1258 853 l 1,47,48
 1260 874 1260 874 1262.5 903.5 c 128,-1,49
 1265 933 1265 933 1267 954 c 1,50,51
 1281 954 1281 954 1301.5 954.5 c 128,-1,52
 1322 955 1322 955 1344 955.5 c 128,-1,53
 1366 956 1366 956 1386.5 956.5 c 128,-1,54
 1407 957 1407 957 1421 957 c 1,55,56
 1401 782 1401 782 1384 611 c 128,-1,57
 1367 440 1367 440 1356 265 c 1,58,59
 1414 276 1414 276 1465.5 305.5 c 128,-1,60
 1517 335 1517 335 1555 383 c 1,61,62
 1583 420 1583 420 1602.5 462 c 128,-1,63
 1622 504 1622 504 1634 548 c 128,-1,64
 1646 592 1646 592 1651 636.5 c 128,-1,65
 1656 681 1656 681 1656 723 c 0,66,67
 1656 798 1656 798 1637.5 869.5 c 128,-1,68
 1619 941 1619 941 1580 1003 c 1,69,-1
 1581 1003 l 1,70,71
 1539 1062 1539 1062 1482.5 1107 c 128,-1,72
 1426 1152 1426 1152 1360 1182 c 128,-1,73
 1294 1212 1294 1212 1221 1227 c 128,-1,74
 1148 1242 1148 1242 1073 1242 c 0,75,76
 962 1242 962 1242 853 1214 c 128,-1,77
 744 1186 744 1186 646 1126 c 0,78,79
 558 1073 558 1073 493.5 998.5 c 128,-1,80
 429 924 429 924 386.5 836 c 128,-1,81
 344 748 344 748 323.5 652 c 128,-1,82
 303 556 303 556 303 461 c 0,83,84
 303 419 303 419 309 379 c 128,-1,85
 315 339 315 339 331 303 c 1,86,-1
 331 304 l 1,87,88
 359 244 359 244 397.5 190.5 c 128,-1,89
 436 137 436 137 478 86 c 1,90,-1
 477 87 l 1,91,92
 519 38 519 38 572 7 c 128,-1,93
 625 -24 625 -24 684.5 -42 c 128,-1,94
 744 -60 744 -60 808 -67 c 128,-1,95
 872 -74 872 -74 937 -75 c 1,96,97
 1053 -74 1053 -74 1174 -39.5 c 128,-1,98
 1295 -5 1295 -5 1406 74 c 1,99,100
 1414 54 1414 54 1425 28.5 c 128,-1,101
 1436 3 1436 3 1447.5 -23.5 c 128,-1,102
 1459 -50 1459 -50 1471 -75 c 128,-1,103
 1483 -100 1483 -100 1492 -119 c 1,104,105
 1359 -213 1359 -213 1211.5 -259 c 128,-1,106
 1064 -305 1064 -305 918 -305 c 0,107,108
 835 -305 835 -305 752.5 -291.5 c 128,-1,109
 670 -278 670 -278 593.5 -249 c 128,-1,110
 517 -220 517 -220 449.5 -176 c 128,-1,111
 382 -132 382 -132 329 -70 c 1,112,-1
 329 -71 l 1,113,114
 281 -20 281 -20 248 40.5 c 128,-1,115
 215 101 215 101 194 167 c 128,-1,116
 173 233 173 233 163.5 303.5 c 128,-1,117
 154 374 154 374 154 445 c 0,118,119
 154 539 154 539 170 635.5 c 128,-1,120
 186 732 186 732 220 825 c 128,-1,121
 254 918 254 918 307 1003.5 c 128,-1,122
 360 1089 360 1089 434 1160 c 1,123,124
 504 1220 504 1220 584 1264.5 c 128,-1,125
 664 1309 664 1309 748.5 1339 c 128,-1,126
 833 1369 833 1369 921.5 1383.5 c 128,-1,127
 1010 1398 1010 1398 1098 1398 c 0,128,129
 1191 1398 1191 1398 1280 1380 c 128,-1,130
 1369 1362 1369 1362 1447.5 1325.5 c 128,-1,131
 1526 1289 1526 1289 1592.5 1234 c 128,-1,132
 1659 1179 1659 1179 1706.5 1106 c 128,-1,133
 1754 1033 1754 1033 1781 941.5 c 128,-1,134
 1808 850 1808 850 1808 740 c 0,135,136
 1808 679 1808 679 1797.5 613 c 128,-1,137
 1787 547 1787 547 1764.5 482.5 c 128,-1,138
 1742 418 1742 418 1708 358.5 c 128,-1,139
 1674 299 1674 299 1626 251 c 1,140,141
 1584 214 1584 214 1532.5 187 c 128,-1,142
 1481 160 1481 160 1424.5 142.5 c 128,-1,143
 1368 125 1368 125 1309 116 c 128,-1,144
 1250 107 1250 107 1193 107 c 1,145,-1
 1201 208 l 1,25,-1
EndSplineSet
Validated: 1
EndChar

StartChar: A
Encoding: 65 65 36
Width: 1507
Flags: W
LayerCount: 2
Fore
SplineSet
858 1291 m 1,0,-1
 835 1239 l 1,1,2
 833 1253 833 1253 829 1266.5 c 128,-1,3
 825 1280 825 1280 822 1294 c 1,4,-1
 858 1291 l 1,0,-1
911 917 m 0,5,6
 892 998 892 998 873.5 1078 c 128,-1,7
 855 1158 855 1158 835 1239 c 1,8,-1
 715 942 l 1,9,10
 669 831 669 831 625 725 c 128,-1,11
 581 619 581 619 534 507 c 1,12,13
 594 508 594 508 651.5 508 c 128,-1,14
 709 508 709 508 769 508 c 0,15,16
 802 508 802 508 835.5 507.5 c 128,-1,17
 869 507 869 507 902 507 c 2,18,-1
 1009 507 l 1,19,20
 983 610 983 610 959.5 712 c 128,-1,21
 936 814 936 814 911 917 c 0,5,6
954 1455 m 1,22,23
 982 1362 982 1362 1010 1262.5 c 128,-1,24
 1038 1163 1038 1163 1064 1069 c 0,25,26
 1101 938 1101 938 1138.5 807 c 128,-1,27
 1176 676 1176 676 1218 543.5 c 128,-1,28
 1260 411 1260 411 1308 277 c 128,-1,29
 1356 143 1356 143 1413 7 c 1,30,31
 1381 10 1381 10 1341.5 13 c 128,-1,32
 1302 16 1302 16 1261.5 19 c 128,-1,33
 1221 22 1221 22 1181.5 24.5 c 128,-1,34
 1142 27 1142 27 1109 29 c 1,35,36
 1095 87 1095 87 1082 145 c 128,-1,37
 1069 203 1069 203 1058 262 c 1,38,39
 981 264 981 264 905 264.5 c 128,-1,40
 829 265 829 265 752 265 c 0,41,42
 671 265 671 265 597.5 264.5 c 128,-1,43
 524 264 524 264 443 262 c 1,44,45
 420 205 420 205 390.5 144 c 128,-1,46
 361 83 361 83 335 28 c 1,47,48
 305 26 305 26 267 23.5 c 128,-1,49
 229 21 229 21 189.5 18 c 128,-1,50
 150 15 150 15 112 12.5 c 128,-1,51
 74 10 74 10 43 7 c 1,52,53
 191 260 191 260 313 512.5 c 128,-1,54
 435 765 435 765 547 1008 c 0,55,56
 597 1116 597 1116 651 1232.5 c 128,-1,57
 705 1349 705 1349 757 1455 c 1,58,-1
 954 1455 l 1,22,23
EndSplineSet
Validated: 5
EndChar

StartChar: B
Encoding: 66 66 37
Width: 1497
Flags: W
LayerCount: 2
Fore
SplineSet
554 704 m 1,0,-1
 550 662 l 2,1,2
 542 577 542 577 534 496 c 128,-1,3
 526 415 526 415 515 329 c 1,4,5
 587 331 587 331 660.5 333 c 128,-1,6
 734 335 734 335 806 335 c 0,7,8
 862 335 862 335 920 342 c 128,-1,9
 978 349 978 349 1030 375 c 1,10,-1
 1029 374 l 1,11,12
 1050 386 1050 386 1065.5 405.5 c 128,-1,13
 1081 425 1081 425 1090.5 448 c 128,-1,14
 1100 471 1100 471 1104.5 495.5 c 128,-1,15
 1109 520 1109 520 1109 543 c 0,16,17
 1109 574 1109 574 1089.5 599.5 c 128,-1,18
 1070 625 1070 625 1050 646 c 1,19,-1
 1050 645 l 1,20,21
 1030 663 1030 663 1005.5 674.5 c 128,-1,22
 981 686 981 686 954 692.5 c 128,-1,23
 927 699 927 699 898.5 701.5 c 128,-1,24
 870 704 870 704 842 704 c 2,25,-1
 554 704 l 1,0,-1
595 1334 m 1,26,27
 595 1329 595 1329 594.5 1324 c 128,-1,28
 594 1319 594 1319 594 1314 c 1,29,-1
 574 1316 l 1,30,-1
 595 1334 l 1,26,27
870 1307 m 0,31,32
 801 1307 801 1307 732 1308.5 c 128,-1,33
 663 1310 663 1310 594 1314 c 1,34,35
 590 1202 590 1202 584 1097 c 128,-1,36
 578 992 578 992 570 878 c 1,37,38
 635 876 635 876 700.5 876.5 c 128,-1,39
 766 877 766 877 831 877 c 0,40,41
 880 877 880 877 931 886 c 128,-1,42
 982 895 982 895 1024 923 c 1,43,44
 1047 941 1047 941 1064 965.5 c 128,-1,45
 1081 990 1081 990 1092 1016 c 128,-1,46
 1103 1042 1103 1042 1108.5 1067.5 c 128,-1,47
 1114 1093 1114 1093 1114 1115 c 0,48,49
 1114 1170 1114 1170 1093 1206.5 c 128,-1,50
 1072 1243 1072 1243 1037.5 1265.5 c 128,-1,51
 1003 1288 1003 1288 959 1297.5 c 128,-1,52
 915 1307 915 1307 870 1307 c 0,31,32
407 1484 m 1,53,54
 516 1469 516 1469 626 1463 c 128,-1,55
 736 1457 736 1457 846 1455 c 0,56,57
 914 1454 914 1454 979 1446 c 128,-1,58
 1044 1438 1044 1438 1105 1415 c 0,59,60
 1149 1398 1149 1398 1182 1371 c 128,-1,61
 1215 1344 1215 1344 1236.5 1310.5 c 128,-1,62
 1258 1277 1258 1277 1269 1238 c 128,-1,63
 1280 1199 1280 1199 1280 1159 c 0,64,65
 1280 1106 1280 1106 1266.5 1050.5 c 128,-1,66
 1253 995 1253 995 1226 946 c 128,-1,67
 1199 897 1199 897 1157.5 858.5 c 128,-1,68
 1116 820 1116 820 1061 802 c 1,69,70
 1119 788 1119 788 1169.5 758 c 128,-1,71
 1220 728 1220 728 1257.5 685 c 128,-1,72
 1295 642 1295 642 1317 587.5 c 128,-1,73
 1339 533 1339 533 1339 472 c 0,74,75
 1339 425 1339 425 1332 376.5 c 128,-1,76
 1325 328 1325 328 1307.5 283 c 128,-1,77
 1290 238 1290 238 1260.5 198.5 c 128,-1,78
 1231 159 1231 159 1186 130 c 0,79,80
 1141 100 1141 100 1092.5 82 c 128,-1,81
 1044 64 1044 64 994.5 54 c 128,-1,82
 945 44 945 44 894 40.5 c 128,-1,83
 843 37 843 37 794 37 c 0,84,85
 666 37 666 37 532 30 c 128,-1,86
 398 23 398 23 254 7 c 1,87,88
 321 378 321 378 353 743.5 c 128,-1,89
 385 1109 385 1109 385 1465 c 1,90,-1
 407 1484 l 1,53,54
EndSplineSet
Validated: 37
EndChar

StartChar: C
Encoding: 67 67 38
Width: 1587
Flags: W
LayerCount: 2
Fore
SplineSet
1325 1358 m 1,0,-1
 1349 1356 l 1,1,2
 1344 1333 1344 1333 1339.5 1304 c 128,-1,3
 1335 1275 1335 1275 1330 1245 c 128,-1,4
 1325 1215 1325 1215 1320.5 1185.5 c 128,-1,5
 1316 1156 1316 1156 1313 1133 c 1,6,7
 1229 1218 1229 1218 1125.5 1261 c 128,-1,8
 1022 1304 1022 1304 917 1304 c 0,9,10
 867 1304 867 1304 814.5 1298 c 128,-1,11
 762 1292 762 1292 711.5 1277 c 128,-1,12
 661 1262 661 1262 614 1236.5 c 128,-1,13
 567 1211 567 1211 528 1171 c 1,14,-1
 529 1171 l 1,15,16
 479 1118 479 1118 447 1056.5 c 128,-1,17
 415 995 415 995 396.5 929.5 c 128,-1,18
 378 864 378 864 370.5 798 c 128,-1,19
 363 732 363 732 363 672 c 0,20,21
 363 634 363 634 367 597 c 128,-1,22
 371 560 371 560 381.5 526 c 128,-1,23
 392 492 392 492 409.5 462 c 128,-1,24
 427 432 427 432 454 408 c 1,25,-1
 453 409 l 1,26,27
 490 379 490 379 534 361 c 128,-1,28
 578 343 578 343 625.5 333 c 128,-1,29
 673 323 673 323 722.5 319.5 c 128,-1,30
 772 316 772 316 819 316 c 0,31,32
 871 316 871 316 926.5 327.5 c 128,-1,33
 982 339 982 339 1037 362 c 128,-1,34
 1092 385 1092 385 1146 419 c 128,-1,35
 1200 453 1200 453 1250 498 c 1,36,37
 1248 462 1248 462 1246.5 419.5 c 128,-1,38
 1245 377 1245 377 1243.5 333 c 128,-1,39
 1242 289 1242 289 1241 246.5 c 128,-1,40
 1240 204 1240 204 1240 169 c 2,41,-1
 1240 127 l 1,42,43
 1134 61 1134 61 1020 35 c 128,-1,44
 906 9 906 9 794 9 c 0,45,46
 722 9 722 9 649.5 18.5 c 128,-1,47
 577 28 577 28 509 50 c 128,-1,48
 441 72 441 72 380.5 108.5 c 128,-1,49
 320 145 320 145 272 199 c 1,50,51
 236 244 236 244 212 295 c 128,-1,52
 188 346 188 346 173.5 401 c 128,-1,53
 159 456 159 456 153 514 c 128,-1,54
 147 572 147 572 147 631 c 0,55,56
 147 708 147 708 157.5 796 c 128,-1,57
 168 884 168 884 193.5 971.5 c 128,-1,58
 219 1059 219 1059 261 1141.5 c 128,-1,59
 303 1224 303 1224 365 1289 c 1,60,61
 422 1344 422 1344 490 1381 c 128,-1,62
 558 1418 558 1418 631 1440.5 c 128,-1,63
 704 1463 704 1463 779 1472 c 128,-1,64
 854 1481 854 1481 926 1481 c 0,65,66
 1037 1481 1037 1481 1145.5 1456 c 128,-1,67
 1254 1431 1254 1431 1343 1368 c 1,68,-1
 1325 1358 l 1,0,-1
EndSplineSet
Validated: 1
EndChar

StartChar: D
Encoding: 68 68 39
Width: 1698
Flags: W
LayerCount: 2
Fore
SplineSet
605 1306 m 1,0,1
 605 1301 605 1301 604.5 1296 c 128,-1,2
 604 1291 604 1291 604 1286 c 1,3,4
 599 1286 599 1286 594 1286 c 128,-1,5
 589 1286 589 1286 584 1287 c 1,6,-1
 605 1306 l 1,0,1
826 1280 m 1,7,8
 715 1280 715 1280 604 1286 c 1,9,10
 596 1062 596 1062 580 844 c 128,-1,11
 564 626 564 626 537 404 c 1,12,13
 591 406 591 406 644.5 407 c 128,-1,14
 698 408 698 408 752 409 c 0,15,16
 760 409 760 409 767 409.5 c 128,-1,17
 774 410 774 410 782 410 c 0,18,19
 829 411 829 411 876.5 414 c 128,-1,20
 924 417 924 417 970.5 424 c 128,-1,21
 1017 431 1017 431 1062 445 c 128,-1,22
 1107 459 1107 459 1149 483 c 1,23,-1
 1148 483 l 1,24,25
 1184 507 1184 507 1211 540 c 128,-1,26
 1238 573 1238 573 1258 610.5 c 128,-1,27
 1278 648 1278 648 1293.5 688.5 c 128,-1,28
 1309 729 1309 729 1322 768 c 1,29,30
 1324 791 1324 791 1324.5 815 c 128,-1,31
 1325 839 1325 839 1325 862 c 0,32,33
 1325 938 1325 938 1306.5 1013.5 c 128,-1,34
 1288 1089 1288 1089 1242 1146 c 1,35,36
 1202 1185 1202 1185 1152 1210 c 128,-1,37
 1102 1235 1102 1235 1047.5 1250 c 128,-1,38
 993 1265 993 1265 936.5 1271.5 c 128,-1,39
 880 1278 880 1278 826 1280 c 1,7,8
406 1484 m 1,40,41
 505 1472 505 1472 601.5 1466 c 128,-1,42
 698 1460 698 1460 796 1458 c 1,43,44
 874 1454 874 1454 955.5 1447.5 c 128,-1,45
 1037 1441 1037 1441 1115.5 1424 c 128,-1,46
 1194 1407 1194 1407 1266 1375.5 c 128,-1,47
 1338 1344 1338 1344 1398 1290 c 1,48,49
 1438 1250 1438 1250 1463.5 1203 c 128,-1,50
 1489 1156 1489 1156 1504 1104 c 128,-1,51
 1519 1052 1519 1052 1525 997 c 128,-1,52
 1531 942 1531 942 1531 887 c 0,53,54
 1531 810 1531 810 1523 717 c 128,-1,55
 1515 624 1515 624 1491 530.5 c 128,-1,56
 1467 437 1467 437 1421.5 350 c 128,-1,57
 1376 263 1376 263 1301 200 c 1,58,59
 1232 146 1232 146 1155.5 115 c 128,-1,60
 1079 84 1079 84 998.5 67 c 128,-1,61
 918 50 918 50 836.5 43.5 c 128,-1,62
 755 37 755 37 676 34 c 0,63,64
 626 32 626 32 573 29.5 c 128,-1,65
 520 27 520 27 465.5 23.5 c 128,-1,66
 411 20 411 20 357.5 16 c 128,-1,67
 304 12 304 12 254 7 c 1,68,69
 320 347 320 347 353 679.5 c 128,-1,70
 386 1012 386 1012 386 1339 c 0,71,72
 386 1371 386 1371 386 1402 c 128,-1,73
 386 1433 386 1433 385 1465 c 1,74,-1
 406 1484 l 1,40,41
EndSplineSet
Validated: 5
EndChar

StartChar: E
Encoding: 69 69 40
Width: 1407
Flags: W
LayerCount: 2
Fore
SplineSet
406 1484 m 1,0,1
 625 1454 625 1454 848 1454 c 0,2,3
 961 1454 961 1454 1080.5 1462 c 128,-1,4
 1200 1470 1200 1470 1326 1485 c 1,5,-1
 1312 1402 l 2,6,7
 1308 1379 1308 1379 1303.5 1349.5 c 128,-1,8
 1299 1320 1299 1320 1296 1297 c 1,9,10
 1180 1285 1180 1285 1070 1279.5 c 128,-1,11
 960 1274 960 1274 855 1274 c 0,12,13
 784 1274 784 1274 722.5 1275.5 c 128,-1,14
 661 1277 661 1277 591 1281 c 1,15,16
 586 1178 586 1178 579 1082.5 c 128,-1,17
 572 987 572 987 565 883 c 1,18,19
 622 882 622 882 675.5 881.5 c 128,-1,20
 729 881 729 881 787 881 c 0,21,22
 890 881 890 881 1002.5 883 c 128,-1,23
 1115 885 1115 885 1218 887 c 1,24,25
 1213 858 1213 858 1208.5 820 c 128,-1,26
 1204 782 1204 782 1202 753 c 0,27,28
 1202 745 1202 745 1201 728 c 128,-1,29
 1200 711 1200 711 1200 703 c 1,30,31
 1119 703 1119 703 1028 702.5 c 128,-1,32
 937 702 937 702 856 702 c 2,33,-1
 549 702 l 1,34,35
 545 655 545 655 541 610.5 c 128,-1,36
 537 566 537 566 532.5 522.5 c 128,-1,37
 528 479 528 479 523 435 c 128,-1,38
 518 391 518 391 513 344 c 1,39,40
 577 346 577 346 639.5 347.5 c 128,-1,41
 702 349 702 349 765 349 c 0,42,43
 873 349 873 349 986 344.5 c 128,-1,44
 1099 340 1099 340 1220 330 c 1,45,46
 1218 295 1218 295 1217 253 c 128,-1,47
 1216 211 1216 211 1215 168.5 c 128,-1,48
 1214 126 1214 126 1214 84 c 128,-1,49
 1214 42 1214 42 1214 7 c 1,50,51
 966 37 966 37 742 37 c 0,52,53
 627 37 627 37 505 29 c 128,-1,54
 383 21 383 21 254 7 c 1,55,56
 317 379 317 379 348.5 742 c 128,-1,57
 380 1105 380 1105 383 1465 c 1,58,-1
 406 1484 l 1,0,1
EndSplineSet
Validated: 1
EndChar

StartChar: F
Encoding: 70 70 41
Width: 1108
Flags: W
LayerCount: 2
Fore
SplineSet
418 1478 m 1,0,1
 593 1454 593 1454 772 1454 c 0,2,3
 875 1454 875 1454 985.5 1462.5 c 128,-1,4
 1096 1471 1096 1471 1216 1488 c 1,5,6
 1213 1468 1213 1468 1209 1442 c 128,-1,7
 1205 1416 1205 1416 1201 1388.5 c 128,-1,8
 1197 1361 1197 1361 1193 1335 c 128,-1,9
 1189 1309 1189 1309 1186 1289 c 1,10,11
 1075 1276 1075 1276 968.5 1270 c 128,-1,12
 862 1264 862 1264 758 1264 c 0,13,14
 714 1264 714 1264 678 1264.5 c 128,-1,15
 642 1265 642 1265 599 1267 c 1,16,17
 593 1217 593 1217 588 1170 c 128,-1,18
 583 1123 583 1123 577.5 1076.5 c 128,-1,19
 572 1030 572 1030 566 982.5 c 128,-1,20
 560 935 560 935 554 884 c 1,21,22
 568 884 568 884 587 883.5 c 128,-1,23
 606 883 606 883 620 883 c 2,24,-1
 709 883 l 2,25,26
 799 883 799 883 898.5 884.5 c 128,-1,27
 998 886 998 886 1088 888 c 1,28,29
 1086 873 1086 873 1084 854.5 c 128,-1,30
 1082 836 1082 836 1080 816.5 c 128,-1,31
 1078 797 1078 797 1076 778.5 c 128,-1,32
 1074 760 1074 760 1073 745 c 2,33,-1
 1065 666 l 1,34,35
 1022 667 1022 667 970 667 c 128,-1,36
 918 667 918 667 874 667 c 256,37,38
 830 667 830 667 787 666.5 c 128,-1,39
 744 666 744 666 700 666 c 2,40,-1
 544 666 l 1,41,42
 534 511 534 511 522 349.5 c 128,-1,43
 510 188 510 188 495 33 c 1,44,45
 432 28 432 28 365.5 22.5 c 128,-1,46
 299 17 299 17 227 6 c 1,47,48
 297 376 297 376 337.5 739.5 c 128,-1,49
 378 1103 378 1103 395 1460 c 1,50,-1
 418 1478 l 1,0,1
EndSplineSet
Validated: 1
EndChar

StartChar: G
Encoding: 71 71 42
Width: 1692
Flags: W
LayerCount: 2
Fore
SplineSet
1117 392 m 1,0,-1
 1115 389 l 2,1,2
 1117 391 1117 391 1117 391 c 1,3,-1
 1117 392 l 1,0,-1
832 335 m 1,4,5
 868 336 868 336 907.5 336.5 c 128,-1,6
 947 337 947 337 985.5 342.5 c 128,-1,7
 1024 348 1024 348 1057.5 359.5 c 128,-1,8
 1091 371 1091 371 1115 394 c 2,9,-1
 1117 396 l 1,10,11
 1119 431 1119 431 1121 465.5 c 128,-1,12
 1123 500 1123 500 1125 535 c 1,13,14
 1055 537 1055 537 978 537 c 128,-1,15
 901 537 901 537 832 537 c 1,16,-1
 851 760 l 1,17,-1
 1111 760 l 2,18,19
 1172 760 1172 760 1242.5 760.5 c 128,-1,20
 1313 761 1313 761 1374 761 c 1,21,22
 1360 604 1360 604 1352.5 452 c 128,-1,23
 1345 300 1345 300 1345 150 c 1,24,25
 1221 71 1221 71 1086 40.5 c 128,-1,26
 951 10 951 10 818 10 c 0,27,28
 746 10 746 10 671.5 18.5 c 128,-1,29
 597 27 597 27 527 48 c 128,-1,30
 457 69 457 69 394.5 105 c 128,-1,31
 332 141 332 141 283 196 c 1,32,33
 248 239 248 239 224.5 289 c 128,-1,34
 201 339 201 339 186 393.5 c 128,-1,35
 171 448 171 448 164.5 504.5 c 128,-1,36
 158 561 158 561 158 617 c 0,37,38
 158 696 158 696 167 786.5 c 128,-1,39
 176 877 176 877 200.5 967.5 c 128,-1,40
 225 1058 225 1058 267.5 1142 c 128,-1,41
 310 1226 310 1226 378 1292 c 1,42,43
 433 1343 433 1343 500.5 1379 c 128,-1,44
 568 1415 568 1415 641 1437.5 c 128,-1,45
 714 1460 714 1460 788.5 1470.5 c 128,-1,46
 863 1481 863 1481 932 1481 c 0,47,48
 994 1481 994 1481 1057 1475.5 c 128,-1,49
 1120 1470 1120 1470 1182 1456.5 c 128,-1,50
 1244 1443 1244 1443 1303 1420 c 128,-1,51
 1362 1397 1362 1397 1417 1362 c 1,52,-1
 1408 1309 l 2,53,54
 1405 1294 1405 1294 1402 1272.5 c 128,-1,55
 1399 1251 1399 1251 1395.5 1229 c 128,-1,56
 1392 1207 1392 1207 1389 1185.5 c 128,-1,57
 1386 1164 1386 1164 1384 1149 c 1,58,59
 1287 1238 1287 1238 1171 1280 c 128,-1,60
 1055 1322 1055 1322 938 1322 c 0,61,62
 888 1322 888 1322 834.5 1316 c 128,-1,63
 781 1310 781 1310 728.5 1295 c 128,-1,64
 676 1280 676 1280 628 1255.5 c 128,-1,65
 580 1231 580 1231 540 1194 c 1,66,67
 493 1143 493 1143 462 1082 c 128,-1,68
 431 1021 431 1021 412 956.5 c 128,-1,69
 393 892 393 892 385.5 827 c 128,-1,70
 378 762 378 762 378 703 c 0,71,72
 378 664 378 664 381 624 c 128,-1,73
 384 584 384 584 394 547 c 128,-1,74
 404 510 404 510 421.5 477.5 c 128,-1,75
 439 445 439 445 469 420 c 1,76,-1
 468 421 l 1,77,78
 505 394 505 394 549 377.5 c 128,-1,79
 593 361 593 361 639.5 352 c 128,-1,80
 686 343 686 343 735 339.5 c 128,-1,81
 784 336 784 336 832 335 c 1,82,-1
 833 335 l 1,83,-1
 832 335 l 1,4,5
EndSplineSet
Validated: 5
EndChar

StartChar: H
Encoding: 72 72 43
Width: 1688
Flags: W
LayerCount: 2
Fore
SplineSet
417 1482 m 1,0,1
 461 1475 461 1475 512 1470.5 c 128,-1,2
 563 1466 563 1466 618 1464 c 1,3,4
 613 1294 613 1294 604 1127 c 128,-1,5
 595 960 595 960 580 789 c 1,6,7
 601 789 601 789 617 788.5 c 128,-1,8
 633 788 633 788 654 788 c 2,9,-1
 750 788 l 2,10,11
 866 788 866 788 972.5 788.5 c 128,-1,12
 1079 789 1079 789 1195 790 c 1,13,14
 1209 955 1209 955 1230 1128 c 128,-1,15
 1251 1301 1251 1301 1278 1465 c 1,16,-1
 1369 1472 l 2,17,18
 1383 1473 1383 1473 1401 1474.5 c 128,-1,19
 1419 1476 1419 1476 1438 1478 c 128,-1,20
 1457 1480 1457 1480 1475 1481.5 c 128,-1,21
 1493 1483 1493 1483 1507 1485 c 1,22,23
 1451 1164 1451 1164 1421.5 853.5 c 128,-1,24
 1392 543 1392 543 1392 240 c 0,25,26
 1392 186 1392 186 1393.5 123 c 128,-1,27
 1395 60 1395 60 1397 7 c 1,28,29
 1372 10 1372 10 1340.5 13 c 128,-1,30
 1309 16 1309 16 1276 18.5 c 128,-1,31
 1243 21 1243 21 1211 23.5 c 128,-1,32
 1179 26 1179 26 1153 28 c 1,33,34
 1154 148 1154 148 1158 266.5 c 128,-1,35
 1162 385 1162 385 1170 504 c 1,36,37
 1093 506 1093 506 1016.5 506 c 128,-1,38
 940 506 940 506 864 506 c 0,39,40
 782 506 782 506 709 506 c 128,-1,41
 636 506 636 506 554 504 c 1,42,43
 541 389 541 389 525.5 266 c 128,-1,44
 510 143 510 143 493 28 c 1,45,46
 467 26 467 26 435 23.5 c 128,-1,47
 403 21 403 21 369 18 c 128,-1,48
 335 15 335 15 302.5 12.5 c 128,-1,49
 270 10 270 10 244 7 c 1,50,51
 320 379 320 379 355 741 c 128,-1,52
 390 1103 390 1103 394 1463 c 1,53,-1
 417 1482 l 1,0,1
EndSplineSet
Validated: 1
EndChar

StartChar: I
Encoding: 73 73 44
Width: 672
Flags: W
LayerCount: 2
Fore
SplineSet
365 1467 m 1,0,1
 382 1462 382 1462 399.5 1458.5 c 128,-1,2
 417 1455 417 1455 434 1455 c 0,3,4
 478 1455 478 1455 548 1487 c 1,5,6
 532 1309 532 1309 516.5 1120.5 c 128,-1,7
 501 932 501 932 486.5 741.5 c 128,-1,8
 472 551 472 551 460 362.5 c 128,-1,9
 448 174 448 174 438 -4 c 1,10,11
 369 37 369 37 316 37 c 0,12,13
 290 37 290 37 255.5 26 c 128,-1,14
 221 15 221 15 180 -5 c 1,15,16
 225 352 225 352 265 723 c 128,-1,17
 305 1094 305 1094 339 1451 c 1,18,-1
 365 1467 l 1,0,1
EndSplineSet
Validated: 1
EndChar

StartChar: J
Encoding: 74 74 45
Width: 827
Flags: W
LayerCount: 2
Fore
SplineSet
575 1453 m 1,0,1
 621 1455 621 1455 670.5 1459.5 c 128,-1,2
 720 1464 720 1464 787 1478 c 1,3,4
 730 1135 730 1135 683.5 782 c 128,-1,5
 637 429 637 429 599 86 c 0,6,7
 594 40 594 40 587 -8 c 128,-1,8
 580 -56 580 -56 566.5 -102.5 c 128,-1,9
 553 -149 553 -149 529.5 -192 c 128,-1,10
 506 -235 506 -235 469 -272 c 1,11,12
 437 -299 437 -299 401.5 -317 c 128,-1,13
 366 -335 366 -335 329 -347 c 128,-1,14
 292 -359 292 -359 253.5 -367 c 128,-1,15
 215 -375 215 -375 178 -381 c 2,16,-1
 128 -390 l 1,17,18
 115 -390 115 -390 97.5 -391.5 c 128,-1,19
 80 -393 80 -393 62 -395 c 128,-1,20
 44 -397 44 -397 26.5 -399 c 128,-1,21
 9 -401 9 -401 -4 -402 c 1,22,23
 4 -345 4 -345 11.5 -277 c 128,-1,24
 19 -209 19 -209 25 -152 c 0,25,26
 27 -134 27 -134 29.5 -105 c 128,-1,27
 32 -76 32 -76 34 -58 c 1,28,-1
 94 -63 l 1,29,-1
 134 -66 l 1,30,31
 173 -60 173 -60 214.5 -48 c 128,-1,32
 256 -36 256 -36 291.5 -15 c 128,-1,33
 327 6 327 6 352.5 37 c 128,-1,34
 378 68 378 68 385 113 c 1,35,-1
 385 112 l 1,36,37
 426 445 426 445 467 774 c 128,-1,38
 508 1103 508 1103 556 1436 c 1,39,-1
 575 1453 l 1,0,1
EndSplineSet
Validated: 1
EndChar

StartChar: K
Encoding: 75 75 46
Width: 1599
Flags: W
LayerCount: 2
Fore
SplineSet
427 1479 m 1,0,1
 471 1474 471 1474 523.5 1470 c 128,-1,2
 576 1466 576 1466 621 1464 c 1,3,4
 617 1387 617 1387 612 1315.5 c 128,-1,5
 607 1244 607 1244 601.5 1173 c 128,-1,6
 596 1102 596 1102 589.5 1030.5 c 128,-1,7
 583 959 583 959 575 882 c 1,8,9
 693 988 693 988 812.5 1092.5 c 128,-1,10
 932 1197 932 1197 1053 1300 c 0,11,12
 1098 1339 1098 1339 1147 1381.5 c 128,-1,13
 1196 1424 1196 1424 1241 1463 c 1,14,15
 1286 1465 1286 1465 1332 1467.5 c 128,-1,16
 1378 1470 1378 1470 1423 1474 c 1,17,-1
 1530 1481 l 1,18,-1
 1228 1218 l 2,19,20
 1107 1113 1107 1113 985.5 1006 c 128,-1,21
 864 899 864 899 743 793 c 1,22,23
 757 776 757 776 772 759 c 128,-1,24
 787 742 787 742 801 725 c 0,25,26
 875 642 875 642 958.5 549 c 128,-1,27
 1042 456 1042 456 1127 361.5 c 128,-1,28
 1212 267 1212 267 1295.5 175.5 c 128,-1,29
 1379 84 1379 84 1453 4 c 1,30,31
 1318 18 1318 18 1195.5 26 c 128,-1,32
 1073 34 1073 34 959 36 c 1,33,34
 902 121 902 121 852 200 c 128,-1,35
 802 279 802 279 754 357.5 c 128,-1,36
 706 436 706 436 658 516.5 c 128,-1,37
 610 597 610 597 558 685 c 1,38,39
 551 522 551 522 540 355.5 c 128,-1,40
 529 189 529 189 514 29 c 1,41,42
 485 27 485 27 449 24.5 c 128,-1,43
 413 22 413 22 375.5 19.5 c 128,-1,44
 338 17 338 17 302 13.5 c 128,-1,45
 266 10 266 10 236 7 c 1,46,47
 315 380 315 380 356.5 741.5 c 128,-1,48
 398 1103 398 1103 405 1460 c 1,49,-1
 427 1479 l 1,0,1
EndSplineSet
Validated: 1
EndChar

StartChar: L
Encoding: 76 76 47
Width: 1204
Flags: W
LayerCount: 2
Fore
SplineSet
413 1481 m 1,0,1
 457 1474 457 1474 503.5 1469 c 128,-1,2
 550 1464 550 1464 604 1462 c 1,3,4
 590 1181 590 1181 567.5 903 c 128,-1,5
 545 625 545 625 510 344 c 1,6,7
 570 346 570 346 630 347.5 c 128,-1,8
 690 349 690 349 750 349 c 0,9,10
 854 349 854 349 962 344.5 c 128,-1,11
 1070 340 1070 340 1187 330 c 1,12,13
 1183 295 1183 295 1179 254 c 128,-1,14
 1175 213 1175 213 1171.5 170.5 c 128,-1,15
 1168 128 1168 128 1165 87 c 128,-1,16
 1162 46 1162 46 1160 11 c 1,17,18
 1046 24 1046 24 936 30.5 c 128,-1,19
 826 37 826 37 717 37 c 0,20,21
 492 37 492 37 240 7 c 1,22,23
 308 377 308 377 344.5 742 c 128,-1,24
 381 1107 381 1107 390 1463 c 1,25,-1
 413 1481 l 1,0,1
EndSplineSet
Validated: 1
EndChar

StartChar: M
Encoding: 77 77 48
Width: 1929
Flags: W
LayerCount: 2
Fore
SplineSet
426 1481 m 1,0,1
 495 1474 495 1474 569 1469 c 128,-1,2
 643 1464 643 1464 711 1461 c 1,3,4
 752 1356 752 1356 789 1255.5 c 128,-1,5
 826 1155 826 1155 860.5 1054.5 c 128,-1,6
 895 954 895 954 928.5 852 c 128,-1,7
 962 750 962 750 996 643 c 1,8,-1
 1053 752 l 2,9,10
 1145 928 1145 928 1243 1110.5 c 128,-1,11
 1341 1293 1341 1293 1445 1463 c 1,12,13
 1477 1464 1477 1464 1515 1466.5 c 128,-1,14
 1553 1469 1553 1469 1592 1472 c 128,-1,15
 1631 1475 1631 1475 1669 1477.5 c 128,-1,16
 1707 1480 1707 1480 1740 1483 c 1,17,18
 1686 1192 1686 1192 1657 911 c 128,-1,19
 1628 630 1628 630 1628 354 c 0,20,21
 1628 272 1628 272 1631 180.5 c 128,-1,22
 1634 89 1634 89 1639 8 c 1,23,24
 1610 11 1610 11 1575.5 13.5 c 128,-1,25
 1541 16 1541 16 1505 18.5 c 128,-1,26
 1469 21 1469 21 1434.5 23 c 128,-1,27
 1400 25 1400 25 1371 27 c 1,28,29
 1376 330 1376 330 1407 623 c 128,-1,30
 1438 916 1438 916 1488 1205 c 1,31,32
 1395 1008 1395 1008 1312.5 810 c 128,-1,33
 1230 612 1230 612 1148 411 c 1,34,-1
 1148 412 l 1,35,36
 1134 377 1134 377 1116.5 335.5 c 128,-1,37
 1099 294 1099 294 1085 259 c 1,38,-1
 1018 259 l 2,39,40
 1005 259 1005 259 991.5 259.5 c 128,-1,41
 978 260 978 260 965 260 c 0,42,43
 951 260 951 260 937.5 259.5 c 128,-1,44
 924 259 924 259 910 259 c 2,45,-1
 843 259 l 1,46,-1
 781 513 l 1,47,48
 741 685 741 685 696.5 862.5 c 128,-1,49
 652 1040 652 1040 601 1211 c 1,50,51
 600 917 600 917 579 621.5 c 128,-1,52
 558 326 558 326 518 26 c 1,53,54
 489 25 489 25 453.5 23 c 128,-1,55
 418 21 418 21 381 18.5 c 128,-1,56
 344 16 344 16 308.5 13.5 c 128,-1,57
 273 11 273 11 244 8 c 1,58,59
 328 378 328 378 366.5 742 c 128,-1,60
 405 1106 405 1106 405 1462 c 1,61,-1
 426 1481 l 1,0,1
EndSplineSet
Validated: 1
EndChar

StartChar: N
Encoding: 78 78 49
Width: 1673
Flags: W
LayerCount: 2
Fore
SplineSet
420 1450 m 1,0,1
 467 1444 467 1444 513 1440.5 c 128,-1,2
 559 1437 559 1437 607 1434 c 1,3,-1
 606 1434 l 2,4,5
 616 1434 616 1434 631 1433 c 128,-1,6
 646 1432 646 1432 656 1432 c 1,7,8
 737 1273 737 1273 812.5 1106 c 128,-1,9
 888 939 888 939 960 776 c 0,10,11
 987 715 987 715 1010 663 c 128,-1,12
 1033 611 1033 611 1055.5 561 c 128,-1,13
 1078 511 1078 511 1102 459.5 c 128,-1,14
 1126 408 1126 408 1155 347 c 1,15,16
 1176 625 1176 625 1211.5 905.5 c 128,-1,17
 1247 1186 1247 1186 1301 1468 c 1,18,19
 1321 1469 1321 1469 1347.5 1471.5 c 128,-1,20
 1374 1474 1374 1474 1402.5 1476.5 c 128,-1,21
 1431 1479 1431 1479 1457.5 1482 c 128,-1,22
 1484 1485 1484 1485 1504 1487 c 1,23,24
 1441 1144 1441 1144 1407 808 c 128,-1,25
 1373 472 1373 472 1373 143 c 0,26,27
 1373 114 1373 114 1373.5 75.5 c 128,-1,28
 1374 37 1374 37 1375 8 c 1,29,30
 1342 12 1342 12 1303.5 15.5 c 128,-1,31
 1265 19 1265 19 1225 22 c 128,-1,32
 1185 25 1185 25 1146.5 27.5 c 128,-1,33
 1108 30 1108 30 1075 32 c 1,34,35
 993 196 993 196 917 367 c 128,-1,36
 841 538 841 538 768 707 c 0,37,38
 715 831 715 831 666 950.5 c 128,-1,39
 617 1070 617 1070 561 1192 c 1,40,41
 559 904 559 904 544 616 c 128,-1,42
 529 328 529 328 501 29 c 1,43,44
 472 27 472 27 437 24.5 c 128,-1,45
 402 22 402 22 365.5 19.5 c 128,-1,46
 329 17 329 17 293.5 13.5 c 128,-1,47
 258 10 258 10 229 7 c 1,48,49
 307 372 307 372 347.5 726.5 c 128,-1,50
 388 1081 388 1081 398 1431 c 1,51,-1
 420 1450 l 1,0,1
EndSplineSet
Validated: 1
EndChar

StartChar: O
Encoding: 79 79 50
Width: 1733
Flags: W
LayerCount: 2
Fore
SplineSet
862 1305 m 0,0,1
 816 1305 816 1305 769.5 1296.5 c 128,-1,2
 723 1288 723 1288 679.5 1270 c 128,-1,3
 636 1252 636 1252 597.5 1224.5 c 128,-1,4
 559 1197 559 1197 528 1158 c 1,5,6
 486 1108 486 1108 458 1048.5 c 128,-1,7
 430 989 430 989 413 925.5 c 128,-1,8
 396 862 396 862 388.5 798 c 128,-1,9
 381 734 381 734 381 675 c 0,10,11
 381 643 381 643 384.5 611.5 c 128,-1,12
 388 580 388 580 397.5 551.5 c 128,-1,13
 407 523 407 523 423.5 499 c 128,-1,14
 440 475 440 475 466 459 c 0,15,16
 499 438 499 438 537 424.5 c 128,-1,17
 575 411 575 411 614.5 403.5 c 128,-1,18
 654 396 654 396 695 393 c 128,-1,19
 736 390 736 390 777 390 c 0,20,21
 857 390 857 390 942 405.5 c 128,-1,22
 1027 421 1027 421 1099 460 c 1,23,24
 1146 490 1146 490 1173.5 538 c 128,-1,25
 1201 586 1201 586 1215.5 639.5 c 128,-1,26
 1230 693 1230 693 1234.5 747 c 128,-1,27
 1239 801 1239 801 1239 843 c 0,28,29
 1239 929 1239 929 1223 1010.5 c 128,-1,30
 1207 1092 1207 1092 1164 1162 c 1,31,-1
 1164 1161 l 1,32,33
 1114 1233 1114 1233 1033.5 1269 c 128,-1,34
 953 1305 953 1305 862 1305 c 0,0,1
874 1480 m 0,35,36
 940 1480 940 1480 1006 1469.5 c 128,-1,37
 1072 1459 1072 1459 1133 1436 c 128,-1,38
 1194 1413 1194 1413 1247 1376.5 c 128,-1,39
 1300 1340 1300 1340 1340 1287 c 0,40,41
 1373 1243 1373 1243 1395 1193.5 c 128,-1,42
 1417 1144 1417 1144 1430.5 1090.5 c 128,-1,43
 1444 1037 1444 1037 1449.5 981.5 c 128,-1,44
 1455 926 1455 926 1455 871 c 0,45,46
 1455 788 1455 788 1445 699 c 128,-1,47
 1435 610 1435 610 1411 522.5 c 128,-1,48
 1387 435 1387 435 1346.5 353 c 128,-1,49
 1306 271 1306 271 1245 201 c 1,50,51
 1194 147 1194 147 1133.5 110 c 128,-1,52
 1073 73 1073 73 1007 51 c 128,-1,53
 941 29 941 29 871.5 19.5 c 128,-1,54
 802 10 802 10 734 10 c 0,55,56
 669 10 669 10 605 21 c 128,-1,57
 541 32 541 32 481.5 55 c 128,-1,58
 422 78 422 78 370.5 114.5 c 128,-1,59
 319 151 319 151 280 202 c 0,60,61
 247 245 247 245 225 294.5 c 128,-1,62
 203 344 203 344 189.5 397.5 c 128,-1,63
 176 451 176 451 170 506.5 c 128,-1,64
 164 562 164 562 164 618 c 0,65,66
 164 698 164 698 172.5 787 c 128,-1,67
 181 876 181 876 204 964.5 c 128,-1,68
 227 1053 227 1053 268 1136.5 c 128,-1,69
 309 1220 309 1220 374 1288 c 1,70,-1
 373 1288 l 1,71,72
 422 1341 422 1341 481.5 1378 c 128,-1,73
 541 1415 541 1415 606 1437.5 c 128,-1,74
 671 1460 671 1460 739 1470 c 128,-1,75
 807 1480 807 1480 874 1480 c 0,35,36
EndSplineSet
Validated: 1
EndChar

StartChar: P
Encoding: 80 80 51
Width: 1276
Flags: W
LayerCount: 2
Fore
SplineSet
627 1376 m 1,0,-1
 625 1357 l 1,1,2
 621 1357 621 1357 616.5 1357 c 128,-1,3
 612 1357 612 1357 607 1358 c 1,4,-1
 627 1376 l 1,0,-1
861 1354 m 0,5,6
 801 1354 801 1354 742.5 1354.5 c 128,-1,7
 684 1355 684 1355 625 1357 c 1,8,9
 614 1226 614 1226 602 1103.5 c 128,-1,10
 590 981 590 981 575 849 c 1,11,12
 641 848 641 848 706.5 847.5 c 128,-1,13
 772 847 772 847 838 847 c 0,14,15
 890 847 890 847 940.5 867.5 c 128,-1,16
 991 888 991 888 1030 924 c 128,-1,17
 1069 960 1069 960 1093.5 1008 c 128,-1,18
 1118 1056 1118 1056 1119 1111 c 1,19,20
 1122 1133 1122 1133 1122 1154 c 0,21,22
 1122 1217 1122 1217 1096.5 1256.5 c 128,-1,23
 1071 1296 1071 1296 1032 1317.5 c 128,-1,24
 993 1339 993 1339 947 1346.5 c 128,-1,25
 901 1354 901 1354 861 1354 c 0,5,6
427 1476 m 1,26,27
 532 1464 532 1464 637 1459.5 c 128,-1,28
 742 1455 742 1455 848 1455 c 0,29,30
 890 1455 890 1455 932 1452.5 c 128,-1,31
 974 1450 974 1450 1015 1443 c 128,-1,32
 1056 1436 1056 1436 1095 1423 c 128,-1,33
 1134 1410 1134 1410 1170 1389 c 1,34,35
 1206 1365 1206 1365 1230.5 1334 c 128,-1,36
 1255 1303 1255 1303 1269.5 1268 c 128,-1,37
 1284 1233 1284 1233 1290.5 1194.5 c 128,-1,38
 1297 1156 1297 1156 1297 1117 c 0,39,40
 1297 1064 1297 1064 1288.5 1007 c 128,-1,41
 1280 950 1280 950 1261 894.5 c 128,-1,42
 1242 839 1242 839 1211.5 788 c 128,-1,43
 1181 737 1181 737 1138 697 c 0,44,45
 1100 662 1100 662 1056.5 639.5 c 128,-1,46
 1013 617 1013 617 966 603.5 c 128,-1,47
 919 590 919 590 870.5 585 c 128,-1,48
 822 580 822 580 775 580 c 0,49,50
 717 580 717 580 667 580 c 128,-1,51
 617 580 617 580 558 579 c 1,52,53
 541 445 541 445 520 304 c 128,-1,54
 499 163 499 163 476 30 c 1,55,56
 449 28 449 28 415.5 25.5 c 128,-1,57
 382 23 382 23 347 20 c 128,-1,58
 312 17 312 17 278 13.5 c 128,-1,59
 244 10 244 10 217 7 c 1,60,61
 298 377 298 377 342.5 739.5 c 128,-1,62
 387 1102 387 1102 405 1458 c 1,63,-1
 427 1476 l 1,26,27
EndSplineSet
Validated: 5
EndChar

StartChar: Q
Encoding: 81 81 52
Width: 1724
Flags: W
LayerCount: 2
Fore
SplineSet
801 1299 m 0,0,1
 706 1299 706 1299 618.5 1264.5 c 128,-1,2
 531 1230 531 1230 467 1154 c 0,3,4
 426 1105 426 1105 398.5 1047 c 128,-1,5
 371 989 371 989 353.5 927.5 c 128,-1,6
 336 866 336 866 328.5 804 c 128,-1,7
 321 742 321 742 321 685 c 0,8,9
 321 652 321 652 324.5 619 c 128,-1,10
 328 586 328 586 337.5 556 c 128,-1,11
 347 526 347 526 364.5 501 c 128,-1,12
 382 476 382 476 409 459 c 0,13,14
 471 420 471 420 536 402.5 c 128,-1,15
 601 385 601 385 679 373 c 1,16,-1
 716 426 l 2,17,18
 727 442 727 442 742.5 465 c 128,-1,19
 758 488 758 488 769 504 c 1,20,21
 825 477 825 477 878.5 460 c 128,-1,22
 932 443 932 443 986 435 c 1,23,24
 1045 465 1045 465 1083 510 c 128,-1,25
 1121 555 1121 555 1143 609.5 c 128,-1,26
 1165 664 1165 664 1173.5 724 c 128,-1,27
 1182 784 1182 784 1182 844 c 0,28,29
 1182 928 1182 928 1165.5 1007 c 128,-1,30
 1149 1086 1149 1086 1105 1154 c 0,31,32
 1081 1191 1081 1191 1047.5 1218 c 128,-1,33
 1014 1245 1014 1245 974.5 1263 c 128,-1,34
 935 1281 935 1281 890.5 1290 c 128,-1,35
 846 1299 846 1299 801 1299 c 0,0,1
1286 346 m 1,36,37
 1249 283 1249 283 1210 226 c 128,-1,38
 1171 169 1171 169 1123 118 c 1,39,40
 1175 52 1175 52 1228 -12.5 c 128,-1,41
 1281 -77 1281 -77 1336 -141 c 0,42,43
 1344 -150 1344 -150 1356.5 -165 c 128,-1,44
 1369 -180 1369 -180 1383 -196.5 c 128,-1,45
 1397 -213 1397 -213 1409.5 -228 c 128,-1,46
 1422 -243 1422 -243 1430 -252 c 1,47,48
 1172 -225 1172 -225 940 -219 c 1,49,-1
 896 -166 l 1,50,-1
 897 -166 l 1,51,52
 859 -120 859 -120 824.5 -79 c 128,-1,53
 790 -38 790 -38 753 9 c 1,54,55
 724 6 724 6 690 6 c 0,56,57
 623 6 623 6 557.5 16 c 128,-1,58
 492 26 492 26 432 49 c 128,-1,59
 372 72 372 72 320 108.5 c 128,-1,60
 268 145 268 145 228 199 c 0,61,62
 193 247 193 247 170 300.5 c 128,-1,63
 147 354 147 354 132.5 411.5 c 128,-1,64
 118 469 118 469 112 529 c 128,-1,65
 106 589 106 589 106 649 c 0,66,67
 106 727 106 727 115 812 c 128,-1,68
 124 897 124 897 147 980.5 c 128,-1,69
 170 1064 170 1064 210 1142 c 128,-1,70
 250 1220 250 1220 312 1285 c 0,71,72
 360 1335 360 1335 417.5 1371 c 128,-1,73
 475 1407 475 1407 537.5 1430 c 128,-1,74
 600 1453 600 1453 665.5 1463.5 c 128,-1,75
 731 1474 731 1474 795 1474 c 0,76,77
 862 1474 862 1474 930.5 1463 c 128,-1,78
 999 1452 999 1452 1063 1429 c 128,-1,79
 1127 1406 1127 1406 1183.5 1369.5 c 128,-1,80
 1240 1333 1240 1333 1282 1281 c 0,81,82
 1315 1239 1315 1239 1337 1190.5 c 128,-1,83
 1359 1142 1359 1142 1373 1089.5 c 128,-1,84
 1387 1037 1387 1037 1393 982 c 128,-1,85
 1399 927 1399 927 1399 872 c 0,86,87
 1399 812 1399 812 1394 744.5 c 128,-1,88
 1389 677 1389 677 1376 609 c 128,-1,89
 1363 541 1363 541 1341 473.5 c 128,-1,90
 1319 406 1319 406 1286 346 c 1,36,37
EndSplineSet
Validated: 1
EndChar

StartChar: R
Encoding: 82 82 53
Width: 1534
Flags: W
LayerCount: 2
Fore
SplineSet
1263 1107 m 0,0,1
 1263 1051 1263 1051 1250.5 989.5 c 128,-1,2
 1238 928 1238 928 1210.5 872 c 128,-1,3
 1183 816 1183 816 1140 770 c 128,-1,4
 1097 724 1097 724 1036 700 c 1,5,6
 1070 681 1070 681 1096 653.5 c 128,-1,7
 1122 626 1122 626 1142.5 594 c 128,-1,8
 1163 562 1163 562 1180 527 c 128,-1,9
 1197 492 1197 492 1213 458 c 1,10,-1
 1226 428 l 1,11,-1
 1225 429 l 1,12,13
 1246 379 1246 379 1270 325 c 128,-1,14
 1294 271 1294 271 1319.5 216 c 128,-1,15
 1345 161 1345 161 1370 107.5 c 128,-1,16
 1395 54 1395 54 1419 6 c 1,17,18
 1387 10 1387 10 1348 13.5 c 128,-1,19
 1309 17 1309 17 1268.5 20.5 c 128,-1,20
 1228 24 1228 24 1188.5 26.5 c 128,-1,21
 1149 29 1149 29 1117 31 c 1,22,23
 1084 121 1084 121 1051.5 216 c 128,-1,24
 1019 311 1019 311 990 403 c 1,25,-1
 991 401 l 1,26,27
 969 452 969 452 943 501 c 128,-1,28
 917 550 917 550 877 585 c 1,29,-1
 878 584 l 1,30,31
 843 609 843 609 801 618 c 128,-1,32
 759 627 759 627 714 627 c 0,33,34
 677 627 677 627 649.5 627 c 128,-1,35
 622 627 622 627 586 626 c 1,36,37
 572 479 572 479 553 327 c 128,-1,38
 534 175 534 175 513 28 c 1,39,40
 486 27 486 27 452.5 24.5 c 128,-1,41
 419 22 419 22 384 19 c 128,-1,42
 349 16 349 16 315 13 c 128,-1,43
 281 10 281 10 254 7 c 1,44,45
 320 365 320 365 352 712 c 128,-1,46
 384 1059 384 1059 384 1402 c 2,47,-1
 384 1487 l 1,48,49
 505 1471 505 1471 616.5 1464.5 c 128,-1,50
 728 1458 728 1458 836 1456 c 0,51,52
 912 1454 912 1454 986.5 1440.5 c 128,-1,53
 1061 1427 1061 1427 1127 1389 c 1,54,55
 1165 1363 1165 1363 1191 1330.5 c 128,-1,56
 1217 1298 1217 1298 1233 1261.5 c 128,-1,57
 1249 1225 1249 1225 1256 1186 c 128,-1,58
 1263 1147 1263 1147 1263 1107 c 0,0,1
615 1362 m 1,59,60
 615 1357 615 1357 614.5 1352 c 128,-1,61
 614 1347 614 1347 614 1342 c 1,62,-1
 594 1344 l 1,63,-1
 615 1362 l 1,59,60
849 1335 m 0,64,65
 791 1336 791 1336 732.5 1337 c 128,-1,66
 674 1338 674 1338 614 1342 c 1,67,68
 612 1277 612 1277 609 1215 c 128,-1,69
 606 1153 606 1153 603 1091.5 c 128,-1,70
 600 1030 600 1030 596 968 c 128,-1,71
 592 906 592 906 587 841 c 1,72,73
 643 840 643 840 699 840 c 128,-1,74
 755 840 755 840 811 840 c 0,75,76
 854 840 854 840 904 855 c 128,-1,77
 954 870 954 870 997 897 c 128,-1,78
 1040 924 1040 924 1070.5 962 c 128,-1,79
 1101 1000 1101 1000 1106 1045 c 0,80,81
 1106 1050 1106 1050 1106.5 1053.5 c 128,-1,82
 1107 1057 1107 1057 1107 1062 c 0,83,84
 1108 1073 1108 1073 1108.5 1084 c 128,-1,85
 1109 1095 1109 1095 1109 1106 c 0,86,87
 1109 1156 1109 1156 1095.5 1201.5 c 128,-1,88
 1082 1247 1082 1247 1043 1274 c 0,89,90
 1001 1304 1001 1304 952 1319 c 128,-1,91
 903 1334 903 1334 849 1335 c 0,64,65
EndSplineSet
Validated: 5
EndChar

StartChar: S
Encoding: 83 83 54
Width: 1430
Flags: W
LayerCount: 2
Fore
SplineSet
1237 1355 m 2,0,1
 1235 1341 1235 1341 1232.5 1322.5 c 128,-1,2
 1230 1304 1230 1304 1227 1285 c 128,-1,3
 1224 1266 1224 1266 1221.5 1247.5 c 128,-1,4
 1219 1229 1219 1229 1217 1214 c 1,5,6
 1120 1255 1120 1255 1022.5 1280 c 128,-1,7
 925 1305 925 1305 828 1305 c 0,8,9
 770 1305 770 1305 710.5 1295 c 128,-1,10
 651 1285 651 1285 595 1255 c 1,11,-1
 597 1256 l 1,12,13
 542 1220 542 1220 519.5 1171.5 c 128,-1,14
 497 1123 497 1123 497 1072 c 0,15,16
 497 1040 497 1040 507 1008 c 128,-1,17
 517 976 517 976 537 954 c 1,18,19
 557 938 557 938 581 926.5 c 128,-1,20
 605 915 605 915 631 906.5 c 128,-1,21
 657 898 657 898 683.5 891.5 c 128,-1,22
 710 885 710 885 735 879 c 2,23,-1
 794 867 l 2,24,25
 868 852 868 852 940.5 831.5 c 128,-1,26
 1013 811 1013 811 1079 766 c 0,27,28
 1118 739 1118 739 1145.5 704.5 c 128,-1,29
 1173 670 1173 670 1190.5 630 c 128,-1,30
 1208 590 1208 590 1216.5 547 c 128,-1,31
 1225 504 1225 504 1225 460 c 0,32,33
 1225 414 1225 414 1218.5 365 c 128,-1,34
 1212 316 1212 316 1195.5 270 c 128,-1,35
 1179 224 1179 224 1150.5 183 c 128,-1,36
 1122 142 1122 142 1079 111 c 1,37,38
 1028 77 1028 77 974 57.5 c 128,-1,39
 920 38 920 38 866 27.5 c 128,-1,40
 812 17 812 17 757.5 14 c 128,-1,41
 703 11 703 11 650 10 c 1,42,43
 535 10 535 10 420 26.5 c 128,-1,44
 305 43 305 43 190 78 c 1,45,46
 196 114 196 114 202.5 156.5 c 128,-1,47
 209 199 209 199 215.5 243 c 128,-1,48
 222 287 222 287 228 329.5 c 128,-1,49
 234 372 234 372 238 408 c 1,50,51
 343 347 343 347 452.5 317 c 128,-1,52
 562 287 562 287 673 287 c 0,53,54
 736 287 736 287 800.5 300 c 128,-1,55
 865 313 865 313 920 348 c 0,56,57
 936 358 936 358 952.5 371.5 c 128,-1,58
 969 385 969 385 982 400.5 c 128,-1,59
 995 416 995 416 1003.5 433 c 128,-1,60
 1012 450 1012 450 1012 469 c 0,61,62
 1012 520 1012 520 978 555 c 128,-1,63
 944 590 944 590 894.5 613.5 c 128,-1,64
 845 637 845 637 790.5 650.5 c 128,-1,65
 736 664 736 664 694 672 c 2,66,-1
 661 679 l 2,67,68
 621 687 621 687 581 698.5 c 128,-1,69
 541 710 541 710 503.5 726 c 128,-1,70
 466 742 466 742 431.5 764 c 128,-1,71
 397 786 397 786 368 816 c 1,72,73
 324 864 324 864 307 928 c 128,-1,74
 290 992 290 992 290 1058 c 0,75,76
 290 1102 290 1102 297.5 1147.5 c 128,-1,77
 305 1193 305 1193 322 1236 c 128,-1,78
 339 1279 339 1279 367.5 1316.5 c 128,-1,79
 396 1354 396 1354 437 1383 c 0,80,81
 480 1413 480 1413 527 1431.5 c 128,-1,82
 574 1450 574 1450 622.5 1461 c 128,-1,83
 671 1472 671 1472 720.5 1476 c 128,-1,84
 770 1480 770 1480 819 1480 c 0,85,86
 926 1480 926 1480 1030 1467 c 128,-1,87
 1134 1454 1134 1454 1236 1427 c 1,88,-1
 1230 1415 l 1,89,-1
 1246 1414 l 1,90,-1
 1237 1355 l 2,0,1
EndSplineSet
Validated: 1
EndChar

StartChar: T
Encoding: 84 84 55
Width: 1356
Flags: W
LayerCount: 2
Fore
SplineSet
57 1484 m 1,0,1
 348 1454 348 1454 643 1454 c 0,2,3
 801 1454 801 1454 961.5 1462 c 128,-1,4
 1122 1470 1122 1470 1289 1486 c 1,5,-1
 1278 1420 l 2,6,7
 1273 1393 1273 1393 1266 1359 c 128,-1,8
 1259 1325 1259 1325 1254 1298 c 1,9,10
 1178 1295 1178 1295 1093.5 1292.5 c 128,-1,11
 1009 1290 1009 1290 934 1290 c 0,12,13
 884 1290 884 1290 843 1290.5 c 128,-1,14
 802 1291 802 1291 753 1293 c 1,15,16
 731 981 731 981 712 663.5 c 128,-1,17
 693 346 693 346 686 35 c 1,18,19
 659 36 659 36 622 36.5 c 128,-1,20
 585 37 585 37 557 37 c 2,21,-1
 484 37 l 2,22,23
 475 37 475 37 462 37 c 128,-1,24
 449 37 449 37 435.5 36.5 c 128,-1,25
 422 36 422 36 409 36 c 128,-1,26
 396 36 396 36 387 36 c 1,27,28
 429 352 429 352 467 664 c 128,-1,29
 505 976 505 976 538 1292 c 1,30,31
 515 1292 515 1292 488.5 1291.5 c 128,-1,32
 462 1291 462 1291 435 1290.5 c 128,-1,33
 408 1290 408 1290 381.5 1290 c 128,-1,34
 355 1290 355 1290 333 1290 c 0,35,36
 264 1290 264 1290 185 1292 c 128,-1,37
 106 1294 106 1294 37 1299 c 1,38,39
 37 1336 37 1336 36.5 1382 c 128,-1,40
 36 1428 36 1428 35 1465 c 1,41,-1
 57 1484 l 1,0,1
EndSplineSet
Validated: 1
EndChar

StartChar: U
Encoding: 85 85 56
Width: 1624
Flags: W
LayerCount: 2
Fore
SplineSet
301 1483 m 1,0,1
 346 1477 346 1477 397.5 1471.5 c 128,-1,2
 449 1466 449 1466 494 1463 c 1,3,4
 490 1282 490 1282 479 1093.5 c 128,-1,5
 468 905 468 905 453 723 c 0,6,7
 451 697 451 697 449.5 670.5 c 128,-1,8
 448 644 448 644 448 619 c 0,9,10
 448 560 448 560 458 505 c 128,-1,11
 468 450 468 450 499 404 c 1,12,-1
 498 404 l 1,13,14
 517 377 517 377 544.5 359.5 c 128,-1,15
 572 342 572 342 605 332 c 128,-1,16
 638 322 638 322 673.5 318.5 c 128,-1,17
 709 315 709 315 743 315 c 256,18,19
 777 315 777 315 813 319 c 128,-1,20
 849 323 849 323 883.5 333.5 c 128,-1,21
 918 344 918 344 949 361.5 c 128,-1,22
 980 379 980 379 1004 406 c 1,23,24
 1029 439 1029 439 1047 478 c 128,-1,25
 1065 517 1065 517 1077 559 c 128,-1,26
 1089 601 1089 601 1095.5 644 c 128,-1,27
 1102 687 1102 687 1106 728 c 0,28,29
 1115 816 1115 816 1124.5 909.5 c 128,-1,30
 1134 1003 1134 1003 1145.5 1097.5 c 128,-1,31
 1157 1192 1157 1192 1169.5 1285 c 128,-1,32
 1182 1378 1182 1378 1197 1465 c 1,33,34
 1229 1467 1229 1467 1269 1470.5 c 128,-1,35
 1309 1474 1309 1474 1341 1478 c 1,36,-1
 1417 1485 l 1,37,38
 1370 1245 1370 1245 1343 1017 c 128,-1,39
 1316 789 1316 789 1299 564 c 0,40,41
 1295 511 1295 511 1286.5 455.5 c 128,-1,42
 1278 400 1278 400 1261.5 346.5 c 128,-1,43
 1245 293 1245 293 1218 243 c 128,-1,44
 1191 193 1191 193 1151 150 c 1,45,46
 1104 105 1104 105 1051.5 77.5 c 128,-1,47
 999 50 999 50 943.5 35 c 128,-1,48
 888 20 888 20 831.5 14.5 c 128,-1,49
 775 9 775 9 721 9 c 256,50,51
 667 9 667 9 612.5 13.5 c 128,-1,52
 558 18 558 18 506 31.5 c 128,-1,53
 454 45 454 45 407.5 69.5 c 128,-1,54
 361 94 361 94 324 133 c 1,55,56
 295 166 295 166 276.5 203 c 128,-1,57
 258 240 258 240 247 279.5 c 128,-1,58
 236 319 236 319 231.5 359.5 c 128,-1,59
 227 400 227 400 227 441 c 0,60,61
 227 474 227 474 229 505.5 c 128,-1,62
 231 537 231 537 234 568 c 0,63,64
 255 777 255 777 267 982.5 c 128,-1,65
 279 1188 279 1188 279 1395 c 2,66,-1
 279 1464 l 1,67,-1
 301 1483 l 1,0,1
EndSplineSet
Validated: 1
EndChar

StartChar: V
Encoding: 86 86 57
Width: 1538
Flags: W
LayerCount: 2
Fore
SplineSet
450 51 m 1,0,1
 428 140 428 140 407 228.5 c 128,-1,2
 386 317 386 317 364 407 c 0,3,4
 333 539 333 539 301 672 c 128,-1,5
 269 805 269 805 233 939.5 c 128,-1,6
 197 1074 197 1074 155 1210.5 c 128,-1,7
 113 1347 113 1347 63 1488 c 1,8,9
 86 1485 86 1485 115 1482 c 128,-1,10
 144 1479 144 1479 175 1476 c 128,-1,11
 206 1473 206 1473 235 1470.5 c 128,-1,12
 264 1468 264 1468 287 1467 c 1,13,14
 372 1263 372 1263 445.5 1048.5 c 128,-1,15
 519 834 519 834 588 622 c 1,16,-1
 653 427 l 1,17,18
 681 482 681 482 708 537.5 c 128,-1,19
 735 593 735 593 763 647 c 0,20,21
 813 747 813 747 866 851.5 c 128,-1,22
 919 956 919 956 974.5 1061 c 128,-1,23
 1030 1166 1030 1166 1086.5 1269 c 128,-1,24
 1143 1372 1143 1372 1201 1468 c 1,25,26
 1233 1470 1233 1470 1269 1473 c 128,-1,27
 1305 1476 1305 1476 1337 1479 c 2,28,-1
 1432 1486 l 1,29,30
 1348 1329 1348 1329 1273.5 1174 c 128,-1,31
 1199 1019 1199 1019 1131.5 865 c 128,-1,32
 1064 711 1064 711 1001 557.5 c 128,-1,33
 938 404 938 404 877 251 c 2,34,-1
 790 36 l 1,35,36
 757 37 757 37 718 37 c 128,-1,37
 679 37 679 37 646 37 c 0,38,39
 623 37 623 37 600.5 36.5 c 128,-1,40
 578 36 578 36 556 36 c 2,41,-1
 469 36 l 1,42,-1
 450 51 l 1,0,1
EndSplineSet
Validated: 1
EndChar

StartChar: W
Encoding: 87 87 58
Width: 2226
Flags: W
LayerCount: 2
Fore
SplineSet
239 1480 m 1,0,-1
 363 1471 l 1,1,2
 404 1347 404 1347 437 1222 c 128,-1,3
 470 1097 470 1097 497.5 971.5 c 128,-1,4
 525 846 525 846 548 720 c 128,-1,5
 571 594 571 594 591 468 c 1,6,7
 648 560 648 560 702.5 651.5 c 128,-1,8
 757 743 757 743 811 837 c 0,9,10
 848 900 848 900 887 967.5 c 128,-1,11
 926 1035 926 1035 964 1097 c 1,12,-1
 1141 1097 l 1,13,14
 1160 1045 1160 1045 1181 987 c 128,-1,15
 1202 929 1202 929 1220 876 c 0,16,17
 1241 817 1241 817 1259 765 c 128,-1,18
 1277 713 1277 713 1295 662.5 c 128,-1,19
 1313 612 1313 612 1332 560.5 c 128,-1,20
 1351 509 1351 509 1374 450 c 1,21,22
 1469 711 1469 711 1576 967.5 c 128,-1,23
 1683 1224 1683 1224 1817 1474 c 1,24,25
 1843 1475 1843 1475 1873.5 1476.5 c 128,-1,26
 1904 1478 1904 1478 1930 1480 c 0,27,28
 1939 1481 1939 1481 1953 1481.5 c 128,-1,29
 1967 1482 1967 1482 1981.5 1483 c 128,-1,30
 1996 1484 1996 1484 2009.5 1484.5 c 128,-1,31
 2023 1485 2023 1485 2031 1485 c 1,32,33
 1942 1306 1942 1306 1868.5 1124.5 c 128,-1,34
 1795 943 1795 943 1734.5 760 c 128,-1,35
 1674 577 1674 577 1624 393.5 c 128,-1,36
 1574 210 1574 210 1531 27 c 1,37,38
 1497 28 1497 28 1458.5 29 c 128,-1,39
 1420 30 1420 30 1380.5 31 c 128,-1,40
 1341 32 1341 32 1302.5 33 c 128,-1,41
 1264 34 1264 34 1231 35 c 1,42,43
 1175 201 1175 201 1132 363.5 c 128,-1,44
 1089 526 1089 526 1049 688 c 0,45,46
 1045 705 1045 705 1043 713.5 c 128,-1,47
 1041 722 1041 722 1039.5 729 c 128,-1,48
 1038 736 1038 736 1035.5 744.5 c 128,-1,49
 1033 753 1033 753 1029 770 c 1,50,51
 989 681 989 681 946.5 587.5 c 128,-1,52
 904 494 904 494 860 400 c 128,-1,53
 816 306 816 306 771.5 213.5 c 128,-1,54
 727 121 727 121 683 34 c 1,55,56
 646 34 646 34 604.5 33 c 128,-1,57
 563 32 563 32 520.5 30.5 c 128,-1,58
 478 29 478 29 437 27.5 c 128,-1,59
 396 26 396 26 359 25 c 1,60,61
 352 209 352 209 339 393.5 c 128,-1,62
 326 578 326 578 302.5 761.5 c 128,-1,63
 279 945 279 945 243 1126.5 c 128,-1,64
 207 1308 207 1308 156 1486 c 1,65,-1
 239 1480 l 1,0,-1
EndSplineSet
Validated: 1
EndChar

StartChar: X
Encoding: 88 88 59
Width: 1645
Flags: W
LayerCount: 2
Fore
SplineSet
369 1477 m 1,0,1
 401 1473 401 1473 431 1471 c 128,-1,2
 461 1469 461 1469 493 1467 c 0,3,4
 508 1466 508 1466 530.5 1465 c 128,-1,5
 553 1464 553 1464 567 1462 c 1,6,7
 608 1387 608 1387 646.5 1314 c 128,-1,8
 685 1241 685 1241 722 1168.5 c 128,-1,9
 759 1096 759 1096 795.5 1022 c 128,-1,10
 832 948 832 948 870 871 c 1,11,12
 970 1020 970 1020 1073.5 1170.5 c 128,-1,13
 1177 1321 1177 1321 1284 1466 c 1,14,15
 1316 1468 1316 1468 1351.5 1470.5 c 128,-1,16
 1387 1473 1387 1473 1419 1476 c 2,17,-1
 1522 1483 l 1,18,19
 1384 1296 1384 1296 1248.5 1094 c 128,-1,20
 1113 892 1113 892 987 698 c 1,21,22
 1037 614 1037 614 1091.5 525.5 c 128,-1,23
 1146 437 1146 437 1202 348 c 128,-1,24
 1258 259 1258 259 1314.5 172.5 c 128,-1,25
 1371 86 1371 86 1426 6 c 1,26,27
 1390 10 1390 10 1345.5 13.5 c 128,-1,28
 1301 17 1301 17 1255 20.5 c 128,-1,29
 1209 24 1209 24 1164.5 27 c 128,-1,30
 1120 30 1120 30 1083 32 c 1,31,32
 1048 95 1048 95 1015.5 156 c 128,-1,33
 983 217 983 217 952 277.5 c 128,-1,34
 921 338 921 338 890 400 c 128,-1,35
 859 462 859 462 828 528 c 1,36,37
 745 402 745 402 658.5 276.5 c 128,-1,38
 572 151 572 151 484 30 c 1,39,40
 448 28 448 28 402 25.5 c 128,-1,41
 356 23 356 23 308.5 19.5 c 128,-1,42
 261 16 261 16 215.5 12.5 c 128,-1,43
 170 9 170 9 133 5 c 1,44,45
 204 87 204 87 278 174.5 c 128,-1,46
 352 262 352 262 425.5 351.5 c 128,-1,47
 499 441 499 441 571.5 529.5 c 128,-1,48
 644 618 644 618 713 703 c 1,49,50
 708 714 708 714 703 724.5 c 128,-1,51
 698 735 698 735 694 746 c 0,52,53
 612 923 612 923 526.5 1100.5 c 128,-1,54
 441 1278 441 1278 350 1449 c 1,55,-1
 369 1477 l 1,0,1
EndSplineSet
Validated: 1
EndChar

StartChar: Y
Encoding: 89 89 60
Width: 1384
Flags: W
LayerCount: 2
Fore
SplineSet
72 1484 m 1,0,1
 120 1478 120 1478 171.5 1473.5 c 128,-1,2
 223 1469 223 1469 270 1465 c 1,3,4
 316 1375 316 1375 359 1287 c 128,-1,5
 402 1199 402 1199 443 1111 c 128,-1,6
 484 1023 484 1023 524 933.5 c 128,-1,7
 564 844 564 844 605 751 c 1,8,9
 716 931 716 931 830.5 1112.5 c 128,-1,10
 945 1294 945 1294 1065 1468 c 1,11,12
 1103 1470 1103 1470 1144.5 1473 c 128,-1,13
 1186 1476 1186 1476 1224 1480 c 2,14,-1
 1303 1487 l 1,15,16
 1238 1392 1238 1392 1173.5 1290.5 c 128,-1,17
 1109 1189 1109 1189 1046 1085 c 128,-1,18
 983 981 983 981 921.5 877 c 128,-1,19
 860 773 860 773 803 674 c 0,20,21
 781 636 781 636 759 599 c 128,-1,22
 737 562 737 562 716 524 c 1,23,24
 705 405 705 405 697 279 c 128,-1,25
 689 153 689 153 682 35 c 1,26,27
 656 36 656 36 620 36.5 c 128,-1,28
 584 37 584 37 558 37 c 2,29,-1
 488 37 l 2,30,31
 479 37 479 37 467 37 c 128,-1,32
 455 37 455 37 442 36.5 c 128,-1,33
 429 36 429 36 416.5 36 c 128,-1,34
 404 36 404 36 395 36 c 1,35,36
 407 155 407 155 420 280 c 128,-1,37
 433 405 433 405 444 524 c 1,38,39
 351 759 351 759 256.5 992.5 c 128,-1,40
 162 1226 162 1226 53 1456 c 1,41,-1
 72 1484 l 1,0,1
EndSplineSet
Validated: 1
EndChar

StartChar: Z
Encoding: 90 90 61
Width: 1642
Flags: W
LayerCount: 2
Fore
SplineSet
324 1481 m 1,0,1
 460 1467 460 1467 595 1461 c 128,-1,2
 730 1455 730 1455 867 1455 c 0,3,4
 1151 1455 1151 1455 1471 1485 c 1,5,6
 1469 1476 1469 1476 1467 1463.5 c 128,-1,7
 1465 1451 1465 1451 1462 1438 c 128,-1,8
 1459 1425 1459 1425 1456.5 1412.5 c 128,-1,9
 1454 1400 1454 1400 1453 1391 c 2,10,-1
 1439 1316 l 1,11,12
 1314 1188 1314 1188 1188 1060 c 128,-1,13
 1062 932 1062 932 937 804 c 0,14,15
 875 741 875 741 818.5 683 c 128,-1,16
 762 625 762 625 706.5 568.5 c 128,-1,17
 651 512 651 512 594.5 454.5 c 128,-1,18
 538 397 538 397 475 334 c 1,19,20
 556 336 556 336 638 337.5 c 128,-1,21
 720 339 720 339 801 339 c 0,22,23
 938 339 938 339 1082 334.5 c 128,-1,24
 1226 330 1226 330 1361 321 c 1,25,26
 1360 297 1360 297 1359.5 263.5 c 128,-1,27
 1359 230 1359 230 1359 205 c 0,28,29
 1359 161 1359 161 1360 106.5 c 128,-1,30
 1361 52 1361 52 1363 8 c 1,31,32
 1208 22 1208 22 1058 29.5 c 128,-1,33
 908 37 908 37 762 37 c 0,34,35
 475 37 475 37 150 7 c 1,36,37
 157 40 157 40 164 77.5 c 128,-1,38
 171 115 171 115 178 154 c 128,-1,39
 185 193 185 193 191.5 231 c 128,-1,40
 198 269 198 269 203 302 c 1,41,42
 325 429 325 429 442.5 551 c 128,-1,43
 560 673 560 673 678 793.5 c 128,-1,44
 796 914 796 914 915.5 1034.5 c 128,-1,45
 1035 1155 1035 1155 1160 1280 c 1,46,47
 1004 1274 1004 1274 849 1274 c 0,48,49
 717 1274 717 1274 581.5 1279 c 128,-1,50
 446 1284 446 1284 303 1297 c 1,51,-1
 303 1462 l 1,52,-1
 324 1481 l 1,0,1
EndSplineSet
Validated: 1
EndChar

StartChar: bracketleft
Encoding: 91 91 62
Width: 786
Flags: W
LayerCount: 2
Fore
SplineSet
437 1542 m 1,0,1
 478 1524 478 1524 523.5 1515.5 c 128,-1,2
 569 1507 569 1507 616 1507 c 0,3,4
 667 1507 667 1507 724.5 1519 c 128,-1,5
 782 1531 782 1531 844 1553 c 1,6,-1
 837 1481 l 1,7,-1
 826 1389 l 1,8,9
 769 1369 769 1369 714.5 1361 c 128,-1,10
 660 1353 660 1353 608 1353 c 0,11,12
 600 1353 600 1353 600.5 1352.5 c 128,-1,13
 601 1352 601 1352 593 1353 c 1,14,15
 566 1015 566 1015 537 681.5 c 128,-1,16
 508 348 508 348 477 9 c 1,17,-1
 491 9 l 2,18,19
 540 9 540 9 592.5 3 c 128,-1,20
 645 -3 645 -3 701 -21 c 1,21,22
 699 -54 699 -54 696.5 -95 c 128,-1,23
 694 -136 694 -136 692 -168 c 2,24,-1
 687 -262 l 1,25,26
 573 -220 573 -220 477 -220 c 0,27,28
 375 -220 375 -220 252 -262 c 1,29,30
 303 180 303 180 343 632 c 128,-1,31
 383 1084 383 1084 409 1526 c 1,32,-1
 437 1542 l 1,0,1
EndSplineSet
Validated: 1
EndChar

StartChar: backslash
Encoding: 92 92 63
Width: 649
Flags: W
LayerCount: 2
Fore
SplineSet
176 1435 m 1,0,1
 215 1243 215 1243 250.5 1051.5 c 128,-1,2
 286 860 286 860 321 667 c 0,3,4
 339 566 339 566 359.5 454.5 c 128,-1,5
 380 343 380 343 401 230 c 128,-1,6
 422 117 422 117 444 6.5 c 128,-1,7
 466 -104 466 -104 487 -204 c 1,8,-1
 440 -195 l 1,9,10
 399 -184 399 -184 357 -175.5 c 128,-1,11
 315 -167 315 -167 264 -163 c 1,12,13
 229 31 229 31 197 231.5 c 128,-1,14
 165 432 165 432 134 627 c 0,15,16
 117 731 117 731 99.5 840.5 c 128,-1,17
 82 950 82 950 64 1060 c 128,-1,18
 46 1170 46 1170 27.5 1279 c 128,-1,19
 9 1388 9 1388 -10 1492 c 1,20,21
 43 1473 43 1473 83.5 1464.5 c 128,-1,22
 124 1456 124 1456 159 1451 c 1,23,-1
 176 1435 l 1,0,1
EndSplineSet
Validated: 1
EndChar

StartChar: bracketright
Encoding: 93 93 64
Width: 780
Flags: W
LayerCount: 2
Fore
SplineSet
652 1523 m 1,0,1
 601 1081 601 1081 561 631 c 128,-1,2
 521 181 521 181 496 -261 c 1,3,4
 384 -220 384 -220 287 -220 c 0,5,6
 187 -220 187 -220 63 -262 c 1,7,-1
 77 -137 l 1,8,-1
 88 -30 l 1,9,10
 203 0 203 0 304 0 c 2,11,-1
 316 0 l 1,12,13
 331 173 331 173 345.5 341 c 128,-1,14
 360 509 360 509 374.5 676.5 c 128,-1,15
 389 844 389 844 404.5 1012 c 128,-1,16
 420 1180 420 1180 436 1353 c 1,17,-1
 418 1353 l 2,18,19
 367 1353 367 1353 315 1360.5 c 128,-1,20
 263 1368 263 1368 211 1391 c 1,21,22
 212 1406 212 1406 213 1428 c 128,-1,23
 214 1450 214 1450 216 1465 c 1,24,-1
 221 1554 l 1,25,26
 276 1530 276 1530 327.5 1518.5 c 128,-1,27
 379 1507 379 1507 426 1507 c 0,28,29
 477 1507 477 1507 527.5 1516.5 c 128,-1,30
 578 1526 578 1526 626 1543 c 1,31,-1
 652 1523 l 1,0,1
EndSplineSet
Validated: 1
EndChar

StartChar: asciicircum
Encoding: 94 94 65
Width: 1419
Flags: W
LayerCount: 2
Fore
SplineSet
804 1473 m 1,0,1
 836 1438 836 1438 870 1398.5 c 128,-1,2
 904 1359 904 1359 936 1322 c 0,3,4
 977 1274 977 1274 1019.5 1225.5 c 128,-1,5
 1062 1177 1062 1177 1110 1127 c 128,-1,6
 1158 1077 1158 1077 1214 1025 c 128,-1,7
 1270 973 1270 973 1338 918 c 1,8,9
 1304 919 1304 919 1259.5 921 c 128,-1,10
 1215 923 1215 923 1168 924.5 c 128,-1,11
 1121 926 1121 926 1075.5 927 c 128,-1,12
 1030 928 1030 928 996 929 c 1,13,14
 930 1004 930 1004 879.5 1083 c 128,-1,15
 829 1162 829 1162 780 1243 c 0,16,17
 770 1259 770 1259 762.5 1271.5 c 128,-1,18
 755 1284 755 1284 747.5 1296 c 128,-1,19
 740 1308 740 1308 732 1321 c 128,-1,20
 724 1334 724 1334 714 1350 c 1,21,22
 689 1320 689 1320 666 1291 c 128,-1,23
 643 1262 643 1262 619 1231 c 0,24,25
 559 1155 559 1155 496.5 1079 c 128,-1,26
 434 1003 434 1003 359 928 c 1,27,28
 325 928 325 928 280 927 c 128,-1,29
 235 926 235 926 187.5 924.5 c 128,-1,30
 140 923 140 923 95 921.5 c 128,-1,31
 50 920 50 920 16 919 c 1,32,33
 88 973 88 973 150 1023 c 128,-1,34
 212 1073 212 1073 266.5 1121 c 128,-1,35
 321 1169 321 1169 370 1215 c 128,-1,36
 419 1261 419 1261 466 1306 c 0,37,38
 507 1345 507 1345 554 1390 c 128,-1,39
 601 1435 601 1435 644 1473 c 1,40,-1
 804 1473 l 1,0,1
EndSplineSet
Validated: 1
EndChar

StartChar: underscore
Encoding: 95 95 66
Width: 1614
Flags: W
LayerCount: 2
Fore
SplineSet
1319 -300 m 1,0,1
 1303 -314 1303 -314 1294 -334.5 c 128,-1,2
 1285 -355 1285 -355 1285 -375 c 0,3,4
 1285 -390 1285 -390 1299 -412 c 128,-1,5
 1313 -434 1313 -434 1343 -462 c 1,6,7
 1280 -461 1280 -461 1208.5 -460.5 c 128,-1,8
 1137 -460 1137 -460 1063.5 -459.5 c 128,-1,9
 990 -459 990 -459 918.5 -458.5 c 128,-1,10
 847 -458 847 -458 784 -458 c 0,11,12
 720 -458 720 -458 648.5 -458.5 c 128,-1,13
 577 -459 577 -459 504 -459.5 c 128,-1,14
 431 -460 431 -460 359.5 -460.5 c 128,-1,15
 288 -461 288 -461 225 -462 c 1,16,17
 295 -397 295 -397 295 -354 c 0,18,19
 295 -321 295 -321 245 -265 c 1,20,21
 305 -266 305 -266 372 -267 c 128,-1,22
 439 -268 439 -268 507 -268.5 c 128,-1,23
 575 -269 575 -269 642 -269.5 c 128,-1,24
 709 -270 709 -270 769 -270 c 0,25,26
 904 -270 904 -270 1037.5 -269 c 128,-1,27
 1171 -268 1171 -268 1306 -266 c 1,28,-1
 1319 -300 l 1,0,1
EndSplineSet
Validated: 1
EndChar

StartChar: grave
Encoding: 96 96 67
Width: 578
Flags: W
LayerCount: 2
Fore
SplineSet
258 1610 m 1,0,1
 282 1576 282 1576 304.5 1540.5 c 128,-1,2
 327 1505 327 1505 350 1470 c 0,3,4
 384 1417 384 1417 422 1361 c 128,-1,5
 460 1305 460 1305 516 1238 c 1,6,7
 490 1239 490 1239 457 1241 c 128,-1,8
 424 1243 424 1243 390 1244 c 128,-1,9
 356 1245 356 1245 323.5 1246 c 128,-1,10
 291 1247 291 1247 265 1247 c 2,11,-1
 221 1247 l 1,12,13
 207 1276 207 1276 192 1311 c 128,-1,14
 177 1346 177 1346 163 1375 c 1,15,16
 151 1403 151 1403 138.5 1431 c 128,-1,17
 126 1459 126 1459 111.5 1489 c 128,-1,18
 97 1519 97 1519 79 1553 c 128,-1,19
 61 1587 61 1587 37 1627 c 1,20,21
 58 1625 58 1625 84.5 1623.5 c 128,-1,22
 111 1622 111 1622 139 1620.5 c 128,-1,23
 167 1619 167 1619 194 1618 c 128,-1,24
 221 1617 221 1617 242 1617 c 1,25,-1
 258 1610 l 1,0,1
EndSplineSet
Validated: 1
EndChar

StartChar: a
Encoding: 97 97 68
Width: 1360
Flags: W
LayerCount: 2
Fore
SplineSet
649 561 m 2,0,1
 643 561 643 561 637 560.5 c 128,-1,2
 631 560 631 560 624 560 c 0,3,4
 596 559 596 559 567.5 558 c 128,-1,5
 539 557 539 557 511 552.5 c 128,-1,6
 483 548 483 548 456 540 c 128,-1,7
 429 532 429 532 405 518 c 1,8,-1
 406 518 l 1,9,10
 372 495 372 495 354.5 457.5 c 128,-1,11
 337 420 337 420 333 381 c 1,12,13
 334 352 334 352 347 327.5 c 128,-1,14
 360 303 360 303 387 297 c 0,15,16
 454 283 454 283 524 283 c 0,17,18
 548 283 548 283 573.5 284.5 c 128,-1,19
 599 286 599 286 624 290.5 c 128,-1,20
 649 295 649 295 673 303.5 c 128,-1,21
 697 312 697 312 718 326 c 1,22,23
 753 362 753 362 764.5 411 c 128,-1,24
 776 460 776 460 781 510 c 1,25,-1
 784 534 l 2,26,27
 785 543 785 543 785.5 546.5 c 128,-1,28
 786 550 786 550 787 561 c 1,29,-1
 649 561 l 2,0,1
1074 633 m 0,30,31
 1060 502 1060 502 1052.5 373.5 c 128,-1,32
 1045 245 1045 245 1045 116 c 0,33,34
 1045 94 1045 94 1045.5 61.5 c 128,-1,35
 1046 29 1046 29 1047 7 c 1,36,37
 1028 9 1028 9 1002 11.5 c 128,-1,38
 976 14 976 14 949 16 c 128,-1,39
 922 18 922 18 896 19.5 c 128,-1,40
 870 21 870 21 851 22 c 1,41,-1
 853 98 l 2,42,43
 853 112 853 112 853 117 c 128,-1,44
 853 122 853 122 853 125 c 128,-1,45
 853 128 853 128 853 133 c 128,-1,46
 853 138 853 138 854 153 c 1,47,48
 816 111 816 111 771 82 c 128,-1,49
 726 53 726 53 676.5 35 c 128,-1,50
 627 17 627 17 574.5 9.5 c 128,-1,51
 522 2 522 2 470 2 c 0,52,53
 403 2 403 2 339.5 19.5 c 128,-1,54
 276 37 276 37 229 84 c 1,55,56
 194 122 194 122 179 172.5 c 128,-1,57
 164 223 164 223 164 276 c 0,58,59
 164 325 164 325 174.5 379 c 128,-1,60
 185 433 185 433 208 482.5 c 128,-1,61
 231 532 231 532 267.5 574 c 128,-1,62
 304 616 304 616 357 642 c 0,63,64
 437 681 437 681 514.5 693.5 c 128,-1,65
 592 706 592 706 669 706 c 0,66,67
 730 706 730 706 781.5 706 c 128,-1,68
 833 706 833 706 894 707 c 1,69,-1
 894 714 l 2,70,71
 894 718 894 718 894.5 722.5 c 128,-1,72
 895 727 895 727 895 731 c 0,73,74
 896 738 896 738 896.5 745 c 128,-1,75
 897 752 897 752 897 759 c 0,76,77
 897 795 897 795 885.5 831 c 128,-1,78
 874 867 874 867 850 893 c 1,79,80
 804 929 804 929 748 945.5 c 128,-1,81
 692 962 692 962 638 967 c 1,82,83
 555 967 555 967 466 947.5 c 128,-1,84
 377 928 377 928 285 885 c 1,85,86
 285 891 285 891 285.5 902.5 c 128,-1,87
 286 914 286 914 286.5 926 c 128,-1,88
 287 938 287 938 287.5 949.5 c 128,-1,89
 288 961 288 961 288 967 c 0,90,91
 288 987 288 987 289 1007.5 c 128,-1,92
 290 1028 290 1028 292 1050 c 1,93,94
 387 1079 387 1079 481.5 1096.5 c 128,-1,95
 576 1114 576 1114 667 1114 c 0,96,97
 710 1114 710 1114 755 1110 c 128,-1,98
 800 1106 800 1106 842 1095 c 128,-1,99
 884 1084 884 1084 922.5 1064 c 128,-1,100
 961 1044 961 1044 993 1013 c 1,101,102
 1044 953 1044 953 1062 883 c 128,-1,103
 1080 813 1080 813 1080 741 c 0,104,105
 1080 713 1080 713 1078 686 c 128,-1,106
 1076 659 1076 659 1074 633 c 0,30,31
EndSplineSet
Validated: 1
EndChar

StartChar: b
Encoding: 98 98 69
Width: 1309
Flags: W
LayerCount: 2
Fore
SplineSet
1123 624 m 2,0,1
 1123 630 1123 630 1123.5 636 c 128,-1,2
 1124 642 1124 642 1124 648 c 0,3,4
 1124 706 1124 706 1115 765.5 c 128,-1,5
 1106 825 1106 825 1081.5 872 c 128,-1,6
 1057 919 1057 919 1015 949 c 128,-1,7
 973 979 973 979 907 979 c 0,8,9
 846 979 846 979 787.5 954.5 c 128,-1,10
 729 930 729 930 688 880 c 1,11,12
 641 818 641 818 618.5 741.5 c 128,-1,13
 596 665 596 665 588 592 c 1,14,15
 590 544 590 544 601.5 493.5 c 128,-1,16
 613 443 613 443 640 405 c 1,17,18
 659 386 659 386 683.5 372.5 c 128,-1,19
 708 359 708 359 734 350.5 c 128,-1,20
 760 342 760 342 786.5 338 c 128,-1,21
 813 334 813 334 838 334 c 1,22,23
 886 337 886 337 933 350.5 c 128,-1,24
 980 364 980 364 1022 393 c 1,25,-1
 1020 391 l 1,26,27
 1044 410 1044 410 1061 435.5 c 128,-1,28
 1078 461 1078 461 1090 489 c 128,-1,29
 1102 517 1102 517 1110 546.5 c 128,-1,30
 1118 576 1118 576 1124 605 c 1,31,-1
 1123 601 l 1,32,-1
 1123 624 l 2,0,1
588 1509 m 1,33,34
 579 1378 579 1378 567.5 1240 c 128,-1,35
 556 1102 556 1102 542 969 c 1,36,37
 569 1005 569 1005 604.5 1033.5 c 128,-1,38
 640 1062 640 1062 680.5 1081 c 128,-1,39
 721 1100 721 1100 764.5 1110 c 128,-1,40
 808 1120 808 1120 852 1120 c 2,41,-1
 882 1120 l 2,42,43
 979 1120 979 1120 1048.5 1079 c 128,-1,44
 1118 1038 1118 1038 1163 971 c 128,-1,45
 1208 904 1208 904 1229 818.5 c 128,-1,46
 1250 733 1250 733 1250 645 c 0,47,48
 1250 585 1250 585 1244 520.5 c 128,-1,49
 1238 456 1238 456 1222 391.5 c 128,-1,50
 1206 327 1206 327 1178 266 c 128,-1,51
 1150 205 1150 205 1106 153 c 0,52,53
 1046 82 1046 82 963 45.5 c 128,-1,54
 880 9 880 9 792 10 c 1,55,-1
 777 10 l 2,56,57
 775 10 775 10 772.5 9.5 c 128,-1,58
 770 9 770 9 768 9 c 2,59,-1
 759 9 l 2,60,61
 714 9 714 9 671 20 c 128,-1,62
 628 31 628 31 589 51 c 128,-1,63
 550 71 550 71 517 100.5 c 128,-1,64
 484 130 484 130 460 166 c 1,65,66
 455 131 455 131 450.5 94.5 c 128,-1,67
 446 58 446 58 441 26 c 1,68,69
 421 24 421 24 394.5 22 c 128,-1,70
 368 20 368 20 340 17 c 128,-1,71
 312 14 312 14 286 11.5 c 128,-1,72
 260 9 260 9 240 6 c 1,73,74
 310 392 310 392 347.5 772.5 c 128,-1,75
 385 1153 385 1153 393 1533 c 1,76,77
 407 1530 407 1530 424.5 1527.5 c 128,-1,78
 442 1525 442 1525 460 1523 c 128,-1,79
 478 1521 478 1521 495 1518.5 c 128,-1,80
 512 1516 512 1516 527 1515 c 0,81,82
 533 1515 533 1515 541 1514 c 128,-1,83
 549 1513 549 1513 558 1512.5 c 128,-1,84
 567 1512 567 1512 575 1511 c 128,-1,85
 583 1510 583 1510 588 1509 c 1,33,34
EndSplineSet
Validated: 33
EndChar

StartChar: c
Encoding: 99 99 70
Width: 1284
Flags: W
LayerCount: 2
Fore
SplineSet
1008 1049 m 1,0,-1
 1034 1053 l 1,1,2
 1028 1025 1028 1025 1023.5 999 c 128,-1,3
 1019 973 1019 973 1014 945 c 1,4,-1
 1014 946 l 1,5,-1
 1006 886 l 1,6,7
 936 921 936 921 865 939.5 c 128,-1,8
 794 958 794 958 727 958 c 0,9,10
 691 958 691 958 653.5 952.5 c 128,-1,11
 616 947 616 947 580.5 934 c 128,-1,12
 545 921 545 921 513 900.5 c 128,-1,13
 481 880 481 880 456 850 c 1,14,15
 430 821 430 821 412 785 c 128,-1,16
 394 749 394 749 381.5 710 c 128,-1,17
 369 671 369 671 361.5 631.5 c 128,-1,18
 354 592 354 592 350 555 c 1,19,20
 350 529 350 529 353.5 503.5 c 128,-1,21
 357 478 357 478 364.5 455 c 128,-1,22
 372 432 372 432 384.5 411.5 c 128,-1,23
 397 391 397 391 416 376 c 1,24,-1
 415 376 l 1,25,26
 463 344 463 344 523 333 c 128,-1,27
 583 322 583 322 645 317 c 1,28,-1
 644 317 l 1,29,-1
 790 314 l 1,30,-1
 802 314 l 2,31,32
 831 314 831 314 869.5 324.5 c 128,-1,33
 908 335 908 335 950 355 c 1,34,35
 949 335 949 335 948 311 c 128,-1,36
 947 287 947 287 946 261.5 c 128,-1,37
 945 236 945 236 944.5 211.5 c 128,-1,38
 944 187 944 187 944 168 c 0,39,40
 944 142 944 142 944.5 111 c 128,-1,41
 945 80 945 80 946 54 c 1,42,43
 868 25 868 25 792.5 13 c 128,-1,44
 717 1 717 1 645 1 c 0,45,46
 590 1 590 1 533 7 c 128,-1,47
 476 13 476 13 422 29.5 c 128,-1,48
 368 46 368 46 320.5 75 c 128,-1,49
 273 104 273 104 237 149 c 1,50,-1
 238 148 l 1,51,52
 210 181 210 181 192 219 c 128,-1,53
 174 257 174 257 163 298 c 128,-1,54
 152 339 152 339 147.5 382 c 128,-1,55
 143 425 143 425 143 469 c 0,56,57
 143 527 143 527 150.5 594.5 c 128,-1,58
 158 662 158 662 176.5 729 c 128,-1,59
 195 796 195 796 227.5 858 c 128,-1,60
 260 920 260 920 310 969 c 1,61,62
 355 1011 355 1011 409.5 1039 c 128,-1,63
 464 1067 464 1067 521.5 1084 c 128,-1,64
 579 1101 579 1101 638 1108.5 c 128,-1,65
 697 1116 697 1116 753 1116 c 0,66,67
 896 1116 896 1116 1025 1068 c 1,68,-1
 1008 1049 l 1,0,-1
EndSplineSet
Validated: 1
EndChar

StartChar: d
Encoding: 100 100 71
Width: 1196
Flags: HW
LayerCount: 2
Fore
SplineSet
528 1120 m 2,0,1
 618 1120 618 1120 696 1080.5 c 128,-1,2
 774 1041 774 1041 818 965 c 1,3,4
 835 1101 835 1101 858 1240.5 c 128,-1,5
 881 1380 881 1380 905 1513 c 1,6,7
 943 1516 943 1516 986.5 1520.5 c 128,-1,8
 1030 1525 1030 1525 1068 1530 c 0,9,10
 1071 1530 1071 1530 1082 1532.5 c 128,-1,11
 1093 1535 1093 1535 1107 1539 c 1,12,13
 1036 1153 1036 1153 995.5 771.5 c 128,-1,14
 955 390 955 390 949 9 c 1,15,16
 921 13 921 13 883.5 17 c 128,-1,17
 846 21 846 21 817 23 c 2,18,-1
 754 28 l 1,19,20
 754 39 754 39 754.5 60 c 128,-1,21
 755 81 755 81 755 93 c 0,22,23
 755 110 755 110 755 117 c 128,-1,24
 755 124 755 124 755 128.5 c 128,-1,25
 755 133 755 133 755.5 140 c 128,-1,26
 756 147 756 147 757 164 c 1,27,28
 727 128 727 128 689.5 99 c 128,-1,29
 652 70 652 70 610 50.5 c 128,-1,30
 568 31 568 31 523 20.5 c 128,-1,31
 478 10 478 10 432 10 c 2,32,-1
 417 10 l 2,33,34
 415 10 415 10 412.5 9.5 c 128,-1,35
 410 9 410 9 408 9 c 2,36,-1
 398 9 l 2,37,38
 310 9 310 9 233 45.5 c 128,-1,39
 156 82 156 82 109 153 c 0,40,41
 66 219 66 219 49.5 293.5 c 128,-1,42
 33 368 33 368 33 447 c 0,43,44
 33 508 33 508 40.5 577 c 128,-1,45
 48 646 48 646 66 715.5 c 128,-1,46
 84 785 84 785 115 850.5 c 128,-1,47
 146 916 146 916 193 972 c 1,48,-1
 192 971 l 1,49,50
 220 1007 220 1007 256 1034.5 c 128,-1,51
 292 1062 292 1062 332 1081 c 128,-1,52
 372 1100 372 1100 415 1110 c 128,-1,53
 458 1120 458 1120 500 1120 c 2,54,-1
 528 1120 l 2,0,1
178 578 m 1,55,56
 179 553 179 553 182.5 527.5 c 128,-1,57
 186 502 186 502 192.5 478 c 128,-1,58
 199 454 199 454 210.5 432.5 c 128,-1,59
 222 411 222 411 239 393 c 1,60,-1
 238 393 l 1,61,62
 256 376 256 376 277.5 365.5 c 128,-1,63
 299 355 299 355 323 350 c 128,-1,64
 347 345 347 345 372.5 343 c 128,-1,65
 398 341 398 341 423 341 c 0,66,67
 474 343 474 343 526.5 350.5 c 128,-1,68
 579 358 579 358 624 387 c 1,69,-1
 623 386 l 1,70,71
 653 408 653 408 670 442.5 c 128,-1,72
 687 477 687 477 696 515 c 128,-1,73
 705 553 705 553 707 590 c 128,-1,74
 709 627 709 627 709 654 c 0,75,76
 709 693 709 693 705 732 c 128,-1,77
 701 771 701 771 693 809 c 256,78,79
 685 847 685 847 667 878 c 128,-1,80
 649 909 649 909 624 931 c 128,-1,81
 599 953 599 953 568 964.5 c 128,-1,82
 537 976 537 976 502 976 c 2,83,-1
 478 976 l 2,84,85
 428 976 428 976 388 958.5 c 128,-1,86
 348 941 348 941 316.5 911 c 128,-1,87
 285 881 285 881 261.5 841.5 c 128,-1,88
 238 802 238 802 221 757.5 c 128,-1,89
 204 713 204 713 193.5 667 c 128,-1,90
 183 621 183 621 178 578 c 1,55,56
EndSplineSet
Validated: 1
EndChar

StartChar: e
Encoding: 101 101 72
Width: 1378
Flags: W
LayerCount: 2
Fore
SplineSet
1116 669 m 1,0,1
 1115 659 1115 659 1114.5 650.5 c 128,-1,2
 1114 642 1114 642 1113 634 c 1,3,-1
 1113 635 l 1,4,-1
 1108 595 l 1,5,6
 987 593 987 593 859.5 592.5 c 128,-1,7
 732 592 732 592 611 592 c 0,8,9
 576 592 576 592 541.5 592.5 c 128,-1,10
 507 593 507 593 472 593 c 2,11,-1
 352 593 l 1,12,-1
 352 588 l 1,13,14
 351 574 351 574 350.5 562 c 128,-1,15
 350 550 350 550 350 537 c 0,16,17
 350 508 350 508 353 479.5 c 128,-1,18
 356 451 356 451 363.5 425.5 c 128,-1,19
 371 400 371 400 384.5 378 c 128,-1,20
 398 356 398 356 420 340 c 1,21,-1
 420 341 l 1,22,23
 481 303 481 303 556.5 289.5 c 128,-1,24
 632 276 632 276 704 276 c 2,25,-1
 722 276 l 2,26,27
 761 276 761 276 801 277 c 128,-1,28
 841 278 841 278 882.5 283.5 c 128,-1,29
 924 289 924 289 967 301 c 128,-1,30
 1010 313 1010 313 1056 335 c 1,31,32
 1056 321 1056 321 1055.5 302.5 c 128,-1,33
 1055 284 1055 284 1054.5 264.5 c 128,-1,34
 1054 245 1054 245 1054 226.5 c 128,-1,35
 1054 208 1054 208 1054 194 c 0,36,37
 1054 166 1054 166 1054.5 132 c 128,-1,38
 1055 98 1055 98 1057 70 c 1,39,40
 953 35 953 35 850.5 19 c 128,-1,41
 748 3 748 3 648 3 c 1,42,43
 597 7 597 7 542.5 16.5 c 128,-1,44
 488 26 488 26 436.5 43.5 c 128,-1,45
 385 61 385 61 337.5 87.5 c 128,-1,46
 290 114 290 114 253 150 c 1,47,48
 225 182 225 182 206 220.5 c 128,-1,49
 187 259 187 259 175 300.5 c 128,-1,50
 163 342 163 342 157.5 385.5 c 128,-1,51
 152 429 152 429 152 472 c 0,52,53
 152 530 152 530 161 596 c 128,-1,54
 170 662 170 662 190 728 c 128,-1,55
 210 794 210 794 242 855.5 c 128,-1,56
 274 917 274 917 319 966 c 1,57,58
 358 1006 358 1006 405 1034 c 128,-1,59
 452 1062 452 1062 503.5 1079.5 c 128,-1,60
 555 1097 555 1097 608.5 1105 c 128,-1,61
 662 1113 662 1113 713 1114 c 1,62,63
 755 1112 755 1112 798.5 1106 c 128,-1,64
 842 1100 842 1100 883 1088 c 128,-1,65
 924 1076 924 1076 962 1056.5 c 128,-1,66
 1000 1037 1000 1037 1031 1006 c 1,67,68
 1058 976 1058 976 1074.5 941.5 c 128,-1,69
 1091 907 1091 907 1100.5 869.5 c 128,-1,70
 1110 832 1110 832 1113 792.5 c 128,-1,71
 1116 753 1116 753 1116 714 c 0,72,73
 1116 709 1116 709 1115.5 703.5 c 128,-1,74
 1115 698 1115 698 1115 692 c 2,75,-1
 1115 670 l 1,76,-1
 1083 683 l 1,77,-1
 1116 669 l 1,0,1
960 743 m 1,78,79
 960 748 960 748 959.5 753 c 128,-1,80
 959 758 959 758 958 763 c 1,81,-1
 979 763 l 1,82,-1
 960 743 l 1,78,79
575 760 m 0,83,84
 767 760 767 760 958 763 c 1,85,86
 953 813 953 813 933.5 857 c 128,-1,87
 914 901 914 901 881 933.5 c 128,-1,88
 848 966 848 966 804 984.5 c 128,-1,89
 760 1003 760 1003 706 1003 c 0,90,91
 644 1003 644 1003 582.5 984.5 c 128,-1,92
 521 966 521 966 474 921 c 1,93,94
 437 889 437 889 413.5 847.5 c 128,-1,95
 390 806 390 806 383 761 c 1,96,97
 433 759 433 759 478.5 759.5 c 128,-1,98
 524 760 524 760 575 760 c 0,83,84
EndSplineSet
Validated: 37
EndChar

StartChar: f
Encoding: 102 102 73
Width: 774
Flags: W
LayerCount: 2
Fore
SplineSet
722 1469 m 1,0,1
 717 1437 717 1437 711.5 1396.5 c 128,-1,2
 706 1356 706 1356 702 1323 c 1,3,4
 688 1322 688 1322 665.5 1321.5 c 128,-1,5
 643 1321 643 1321 629 1321 c 0,6,7
 606 1321 606 1321 584 1321.5 c 128,-1,8
 562 1322 562 1322 539 1323 c 1,9,10
 515 1321 515 1321 492 1315.5 c 128,-1,11
 469 1310 469 1310 450 1294 c 1,12,13
 432 1270 432 1270 425 1237 c 128,-1,14
 418 1204 418 1204 414 1173 c 1,15,-1
 414 1175 l 2,16,17
 414 1150 414 1150 413.5 1134.5 c 128,-1,18
 413 1119 413 1119 414 1095 c 1,19,20
 542 1097 542 1097 686 1110 c 1,21,22
 684 1090 684 1090 681 1064.5 c 128,-1,23
 678 1039 678 1039 675 1012 c 128,-1,24
 672 985 672 985 669.5 959 c 128,-1,25
 667 933 667 933 665 914 c 1,26,27
 531 906 531 906 401 905 c 1,28,29
 387 691 387 691 375 470.5 c 128,-1,30
 363 250 363 250 355 36 c 1,31,32
 340 37 340 37 315.5 37.5 c 128,-1,33
 291 38 291 38 276 38 c 0,34,35
 195 38 195 38 75 26 c 1,36,37
 110 247 110 247 138 466.5 c 128,-1,38
 166 686 166 686 192 907 c 1,39,40
 157 908 157 908 116.5 910.5 c 128,-1,41
 76 913 76 913 43 915 c 1,42,-1
 48 986 l 2,43,44
 49 999 49 999 50.5 1015.5 c 128,-1,45
 52 1032 52 1032 53 1049 c 128,-1,46
 54 1066 54 1066 55 1082.5 c 128,-1,47
 56 1099 56 1099 57 1112 c 1,48,49
 102 1106 102 1106 140.5 1102.5 c 128,-1,50
 179 1099 179 1099 209 1097 c 1,51,52
 212 1111 212 1111 214 1126.5 c 128,-1,53
 216 1142 216 1142 218 1160 c 0,54,55
 223 1191 223 1191 231 1225.5 c 128,-1,56
 239 1260 239 1260 252 1293 c 128,-1,57
 265 1326 265 1326 284 1356 c 128,-1,58
 303 1386 303 1386 330 1409 c 1,59,60
 380 1445 380 1445 437.5 1464.5 c 128,-1,61
 495 1484 495 1484 553 1488 c 1,62,63
 568 1487 568 1487 584 1487 c 128,-1,64
 600 1487 600 1487 615 1487 c 0,65,66
 636 1487 636 1487 657.5 1488 c 128,-1,67
 679 1489 679 1489 701 1491 c 1,68,-1
 722 1469 l 1,0,1
EndSplineSet
Validated: 1
EndChar

StartChar: g
Encoding: 103 103 74
Width: 1413
Flags: W
LayerCount: 2
Fore
SplineSet
834 576 m 1,0,1
 836 595 836 595 837 613 c 128,-1,2
 838 631 838 631 838 650 c 0,3,4
 838 728 838 728 819 785 c 128,-1,5
 800 842 800 842 766.5 879 c 128,-1,6
 733 916 733 916 686 934 c 128,-1,7
 639 952 639 952 582 952 c 256,8,9
 525 952 525 952 468 929 c 128,-1,10
 411 906 411 906 374 861 c 1,11,12
 351 831 351 831 335 796 c 128,-1,13
 319 761 319 761 308.5 724 c 128,-1,14
 298 687 298 687 292 649 c 128,-1,15
 286 611 286 611 283 575 c 0,16,17
 283 567 283 567 284 560 c 128,-1,18
 285 553 285 553 285 545 c 0,19,20
 286 519 286 519 288.5 492.5 c 128,-1,21
 291 466 291 466 296 441.5 c 128,-1,22
 301 417 301 417 310.5 395 c 128,-1,23
 320 373 320 373 336 355 c 1,24,25
 355 342 355 342 377.5 334.5 c 128,-1,26
 400 327 400 327 424 323.5 c 128,-1,27
 448 320 448 320 473 319 c 128,-1,28
 498 318 498 318 522 318 c 0,29,30
 575 318 575 318 630.5 327 c 128,-1,31
 686 336 686 336 736 356 c 1,32,33
 762 373 762 373 779.5 399 c 128,-1,34
 797 425 797 425 808 455 c 128,-1,35
 819 485 819 485 825 516.5 c 128,-1,36
 831 548 831 548 834 577 c 1,37,-1
 834 576 l 1,0,1
1043 117 m 2,38,39
 1036 61 1036 61 1027.5 4 c 128,-1,40
 1019 -53 1019 -53 1003 -108.5 c 128,-1,41
 987 -164 987 -164 961 -217 c 128,-1,42
 935 -270 935 -270 893 -316 c 1,43,44
 850 -358 850 -358 800 -382.5 c 128,-1,45
 750 -407 750 -407 696 -419.5 c 128,-1,46
 642 -432 642 -432 587 -435.5 c 128,-1,47
 532 -439 532 -439 480 -439 c 0,48,49
 404 -439 404 -439 325 -430.5 c 128,-1,50
 246 -422 246 -422 163 -399 c 1,51,52
 169 -363 169 -363 175 -319.5 c 128,-1,53
 181 -276 181 -276 187 -231 c 128,-1,54
 193 -186 193 -186 198 -143 c 128,-1,55
 203 -100 203 -100 208 -64 c 1,56,57
 283 -106 283 -106 357.5 -123 c 128,-1,58
 432 -140 432 -140 504 -140 c 1,59,60
 536 -139 536 -139 570 -135 c 128,-1,61
 604 -131 604 -131 636.5 -120.5 c 128,-1,62
 669 -110 669 -110 698.5 -93 c 128,-1,63
 728 -76 728 -76 751 -50 c 1,64,65
 789 -11 789 -11 816.5 32.5 c 128,-1,66
 844 76 844 76 858 125 c 1,67,68
 858 132 858 132 858.5 140.5 c 128,-1,69
 859 149 859 149 860 157 c 1,70,71
 795 88 795 88 711.5 54.5 c 128,-1,72
 628 21 628 21 531 21 c 0,73,74
 489 21 489 21 447.5 31 c 128,-1,75
 406 41 406 41 368.5 60 c 128,-1,76
 331 79 331 79 299 106.5 c 128,-1,77
 267 134 267 134 245 168 c 0,78,79
 198 239 198 239 180 326 c 128,-1,80
 162 413 162 413 162 499 c 0,81,82
 162 554 162 554 168 616.5 c 128,-1,83
 174 679 174 679 189.5 741 c 128,-1,84
 205 803 205 803 232 861.5 c 128,-1,85
 259 920 259 920 301 968 c 0,86,87
 331 1002 331 1002 368.5 1028 c 128,-1,88
 406 1054 406 1054 447 1071 c 128,-1,89
 488 1088 488 1088 532 1096.5 c 128,-1,90
 576 1105 576 1105 618 1105 c 2,91,-1
 648 1105 l 2,92,93
 694 1105 694 1105 738.5 1093.5 c 128,-1,94
 783 1082 783 1082 822.5 1061 c 128,-1,95
 862 1040 862 1040 896 1010.5 c 128,-1,96
 930 981 930 981 954 945 c 1,97,98
 956 955 956 955 959.5 966 c 128,-1,99
 963 977 963 977 965 986 c 2,100,-1
 992 1093 l 1,101,-1
 1057 1098 l 1,102,-1
 1056 1098 l 1,103,-1
 1191 1115 l 1,104,105
 1141 864 1141 864 1106.5 624 c 128,-1,106
 1072 384 1072 384 1048 153 c 1,107,-1
 1043 117 l 2,38,39
EndSplineSet
Validated: 1
EndChar

StartChar: h
Encoding: 104 104 75
Width: 1296
Flags: W
LayerCount: 2
Fore
SplineSet
1205 671 m 0,0,1
 1193 462 1193 462 1193 258 c 0,2,3
 1193 229 1193 229 1193.5 197 c 128,-1,4
 1194 165 1194 165 1194.5 132 c 128,-1,5
 1195 99 1195 99 1196 67 c 128,-1,6
 1197 35 1197 35 1198 7 c 1,7,8
 1174 10 1174 10 1143 13.5 c 128,-1,9
 1112 17 1112 17 1080 20 c 128,-1,10
 1048 23 1048 23 1017.5 26 c 128,-1,11
 987 29 987 29 962 31 c 1,12,13
 972 186 972 186 986.5 350 c 128,-1,14
 1001 514 1001 514 1017 670 c 0,15,16
 1019 684 1019 684 1019.5 700 c 128,-1,17
 1020 716 1020 716 1020 731 c 0,18,19
 1020 771 1020 771 1014 809.5 c 128,-1,20
 1008 848 1008 848 993 881 c 1,21,22
 965 926 965 926 920.5 948 c 128,-1,23
 876 970 876 970 828 970 c 0,24,25
 771 970 771 970 714 946 c 128,-1,26
 657 922 657 922 617 877 c 0,27,28
 573 826 573 826 548.5 761 c 128,-1,29
 524 696 524 696 519 630 c 0,30,31
 516 587 516 587 513 545 c 128,-1,32
 510 503 510 503 507 460 c 0,33,34
 499 356 499 356 490 245 c 128,-1,35
 481 134 481 134 469 30 c 1,36,37
 445 28 445 28 413.5 25 c 128,-1,38
 382 22 382 22 349.5 19 c 128,-1,39
 317 16 317 16 285.5 12.5 c 128,-1,40
 254 9 254 9 229 6 c 1,41,42
 303 389 303 389 345.5 768 c 128,-1,43
 388 1147 388 1147 402 1528 c 1,44,45
 422 1525 422 1525 448 1522.5 c 128,-1,46
 474 1520 474 1520 501 1517 c 128,-1,47
 528 1514 528 1514 554 1511.5 c 128,-1,48
 580 1509 580 1509 600 1508 c 1,49,50
 594 1434 594 1434 588.5 1367 c 128,-1,51
 583 1300 583 1300 577.5 1235 c 128,-1,52
 572 1170 572 1170 565 1103 c 128,-1,53
 558 1036 558 1036 549 961 c 1,54,55
 612 1033 612 1033 693.5 1076.5 c 128,-1,56
 775 1120 775 1120 869 1120 c 2,57,-1
 895 1120 l 2,58,59
 934 1120 934 1120 973 1112.5 c 128,-1,60
 1012 1105 1012 1105 1047.5 1088.5 c 128,-1,61
 1083 1072 1083 1072 1111.5 1046.5 c 128,-1,62
 1140 1021 1140 1021 1158 985 c 0,63,64
 1188 926 1188 926 1198 866.5 c 128,-1,65
 1208 807 1208 807 1208 750 c 0,66,67
 1208 710 1208 710 1205 671 c 0,0,1
EndSplineSet
Validated: 1
EndChar

StartChar: i
Encoding: 105 105 76
Width: 643
Flags: W
LayerCount: 2
Fore
SplineSet
342 1103 m 1,0,1
 370 1094 370 1094 397 1094 c 0,2,3
 414 1094 414 1094 437 1099 c 128,-1,4
 460 1104 460 1104 488 1112 c 1,5,6
 477 980 477 980 465.5 837.5 c 128,-1,7
 454 695 454 695 443.5 550.5 c 128,-1,8
 433 406 433 406 423 263 c 128,-1,9
 413 120 413 120 404 -12 c 1,10,11
 377 12 377 12 354 25 c 128,-1,12
 331 38 331 38 313 38 c 0,13,14
 274 38 274 38 205 -14 c 1,15,16
 220 118 220 118 234.5 257.5 c 128,-1,17
 249 397 249 397 263 537 c 128,-1,18
 277 677 277 677 290.5 816 c 128,-1,19
 304 955 304 955 316 1087 c 1,20,-1
 342 1103 l 1,0,1
381 1518 m 1,21,22
 403 1501 403 1501 434 1501 c 0,23,24
 468 1501 468 1501 530 1543 c 1,25,26
 529 1533 529 1533 528 1517 c 128,-1,27
 527 1501 527 1501 526 1483.5 c 128,-1,28
 525 1466 525 1466 524 1450 c 128,-1,29
 523 1434 523 1434 523 1424 c 0,30,31
 521 1393 521 1393 519 1357 c 128,-1,32
 517 1321 517 1321 515 1290 c 1,33,34
 490 1277 490 1277 465 1269.5 c 128,-1,35
 440 1262 440 1262 416 1262 c 0,36,37
 393 1262 393 1262 370 1270 c 128,-1,38
 347 1278 347 1278 324 1295 c 1,39,-1
 337 1405 l 1,40,-1
 349 1506 l 1,41,-1
 381 1518 l 1,21,22
EndSplineSet
Validated: 1
EndChar

StartChar: j
Encoding: 106 106 77
Width: 651
Flags: W
LayerCount: 2
Fore
SplineSet
434 1081 m 1,0,1
 469 1082 469 1082 512 1086 c 128,-1,2
 555 1090 555 1090 600 1096 c 1,3,4
 564 827 564 827 529.5 550 c 128,-1,5
 495 273 495 273 466 4 c 0,6,7
 462 -32 462 -32 456.5 -69.5 c 128,-1,8
 451 -107 451 -107 439.5 -144 c 128,-1,9
 428 -181 428 -181 409.5 -215 c 128,-1,10
 391 -249 391 -249 361 -278 c 1,11,12
 335 -301 335 -301 306 -317 c 128,-1,13
 277 -333 277 -333 246.5 -344 c 128,-1,14
 216 -355 216 -355 184.5 -362 c 128,-1,15
 153 -369 153 -369 123 -375 c 0,16,17
 109 -378 109 -378 95 -380.5 c 128,-1,18
 81 -383 81 -383 64.5 -386.5 c 128,-1,19
 48 -390 48 -390 28 -396 c 128,-1,20
 8 -402 8 -402 -18 -411 c 1,21,-1
 -2 -296 l 2,22,23
 4 -255 4 -255 11 -206.5 c 128,-1,24
 18 -158 18 -158 23 -117 c 1,25,-1
 82 -105 l 1,26,27
 123 -98 123 -98 164.5 -86.5 c 128,-1,28
 206 -75 206 -75 235 -48 c 1,29,30
 248 -32 248 -32 256.5 -11.5 c 128,-1,31
 265 9 265 9 271 31 c 128,-1,32
 277 53 277 53 280.5 75.5 c 128,-1,33
 284 98 284 98 287 119 c 0,34,35
 287 122 287 122 288 125.5 c 128,-1,36
 289 129 289 129 289 131 c 0,37,38
 302 226 302 226 314.5 320 c 128,-1,39
 327 414 327 414 340 510 c 0,40,41
 359 650 359 650 377 787.5 c 128,-1,42
 395 925 395 925 415 1065 c 1,43,-1
 434 1081 l 1,0,1
514 1498 m 1,44,45
 549 1503 549 1503 590 1511.5 c 128,-1,46
 631 1520 631 1520 679 1536 c 1,47,48
 677 1519 677 1519 675.5 1497.5 c 128,-1,49
 674 1476 674 1476 672 1453.5 c 128,-1,50
 670 1431 670 1431 668.5 1409.5 c 128,-1,51
 667 1388 667 1388 666 1371 c 256,52,53
 665 1354 665 1354 663 1330 c 128,-1,54
 661 1306 661 1306 660 1289 c 1,55,56
 612 1276 612 1276 562.5 1268.5 c 128,-1,57
 513 1261 513 1261 462 1256 c 1,58,-1
 469 1303 l 1,59,60
 477 1348 477 1348 483 1392.5 c 128,-1,61
 489 1437 489 1437 496 1482 c 1,62,-1
 514 1498 l 1,44,45
EndSplineSet
Validated: 1
EndChar

StartChar: k
Encoding: 107 107 78
Width: 1276
Flags: W
LayerCount: 2
Fore
SplineSet
425 1525 m 1,0,1
 465 1520 465 1520 513 1515.5 c 128,-1,2
 561 1511 561 1511 601 1509 c 1,3,4
 596 1404 596 1404 590 1304.5 c 128,-1,5
 584 1205 584 1205 576.5 1106.5 c 128,-1,6
 569 1008 569 1008 560 909 c 128,-1,7
 551 810 551 810 540 705 c 1,8,9
 630 802 630 802 721 900.5 c 128,-1,10
 812 999 812 999 903 1095 c 1,11,12
 927 1095 927 1095 959 1095.5 c 128,-1,13
 991 1096 991 1096 1025 1097 c 128,-1,14
 1059 1098 1059 1098 1091 1098.5 c 128,-1,15
 1123 1099 1123 1099 1147 1100 c 1,16,17
 1112 1060 1112 1060 1072 1015 c 128,-1,18
 1032 970 1032 970 991 924 c 128,-1,19
 950 878 950 878 910.5 832.5 c 128,-1,20
 871 787 871 787 836 747 c 2,21,-1
 706 600 l 1,22,-1
 742 563 l 1,23,24
 803 498 803 498 869.5 427 c 128,-1,25
 936 356 936 356 1003.5 283.5 c 128,-1,26
 1071 211 1071 211 1136 139.5 c 128,-1,27
 1201 68 1201 68 1260 3 c 1,28,29
 1152 17 1152 17 1054 25.5 c 128,-1,30
 956 34 956 34 866 36 c 1,31,32
 819 99 819 99 776 156 c 128,-1,33
 733 213 733 213 691.5 269 c 128,-1,34
 650 325 650 325 608.5 383 c 128,-1,35
 567 441 567 441 522 506 c 1,36,37
 518 420 518 420 512 333.5 c 128,-1,38
 506 247 506 247 500 160 c 0,39,40
 498 133 498 133 495.5 95.5 c 128,-1,41
 493 58 493 58 491 31 c 1,42,43
 464 29 464 29 430.5 26 c 128,-1,44
 397 23 397 23 361.5 20 c 128,-1,45
 326 17 326 17 292 13.5 c 128,-1,46
 258 10 258 10 231 7 c 1,47,48
 305 387 305 387 348 762.5 c 128,-1,49
 391 1138 391 1138 403 1507 c 1,50,-1
 425 1525 l 1,0,1
EndSplineSet
Validated: 1
EndChar

StartChar: l
Encoding: 108 108 79
Width: 625
Flags: W
LayerCount: 2
Fore
SplineSet
392 1520 m 1,0,1
 417 1509 417 1509 444 1505 c 128,-1,2
 471 1501 471 1501 500 1501 c 0,3,4
 508 1501 508 1501 518.5 1501.5 c 128,-1,5
 529 1502 529 1502 553 1504 c 1,6,7
 524 1194 524 1194 497 886.5 c 128,-1,8
 470 579 470 579 444 268 c 1,9,10
 471 266 471 266 500 259.5 c 128,-1,11
 529 253 529 253 558 243 c 1,12,13
 556 218 556 218 553.5 186.5 c 128,-1,14
 551 155 551 155 549 122 c 128,-1,15
 547 89 547 89 545 57 c 128,-1,16
 543 25 543 25 542 0 c 1,17,18
 456 38 456 38 385 38 c 0,19,20
 350 38 350 38 307 28 c 128,-1,21
 264 18 264 18 213 -1 c 1,22,23
 260 370 260 370 298 752 c 128,-1,24
 336 1134 336 1134 365 1505 c 1,25,-1
 392 1520 l 1,0,1
EndSplineSet
Validated: 1
EndChar

StartChar: m
Encoding: 109 109 80
Width: 2066
Flags: HW
LayerCount: 2
Fore
SplineSet
552 940 m 1,0,-1
 553 939 l 1,1,-1
 553 940 l 1,2,-1
 552 940 l 1,0,-1
870 1118 m 0,3,4
 928 1118 928 1118 984 1106 c 128,-1,5
 1040 1094 1040 1094 1087 1068 c 128,-1,6
 1134 1042 1134 1042 1169.5 1001.5 c 128,-1,7
 1205 961 1205 961 1222 905 c 1,8,9
 1252 950 1252 950 1291 990 c 128,-1,10
 1330 1030 1330 1030 1377 1060 c 0,11,12
 1431 1095 1431 1095 1496.5 1109 c 128,-1,13
 1562 1123 1562 1123 1622 1123 c 0,14,15
 1661 1123 1661 1123 1699 1113 c 128,-1,16
 1737 1103 1737 1103 1769 1083 c 128,-1,17
 1801 1063 1801 1063 1825.5 1033 c 128,-1,18
 1850 1003 1850 1003 1861 964 c 1,19,-1
 1861 965 l 1,20,21
 1873 923 1873 923 1877.5 882 c 128,-1,22
 1882 841 1882 841 1882 801 c 0,23,24
 1882 767 1882 767 1879.5 734.5 c 128,-1,25
 1877 702 1877 702 1874 670 c 0,26,27
 1859 521 1859 521 1859 376 c 0,28,29
 1859 289 1859 289 1866 198 c 128,-1,30
 1873 107 1873 107 1890 9 c 1,31,32
 1862 10 1862 10 1827.5 12 c 128,-1,33
 1793 14 1793 14 1757 15.5 c 128,-1,34
 1721 17 1721 17 1686.5 18.5 c 128,-1,35
 1652 20 1652 20 1624 21 c 1,36,-1
 1624 69 l 2,37,38
 1624 225 1624 225 1643 382.5 c 128,-1,39
 1662 540 1662 540 1688 695 c 1,40,-1
 1691 726 l 2,41,42
 1693 751 1693 751 1695 776 c 128,-1,43
 1697 801 1697 801 1697 824 c 0,44,45
 1697 904 1697 904 1667.5 941 c 128,-1,46
 1638 978 1638 978 1575 978 c 0,47,48
 1510 978 1510 978 1448.5 953.5 c 128,-1,49
 1387 929 1387 929 1344 874 c 1,50,51
 1299 821 1299 821 1277.5 756.5 c 128,-1,52
 1256 692 1256 692 1251 625 c 1,53,54
 1234 479 1234 479 1220.5 327.5 c 128,-1,55
 1207 176 1207 176 1197 30 c 1,56,-1
 928 30 l 1,57,58
 962 193 962 193 995.5 366 c 128,-1,59
 1029 539 1029 539 1058 702 c 1,60,-1
 1058 700 l 1,61,62
 1061 730 1061 730 1061 761 c 0,63,64
 1061 800 1061 800 1054.5 837.5 c 128,-1,65
 1048 875 1048 875 1030 908 c 1,66,-1
 1031 906 l 1,67,68
 1016 930 1016 930 996 945.5 c 128,-1,69
 976 961 976 961 953.5 969.5 c 128,-1,70
 931 978 931 978 907 981.5 c 128,-1,71
 883 985 883 985 859 985 c 0,72,73
 792 985 792 985 740.5 952 c 128,-1,74
 689 919 689 919 653 867.5 c 128,-1,75
 617 816 617 816 597 752.5 c 128,-1,76
 577 689 577 689 574 628 c 0,77,78
 566 478 566 478 550 326.5 c 128,-1,79
 534 175 534 175 501 19 c 1,80,81
 474 18 474 18 440.5 17 c 128,-1,82
 407 16 407 16 372 14.5 c 128,-1,83
 337 13 337 13 303 11 c 128,-1,84
 269 9 269 9 242 8 c 1,85,86
 316 245 316 245 352 479 c 128,-1,87
 388 713 388 713 388 942 c 0,88,89
 388 979 388 979 387 1025.5 c 128,-1,90
 386 1072 386 1072 384 1109 c 1,91,-1
 483 1104 l 1,92,-1
 581 1100 l 1,93,94
 579 1071 579 1071 576 1035.5 c 128,-1,95
 573 1000 573 1000 570 965 c 1,96,97
 623 1038 623 1038 703.5 1078 c 128,-1,98
 784 1118 784 1118 870 1118 c 0,3,4
EndSplineSet
Validated: 1
EndChar

StartChar: n
Encoding: 110 110 81
Width: 1481
Flags: W
LayerCount: 2
Fore
SplineSet
1233 670 m 0,0,1
 1227 582 1227 582 1223.5 495.5 c 128,-1,2
 1220 409 1220 409 1220 321 c 0,3,4
 1220 176 1220 176 1235 8 c 1,5,6
 1206 11 1206 11 1170.5 13.5 c 128,-1,7
 1135 16 1135 16 1098.5 18.5 c 128,-1,8
 1062 21 1062 21 1026 23 c 128,-1,9
 990 25 990 25 961 26 c 1,10,11
 972 184 972 184 992.5 350.5 c 128,-1,12
 1013 517 1013 517 1037 675 c 0,13,14
 1037 680 1037 680 1037 685 c 128,-1,15
 1037 690 1037 690 1038 695 c 1,16,-1
 1038 694 l 1,17,18
 1040 711 1040 711 1041 728 c 128,-1,19
 1042 745 1042 745 1042 762 c 0,20,21
 1042 794 1042 794 1037.5 824.5 c 128,-1,22
 1033 855 1033 855 1020 884 c 1,23,-1
 1020 883 l 1,24,25
 1009 904 1009 904 993 917.5 c 128,-1,26
 977 931 977 931 958 939.5 c 128,-1,27
 939 948 939 948 918.5 951.5 c 128,-1,28
 898 955 898 955 877 955 c 0,29,30
 846 955 846 955 813 951.5 c 128,-1,31
 780 948 780 948 748.5 938.5 c 128,-1,32
 717 929 717 929 688 913 c 128,-1,33
 659 897 659 897 636 872 c 0,34,35
 591 823 591 823 571.5 760.5 c 128,-1,36
 552 698 552 698 547 635 c 1,37,-1
 547 636 l 1,38,39
 542 487 542 487 531 331 c 128,-1,40
 520 175 520 175 504 26 c 1,41,42
 475 24 475 24 440.5 22 c 128,-1,43
 406 20 406 20 370 17.5 c 128,-1,44
 334 15 334 15 299 12.5 c 128,-1,45
 264 10 264 10 236 7 c 1,46,47
 299 285 299 285 330 562.5 c 128,-1,48
 361 840 361 840 365 1120 c 1,49,50
 384 1118 384 1118 410 1115.5 c 128,-1,51
 436 1113 436 1113 462.5 1111 c 128,-1,52
 489 1109 489 1109 514.5 1107 c 128,-1,53
 540 1105 540 1105 560 1104 c 1,54,-1
 558 1016 l 2,55,56
 558 1007 558 1007 557.5 1005 c 128,-1,57
 557 1003 557 1003 556.5 1001.5 c 128,-1,58
 556 1000 556 1000 556 998 c 128,-1,59
 556 996 556 996 556 987 c 1,60,61
 642 1047 642 1047 731.5 1081.5 c 128,-1,62
 821 1116 821 1116 924 1116 c 0,63,64
 964 1116 964 1116 1003 1108.5 c 128,-1,65
 1042 1101 1042 1101 1077.5 1085 c 128,-1,66
 1113 1069 1113 1069 1142 1043.5 c 128,-1,67
 1171 1018 1171 1018 1190 982 c 1,68,69
 1217 922 1217 922 1226 862 c 128,-1,70
 1235 802 1235 802 1235 743 c 0,71,72
 1235 725 1235 725 1234.5 706.5 c 128,-1,73
 1234 688 1234 688 1233 670 c 0,0,1
EndSplineSet
Validated: 1
EndChar

StartChar: o
Encoding: 111 111 82
Width: 1386
Flags: W
LayerCount: 2
Fore
SplineSet
683 967 m 1,0,1
 622 967 622 967 563.5 943 c 128,-1,2
 505 919 505 919 465 868 c 0,3,4
 435 830 435 830 416 786 c 128,-1,5
 397 742 397 742 385.5 696 c 128,-1,6
 374 650 374 650 370 603 c 128,-1,7
 366 556 366 556 366 513 c 0,8,9
 366 469 366 469 375.5 428.5 c 128,-1,10
 385 388 385 388 419 362 c 1,11,-1
 418 363 l 1,12,13
 463 334 463 334 516 326 c 128,-1,14
 569 318 569 318 623 318 c 256,15,16
 677 318 677 318 732 327 c 128,-1,17
 787 336 787 336 835 364 c 1,18,-1
 834 364 l 1,19,20
 868 387 868 387 887 424.5 c 128,-1,21
 906 462 906 462 915.5 503.5 c 128,-1,22
 925 545 925 545 927 585.5 c 128,-1,23
 929 626 929 626 929 654 c 0,24,25
 929 711 929 711 918.5 766.5 c 128,-1,26
 908 822 908 822 880 869 c 0,27,28
 851 918 851 918 797 942 c 128,-1,29
 743 966 743 966 683 967 c 1,0,1
694 1114 m 0,30,31
 743 1114 743 1114 792.5 1107 c 128,-1,32
 842 1100 842 1100 887.5 1083.5 c 128,-1,33
 933 1067 933 1067 972.5 1039.5 c 128,-1,34
 1012 1012 1012 1012 1042 971 c 0,35,36
 1090 904 1090 904 1107.5 825.5 c 128,-1,37
 1125 747 1125 747 1125 665 c 0,38,39
 1125 605 1125 605 1118 536.5 c 128,-1,40
 1111 468 1111 468 1094 399 c 128,-1,41
 1077 330 1077 330 1046.5 264.5 c 128,-1,42
 1016 199 1016 199 970 145 c 1,43,44
 934 106 934 106 889 78.5 c 128,-1,45
 844 51 844 51 794.5 34.5 c 128,-1,46
 745 18 745 18 694 10.5 c 128,-1,47
 643 3 643 3 594 3 c 0,48,49
 546 3 546 3 496.5 10 c 128,-1,50
 447 17 447 17 401.5 33.5 c 128,-1,51
 356 50 356 50 316.5 77.5 c 128,-1,52
 277 105 277 105 249 146 c 1,53,-1
 249 145 l 1,54,55
 200 212 200 212 183 292 c 128,-1,56
 166 372 166 372 166 455 c 0,57,58
 166 514 166 514 172.5 582.5 c 128,-1,59
 179 651 179 651 196 720 c 128,-1,60
 213 789 213 789 243 854.5 c 128,-1,61
 273 920 273 920 320 973 c 1,62,63
 357 1009 357 1009 402 1036 c 128,-1,64
 447 1063 447 1063 496 1080 c 128,-1,65
 545 1097 545 1097 595.5 1105.5 c 128,-1,66
 646 1114 646 1114 694 1114 c 0,30,31
EndSplineSet
Validated: 1
EndChar

StartChar: p
Encoding: 112 112 83
Width: 1315
Flags: HW
LayerCount: 2
Fore
SplineSet
803 -4 m 2,0,1
 759 -4 759 -4 716 5.5 c 128,-1,2
 673 15 673 15 635 34 c 128,-1,3
 597 53 597 53 565.5 82 c 128,-1,4
 534 111 534 111 513 149 c 1,5,6
 496 18 496 18 474 -117.5 c 128,-1,7
 452 -253 452 -253 430 -384 c 1,8,9
 409 -386 409 -386 383 -388.5 c 128,-1,10
 357 -391 357 -391 329.5 -393.5 c 128,-1,11
 302 -396 302 -396 275.5 -399 c 128,-1,12
 249 -402 249 -402 229 -404 c 1,13,14
 303 -23 303 -23 345.5 353 c 128,-1,15
 388 729 388 729 403 1107 c 1,16,17
 423 1105 423 1105 448.5 1102.5 c 128,-1,18
 474 1100 474 1100 501 1097.5 c 128,-1,19
 528 1095 528 1095 553.5 1093 c 128,-1,20
 579 1091 579 1091 599 1090 c 1,21,-1
 584 991 l 1,22,-1
 579 962 l 1,23,24
 608 999 608 999 645.5 1026 c 128,-1,25
 683 1053 683 1053 725.5 1071 c 128,-1,26
 768 1089 768 1089 813 1098 c 128,-1,27
 858 1107 858 1107 902 1107 c 2,28,-1
 931 1107 l 2,29,30
 972 1107 972 1107 1014 1096.5 c 128,-1,31
 1056 1086 1056 1086 1094 1067 c 128,-1,32
 1132 1048 1132 1048 1165 1021.5 c 128,-1,33
 1198 995 1198 995 1222 963 c 1,34,35
 1263 900 1263 900 1280.5 824 c 128,-1,36
 1298 748 1298 748 1298 672 c 0,37,38
 1298 608 1298 608 1290.5 538.5 c 128,-1,39
 1283 469 1283 469 1265 400 c 128,-1,40
 1247 331 1247 331 1216 266 c 128,-1,41
 1185 201 1185 201 1138 146 c 1,42,-1
 1139 146 l 1,43,44
 1110 110 1110 110 1074.5 82.5 c 128,-1,45
 1039 55 1039 55 999 35.5 c 128,-1,46
 959 16 959 16 915.5 6 c 128,-1,47
 872 -4 872 -4 829 -4 c 2,48,-1
 803 -4 l 2,0,1
1168 588 m 1,49,50
 1170 611 1170 611 1171.5 633 c 128,-1,51
 1173 655 1173 655 1173 678 c 0,52,53
 1173 736 1173 736 1160 789.5 c 128,-1,54
 1147 843 1147 843 1119 884 c 128,-1,55
 1091 925 1091 925 1047.5 949.5 c 128,-1,56
 1004 974 1004 974 944 974 c 0,57,58
 878 974 878 974 817 949 c 128,-1,59
 756 924 756 924 714 869 c 1,60,61
 684 832 684 832 664.5 788 c 128,-1,62
 645 744 645 744 634.5 697.5 c 128,-1,63
 624 651 624 651 620 604 c 128,-1,64
 616 557 616 557 616 514 c 0,65,66
 616 466 616 466 627 421 c 128,-1,67
 638 376 638 376 675 347 c 1,68,-1
 674 348 l 1,69,70
 718 319 718 319 769 307.5 c 128,-1,71
 820 296 820 296 874 296 c 0,72,73
 927 296 927 296 979.5 307 c 128,-1,74
 1032 318 1032 318 1077 348 c 1,75,-1
 1075 347 l 1,76,77
 1099 367 1099 367 1115 393.5 c 128,-1,78
 1131 420 1131 420 1141 450 c 128,-1,79
 1151 480 1151 480 1156.5 511 c 128,-1,80
 1162 542 1162 542 1166 571 c 0,81,82
 1166 575 1166 575 1167 578.5 c 128,-1,83
 1168 582 1168 582 1168 586 c 2,84,-1
 1168 588 l 1,49,50
EndSplineSet
Validated: 1
EndChar

StartChar: q
Encoding: 113 113 84
Width: 1319
Flags: W
LayerCount: 2
Fore
SplineSet
173 578 m 0,0,1
 173 573 173 573 172.5 567.5 c 128,-1,2
 172 562 172 562 172 557 c 0,3,4
 171 545 171 545 170.5 533 c 128,-1,5
 170 521 170 521 170 510 c 0,6,7
 170 462 170 462 180.5 418 c 128,-1,8
 191 374 191 374 224 345 c 1,9,-1
 222 346 l 1,10,11
 262 317 262 317 313.5 308.5 c 128,-1,12
 365 300 365 300 417 300 c 0,13,14
 471 300 471 300 525.5 310 c 128,-1,15
 580 320 580 320 628 347 c 1,16,-1
 626 347 l 1,17,18
 662 372 662 372 682.5 413 c 128,-1,19
 703 454 703 454 713 498.5 c 128,-1,20
 723 543 723 543 725.5 586 c 128,-1,21
 728 629 728 629 728 660 c 0,22,23
 728 717 728 717 717 769 c 128,-1,24
 706 821 706 821 679 867 c 0,25,26
 646 921 646 921 589 944.5 c 128,-1,27
 532 968 532 968 466 967 c 0,28,29
 438 967 438 967 410 960.5 c 128,-1,30
 382 954 382 954 356 941.5 c 128,-1,31
 330 929 330 929 307 911 c 128,-1,32
 284 893 284 893 266 870 c 0,33,34
 241 838 241 838 224.5 802.5 c 128,-1,35
 208 767 208 767 197.5 730 c 128,-1,36
 187 693 187 693 181.5 654.5 c 128,-1,37
 176 616 176 616 173 578 c 0,0,1
702 -381 m 1,38,39
 710 -253 710 -253 720 -118 c 128,-1,40
 730 17 730 17 744 147 c 1,41,42
 716 111 716 111 680.5 83 c 128,-1,43
 645 55 645 55 604.5 35.5 c 128,-1,44
 564 16 564 16 521 6 c 128,-1,45
 478 -4 478 -4 435 -4 c 2,46,-1
 407 -4 l 2,47,48
 320 -4 320 -4 243.5 35 c 128,-1,49
 167 74 167 74 122 146 c 1,50,51
 73 220 73 220 56 307 c 128,-1,52
 39 394 39 394 39 484 c 0,53,54
 39 541 39 541 45.5 604.5 c 128,-1,55
 52 668 52 668 68.5 731 c 128,-1,56
 85 794 85 794 112 853.5 c 128,-1,57
 139 913 139 913 181 964 c 1,58,59
 241 1033 241 1033 324.5 1070.5 c 128,-1,60
 408 1108 408 1108 494 1107 c 1,61,-1
 528 1107 l 2,62,63
 573 1107 573 1107 616.5 1095 c 128,-1,64
 660 1083 660 1083 700 1061.5 c 128,-1,65
 740 1040 740 1040 773.5 1010 c 128,-1,66
 807 980 807 980 831 945 c 1,67,-1
 854 1035 l 1,68,-1
 870 1094 l 1,69,70
 890 1095 890 1095 916 1097.5 c 128,-1,71
 942 1100 942 1100 969.5 1103 c 128,-1,72
 997 1106 997 1106 1023 1108.5 c 128,-1,73
 1049 1111 1049 1111 1069 1114 c 1,74,75
 994 732 994 732 951 355.5 c 128,-1,76
 908 -21 908 -21 898 -397 c 0,77,78
 897 -397 897 -397 892.5 -397 c 128,-1,79
 888 -397 888 -397 883 -396.5 c 128,-1,80
 878 -396 878 -396 873.5 -396 c 128,-1,81
 869 -396 869 -396 868 -396 c 0,82,83
 831 -391 831 -391 785.5 -387 c 128,-1,84
 740 -383 740 -383 702 -381 c 1,38,39
EndSplineSet
Validated: 33
EndChar

StartChar: r
Encoding: 114 114 85
Width: 887
Flags: W
LayerCount: 2
Fore
SplineSet
892 912 m 1,0,1
 879 917 879 917 865 919 c 128,-1,2
 851 921 851 921 837 921 c 0,3,4
 802 921 802 921 764.5 917 c 128,-1,5
 727 913 727 913 691 901.5 c 128,-1,6
 655 890 655 890 623.5 870 c 128,-1,7
 592 850 592 850 569 818 c 0,8,9
 528 760 528 760 510.5 692 c 128,-1,10
 493 624 493 624 486 557 c 1,11,-1
 486 558 l 1,12,13
 479 429 479 429 471.5 293.5 c 128,-1,14
 464 158 464 158 453 29 c 1,15,16
 395 27 395 27 332.5 21 c 128,-1,17
 270 15 270 15 201 6 c 1,18,19
 258 284 258 284 294 555.5 c 128,-1,20
 330 827 330 827 350 1096 c 1,21,22
 379 1093 379 1093 415.5 1090 c 128,-1,23
 452 1087 452 1087 480 1085 c 0,24,25
 487 1085 487 1085 503 1084 c 128,-1,26
 519 1083 519 1083 525 1083 c 1,27,-1
 519 983 l 1,28,29
 534 992 534 992 548.5 1000 c 128,-1,30
 563 1008 563 1008 578 1016 c 2,31,-1
 624 1042 l 2,32,33
 654 1060 654 1060 688 1073 c 128,-1,34
 722 1086 722 1086 757.5 1094 c 128,-1,35
 793 1102 793 1102 827.5 1106 c 128,-1,36
 862 1110 862 1110 894 1110 c 2,37,-1
 945 1110 l 1,38,39
 939 1070 939 1070 931 1019 c 128,-1,40
 923 968 923 968 918 928 c 1,41,-1
 892 912 l 1,0,1
EndSplineSet
Validated: 1
EndChar

StartChar: s
Encoding: 115 115 86
Width: 1237
Flags: W
LayerCount: 2
Fore
SplineSet
1032 1055 m 1,0,-1
 1057 1059 l 1,1,-1
 1049 1005 l 2,2,3
 1047 995 1047 995 1044.5 981 c 128,-1,4
 1042 967 1042 967 1040 953 c 128,-1,5
 1038 939 1038 939 1035.5 925 c 128,-1,6
 1033 911 1033 911 1032 901 c 1,7,8
 947 940 947 940 865.5 954 c 128,-1,9
 784 968 784 968 703 968 c 0,10,11
 662 968 662 968 618 960.5 c 128,-1,12
 574 953 574 953 537 934 c 128,-1,13
 500 915 500 915 476 882.5 c 128,-1,14
 452 850 452 850 452 801 c 0,15,16
 452 758 452 758 478 730 c 128,-1,17
 504 702 504 702 542.5 684 c 128,-1,18
 581 666 581 666 624 655.5 c 128,-1,19
 667 645 667 645 700 639 c 1,20,-1
 719 634 l 2,21,22
 752 626 752 626 785.5 616.5 c 128,-1,23
 819 607 819 607 850.5 594.5 c 128,-1,24
 882 582 882 582 911.5 565 c 128,-1,25
 941 548 941 548 966 524 c 0,26,27
 1003 489 1003 489 1017.5 439.5 c 128,-1,28
 1032 390 1032 390 1032 341 c 0,29,30
 1032 304 1032 304 1025 266.5 c 128,-1,31
 1018 229 1018 229 1002.5 195 c 128,-1,32
 987 161 987 161 962.5 131 c 128,-1,33
 938 101 938 101 903 79 c 0,34,35
 863 54 863 54 820 39 c 128,-1,36
 777 24 777 24 732 16 c 128,-1,37
 687 8 687 8 642 5.5 c 128,-1,38
 597 3 597 3 554 3 c 0,39,40
 466 3 466 3 374 16 c 128,-1,41
 282 29 282 29 190 52 c 1,42,43
 195 82 195 82 200.5 118.5 c 128,-1,44
 206 155 206 155 211.5 192.5 c 128,-1,45
 217 230 217 230 222 266.5 c 128,-1,46
 227 303 227 303 231 333 c 1,47,48
 315 288 315 288 401 264.5 c 128,-1,49
 487 241 487 241 572 241 c 2,50,-1
 595 241 l 1,51,52
 602 240 602 240 607.5 240 c 128,-1,53
 613 240 613 240 619 240 c 0,54,55
 650 240 650 240 685 246 c 128,-1,56
 720 252 720 252 750 267 c 128,-1,57
 780 282 780 282 800.5 306 c 128,-1,58
 821 330 821 330 824 366 c 1,59,60
 820 372 820 372 819 375 c 0,61,62
 810 392 810 392 801 409 c 128,-1,63
 792 426 792 426 782 440 c 1,64,65
 764 454 764 454 741.5 464 c 128,-1,66
 719 474 719 474 694 481.5 c 128,-1,67
 669 489 669 489 644 495 c 128,-1,68
 619 501 619 501 596 506 c 2,69,-1
 558 515 l 2,70,71
 529 522 529 522 499.5 530 c 128,-1,72
 470 538 470 538 441.5 549.5 c 128,-1,73
 413 561 413 561 386 576 c 128,-1,74
 359 591 359 591 337 612 c 0,75,76
 303 645 303 645 291 693 c 128,-1,77
 279 741 279 741 279 789 c 0,78,79
 279 830 279 830 288 872 c 128,-1,80
 297 914 297 914 316.5 951.5 c 128,-1,81
 336 989 336 989 367 1019 c 128,-1,82
 398 1049 398 1049 442 1067 c 0,83,84
 515 1096 515 1096 579.5 1105 c 128,-1,85
 644 1114 644 1114 709 1114 c 0,86,87
 796 1114 796 1114 881 1106 c 128,-1,88
 966 1098 966 1098 1048 1072 c 1,89,-1
 1032 1055 l 1,0,-1
EndSplineSet
Validated: 1
EndChar

StartChar: t
Encoding: 116 116 87
Width: 842
Flags: W
LayerCount: 2
Fore
SplineSet
432 1330 m 1,0,1
 428 1297 428 1297 424.5 1262.5 c 128,-1,2
 421 1228 421 1228 416 1195 c 1,3,-1
 416 1196 l 1,4,-1
 404 1092 l 1,5,-1
 421 1092 l 2,6,7
 446 1092 446 1092 474.5 1092.5 c 128,-1,8
 503 1093 503 1093 532 1094.5 c 128,-1,9
 561 1096 561 1096 589.5 1097 c 128,-1,10
 618 1098 618 1098 644 1100 c 1,11,-1
 638 1031 l 2,12,13
 636 1014 636 1014 632.5 988 c 128,-1,14
 629 962 629 962 626 945 c 1,15,16
 577 943 577 943 520 941 c 128,-1,17
 463 939 463 939 413 939 c 2,18,-1
 390 939 l 1,19,20
 386 906 386 906 382 871 c 128,-1,21
 378 836 378 836 375 803 c 0,22,23
 367 726 367 726 359 649.5 c 128,-1,24
 351 573 351 573 343 496 c 0,25,26
 343 490 343 490 342.5 485 c 128,-1,27
 342 480 342 480 342 475 c 0,28,29
 341 463 341 463 340.5 452.5 c 128,-1,30
 340 442 340 442 340 430 c 0,31,32
 340 405 340 405 343.5 381.5 c 128,-1,33
 347 358 347 358 361 340 c 1,34,-1
 359 343 l 1,35,36
 382 320 382 320 418.5 314.5 c 128,-1,37
 455 309 455 309 491 307 c 0,38,39
 533 305 533 305 583 301 c 128,-1,40
 633 297 633 297 675 292 c 1,41,42
 673 261 673 261 672 224 c 128,-1,43
 671 187 671 187 669.5 149 c 128,-1,44
 668 111 668 111 667 74 c 128,-1,45
 666 37 666 37 666 6 c 1,46,47
 648 9 648 9 627 12 c 128,-1,48
 606 15 606 15 584 17.5 c 128,-1,49
 562 20 562 20 540 22.5 c 128,-1,50
 518 25 518 25 500 27 c 2,51,-1
 474 30 l 1,52,-1
 440 33 l 2,53,54
 408 36 408 36 374 39.5 c 128,-1,55
 340 43 340 43 307.5 51 c 128,-1,56
 275 59 275 59 244.5 72.5 c 128,-1,57
 214 86 214 86 189 107 c 1,58,59
 151 145 151 145 139 194 c 128,-1,60
 127 243 127 243 127 294 c 0,61,62
 127 317 127 317 128.5 340.5 c 128,-1,63
 130 364 130 364 132 385 c 0,64,65
 140 457 140 457 148 526.5 c 128,-1,66
 156 596 156 596 163.5 664.5 c 128,-1,67
 171 733 171 733 178 802.5 c 128,-1,68
 185 872 185 872 191 944 c 1,69,70
 162 946 162 946 128.5 948.5 c 128,-1,71
 95 951 95 951 70 954 c 1,72,73
 71 972 71 972 72 999 c 128,-1,74
 73 1026 73 1026 75 1044 c 1,75,-1
 75 1043 l 1,76,-1
 79 1112 l 1,77,-1
 123 1106 l 2,78,79
 147 1103 147 1103 162 1101 c 128,-1,80
 177 1099 177 1099 202 1097 c 1,81,82
 208 1160 208 1160 215 1229.5 c 128,-1,83
 222 1299 222 1299 227 1360 c 1,84,85
 281 1355 281 1355 326.5 1353 c 128,-1,86
 372 1351 372 1351 413 1351 c 1,87,-1
 432 1330 l 1,0,1
EndSplineSet
Validated: 1
EndChar

StartChar: u
Encoding: 117 117 88
Width: 1450
Flags: W
LayerCount: 2
Fore
SplineSet
236 448 m 0,0,1
 251 588 251 588 259 726.5 c 128,-1,2
 267 865 267 865 267 1005 c 0,3,4
 267 1016 267 1016 266.5 1026.5 c 128,-1,5
 266 1037 266 1037 266 1048 c 2,6,-1
 266 1114 l 1,7,8
 275 1113 275 1113 287 1111.5 c 128,-1,9
 299 1110 299 1110 312 1108.5 c 128,-1,10
 325 1107 325 1107 337.5 1105.5 c 128,-1,11
 350 1104 350 1104 359 1103 c 2,12,-1
 432 1097 l 1,13,14
 430 978 430 978 424 850.5 c 128,-1,15
 418 723 418 723 409 603 c 1,16,-1
 409 589 l 2,17,18
 409 584 409 584 408.5 580 c 128,-1,19
 408 576 408 576 408 571 c 0,20,21
 408 526 408 526 414.5 481.5 c 128,-1,22
 421 437 421 437 440 398 c 1,23,-1
 439 399 l 1,24,25
 464 355 464 355 504 337 c 128,-1,26
 544 319 544 319 586 319 c 0,27,28
 646 319 646 319 703.5 337.5 c 128,-1,29
 761 356 761 356 806 404 c 1,30,-1
 806 403 l 1,31,32
 851 453 851 453 874.5 515 c 128,-1,33
 898 577 898 577 908 641 c 1,34,-1
 908 640 l 1,35,36
 920 751 920 751 938 868.5 c 128,-1,37
 956 986 956 986 975 1096 c 1,38,39
 999 1097 999 1097 1029 1099 c 128,-1,40
 1059 1101 1059 1101 1090.5 1103.5 c 128,-1,41
 1122 1106 1122 1106 1152 1108.5 c 128,-1,42
 1182 1111 1182 1111 1206 1114 c 1,43,44
 1146 836 1146 836 1115.5 560.5 c 128,-1,45
 1085 285 1085 285 1084 10 c 1,46,47
 1064 11 1064 11 1038.5 13 c 128,-1,48
 1013 15 1013 15 986 17 c 128,-1,49
 959 19 959 19 933 20.5 c 128,-1,50
 907 22 907 22 888 23 c 1,51,52
 890 53 890 53 892.5 90.5 c 128,-1,53
 895 128 895 128 899 160 c 1,54,55
 836 88 836 88 750 44.5 c 128,-1,56
 664 1 664 1 570 1 c 2,57,-1
 544 1 l 2,58,59
 503 1 503 1 463 8 c 128,-1,60
 423 15 423 15 386.5 30.5 c 128,-1,61
 350 46 350 46 320 71.5 c 128,-1,62
 290 97 290 97 271 133 c 1,63,64
 248 187 248 187 239.5 240 c 128,-1,65
 231 293 231 293 231 346 c 0,66,67
 231 372 231 372 232.5 397.5 c 128,-1,68
 234 423 234 423 236 448 c 0,0,1
EndSplineSet
Validated: 1
EndChar

StartChar: v
Encoding: 118 118 89
Width: 1264
Flags: W
LayerCount: 2
Fore
SplineSet
137 1106 m 2,0,1
 169 1103 169 1103 205 1100 c 128,-1,2
 241 1097 241 1097 272 1096 c 1,3,4
 338 938 338 938 396.5 770.5 c 128,-1,5
 455 603 455 603 509 440 c 0,6,7
 513 426 513 426 516.5 416 c 128,-1,8
 520 406 520 406 523 395.5 c 128,-1,9
 526 385 526 385 530 373.5 c 128,-1,10
 534 362 534 362 540 346 c 1,11,-1
 598 460 l 1,12,13
 678 620 678 620 762.5 781.5 c 128,-1,14
 847 943 847 943 939 1096 c 1,15,16
 960 1097 960 1097 988.5 1099.5 c 128,-1,17
 1017 1102 1017 1102 1047 1104 c 128,-1,18
 1077 1106 1077 1106 1105.5 1108.5 c 128,-1,19
 1134 1111 1134 1111 1155 1113 c 1,20,21
 1088 996 1088 996 1030.5 882 c 128,-1,22
 973 768 973 768 921.5 656 c 128,-1,23
 870 544 870 544 822.5 433.5 c 128,-1,24
 775 323 775 323 729 212 c 2,25,-1
 652 29 l 1,26,27
 626 30 626 30 593 30 c 128,-1,28
 560 30 560 30 534 30 c 2,29,-1
 464 30 l 2,30,31
 445 30 445 30 420 29.5 c 128,-1,32
 395 29 395 29 377 29 c 1,33,34
 359 94 359 94 341 165 c 128,-1,35
 323 236 323 236 306 301 c 0,36,37
 281 400 281 400 255.5 499.5 c 128,-1,38
 230 599 230 599 201.5 699.5 c 128,-1,39
 173 800 173 800 139.5 903 c 128,-1,40
 106 1006 106 1006 66 1113 c 1,41,-1
 137 1106 l 2,0,1
EndSplineSet
Validated: 1
EndChar

StartChar: w
Encoding: 119 119 90
Width: 1831
Flags: W
LayerCount: 2
Fore
SplineSet
176 1110 m 1,0,1
 214 1107 214 1107 259 1104 c 128,-1,2
 304 1101 304 1101 343 1099 c 1,3,4
 405 917 405 917 445.5 737.5 c 128,-1,5
 486 558 486 558 516 378 c 1,6,7
 551 438 551 438 584.5 493.5 c 128,-1,8
 618 549 618 549 652 608 c 0,9,10
 670 640 670 640 692 676.5 c 128,-1,11
 714 713 714 713 732 745 c 1,12,-1
 882 745 l 2,13,14
 903 745 903 745 930 745.5 c 128,-1,15
 957 746 957 746 978 747 c 1,16,17
 998 696 998 696 1016 651 c 128,-1,18
 1034 606 1034 606 1052 561.5 c 128,-1,19
 1070 517 1070 517 1088.5 472 c 128,-1,20
 1107 427 1107 427 1129 377 c 1,21,22
 1192 558 1192 558 1263.5 738.5 c 128,-1,23
 1335 919 1335 919 1431 1100 c 1,24,-1
 1496 1104 l 2,25,26
 1509 1105 1509 1105 1527.5 1106 c 128,-1,27
 1546 1107 1546 1107 1565.5 1108 c 128,-1,28
 1585 1109 1585 1109 1603.5 1110.5 c 128,-1,29
 1622 1112 1622 1112 1635 1113 c 1,30,31
 1564 979 1564 979 1506 843 c 128,-1,32
 1448 707 1448 707 1400.5 570 c 128,-1,33
 1353 433 1353 433 1315 295.5 c 128,-1,34
 1277 158 1277 158 1246 22 c 1,35,36
 1206 24 1206 24 1160 25 c 128,-1,37
 1114 26 1114 26 1075 27 c 0,38,39
 1056 27 1056 27 1029.5 28 c 128,-1,40
 1003 29 1003 29 984 29 c 1,41,42
 961 89 961 89 941.5 144 c 128,-1,43
 922 199 922 199 903.5 253.5 c 128,-1,44
 885 308 885 308 867.5 364 c 128,-1,45
 850 420 850 420 832 482 c 1,46,47
 776 369 776 369 716 253 c 128,-1,48
 656 137 656 137 595 28 c 1,49,50
 563 28 563 28 526 27 c 128,-1,51
 489 26 489 26 457 25 c 0,52,53
 445 25 445 25 429.5 24.5 c 128,-1,54
 414 24 414 24 398 23.5 c 128,-1,55
 382 23 382 23 367 23 c 128,-1,56
 352 23 352 23 341 23 c 1,57,58
 330 161 330 161 315.5 297.5 c 128,-1,59
 301 434 301 434 279 567.5 c 128,-1,60
 257 701 257 701 227 830.5 c 128,-1,61
 197 960 197 960 156 1085 c 1,62,-1
 176 1110 l 1,0,1
EndSplineSet
Validated: 1
EndChar

StartChar: x
Encoding: 120 120 91
Width: 1491
Flags: W
LayerCount: 2
Fore
SplineSet
1300 1075 m 1,0,1
 1191 945 1191 945 1091 812.5 c 128,-1,2
 991 680 991 680 890 543 c 1,3,-1
 890 544 l 1,4,5
 885 537 885 537 883.5 536 c 128,-1,6
 882 535 882 535 877 527 c 1,7,8
 922 464 922 464 972 397 c 128,-1,9
 1022 330 1022 330 1073.5 262.5 c 128,-1,10
 1125 195 1125 195 1176 130 c 128,-1,11
 1227 65 1227 65 1275 6 c 1,12,13
 1243 9 1243 9 1202 12 c 128,-1,14
 1161 15 1161 15 1118 17.5 c 128,-1,15
 1075 20 1075 20 1034 22 c 128,-1,16
 993 24 993 24 961 25 c 1,17,18
 931 71 931 71 904 114.5 c 128,-1,19
 877 158 877 158 850.5 201.5 c 128,-1,20
 824 245 824 245 798.5 289.5 c 128,-1,21
 773 334 773 334 747 381 c 1,22,23
 677 291 677 291 603 201 c 128,-1,24
 529 111 529 111 455 25 c 1,25,26
 422 24 422 24 380.5 22 c 128,-1,27
 339 20 339 20 295.5 17 c 128,-1,28
 252 14 252 14 210 11.5 c 128,-1,29
 168 9 168 9 135 6 c 1,30,31
 195 68 195 68 259 135 c 128,-1,32
 323 202 323 202 386.5 270 c 128,-1,33
 450 338 450 338 512 406 c 128,-1,34
 574 474 574 474 631 539 c 1,35,36
 592 608 592 608 550 681 c 128,-1,37
 508 754 508 754 464.5 827 c 128,-1,38
 421 900 421 900 377 971.5 c 128,-1,39
 333 1043 333 1043 290 1109 c 1,40,41
 311 1107 311 1107 339.5 1105 c 128,-1,42
 368 1103 368 1103 397.5 1100.5 c 128,-1,43
 427 1098 427 1098 455.5 1096.5 c 128,-1,44
 484 1095 484 1095 505 1094 c 1,45,46
 575 987 575 987 636 885 c 128,-1,47
 697 783 697 783 760 672 c 1,48,49
 847 780 847 780 937.5 887 c 128,-1,50
 1028 994 1028 994 1119 1096 c 1,51,52
 1159 1098 1159 1098 1202 1100.5 c 128,-1,53
 1245 1103 1245 1103 1284 1107 c 1,54,-1
 1300 1075 l 1,0,1
EndSplineSet
Validated: 1
EndChar

StartChar: y
Encoding: 121 121 92
Width: 1325
Flags: W
LayerCount: 2
Fore
SplineSet
776 -69 m 1,0,1
 757 -105 757 -105 736.5 -141 c 128,-1,2
 716 -177 716 -177 692.5 -211 c 128,-1,3
 669 -245 669 -245 641 -276.5 c 128,-1,4
 613 -308 613 -308 578 -335 c 1,5,6
 545 -358 545 -358 510.5 -371.5 c 128,-1,7
 476 -385 476 -385 440.5 -392.5 c 128,-1,8
 405 -400 405 -400 368.5 -403 c 128,-1,9
 332 -406 332 -406 295 -408 c 0,10,11
 284 -409 284 -409 270 -410 c 128,-1,12
 256 -411 256 -411 241 -412.5 c 128,-1,13
 226 -414 226 -414 212 -415.5 c 128,-1,14
 198 -417 198 -417 188 -418 c 1,15,16
 191 -402 191 -402 194.5 -382 c 128,-1,17
 198 -362 198 -362 201.5 -341 c 128,-1,18
 205 -320 205 -320 208 -300 c 128,-1,19
 211 -280 211 -280 213 -264 c 0,20,21
 216 -243 216 -243 221 -214 c 128,-1,22
 226 -185 226 -185 229 -163 c 1,23,24
 243 -161 243 -161 265.5 -160 c 128,-1,25
 288 -159 288 -159 302 -158 c 0,26,27
 347 -156 347 -156 389 -150 c 128,-1,28
 431 -144 431 -144 466 -118 c 1,29,-1
 465 -119 l 1,30,31
 491 -97 491 -97 514 -74 c 128,-1,32
 537 -51 537 -51 560 -26 c 1,33,34
 575 2 575 2 591.5 30 c 128,-1,35
 608 58 608 58 625 85 c 1,36,-1
 644 118 l 1,37,-1
 617 191 l 2,38,39
 576 301 576 301 532 419 c 128,-1,40
 488 537 488 537 442 656 c 128,-1,41
 396 775 396 775 350 891.5 c 128,-1,42
 304 1008 304 1008 259 1115 c 1,43,44
 279 1112 279 1112 306.5 1108.5 c 128,-1,45
 334 1105 334 1105 362.5 1101.5 c 128,-1,46
 391 1098 391 1098 418.5 1095 c 128,-1,47
 446 1092 446 1092 467 1091 c 1,48,49
 510 1013 510 1013 550.5 939 c 128,-1,50
 591 865 591 865 630.5 791 c 128,-1,51
 670 717 670 717 709 642 c 128,-1,52
 748 567 748 567 788 488 c 1,53,54
 869 636 869 636 957 792 c 128,-1,55
 1045 948 1045 948 1133 1092 c 1,56,57
 1154 1093 1154 1093 1182.5 1096 c 128,-1,58
 1211 1099 1211 1099 1241 1102.5 c 128,-1,59
 1271 1106 1271 1106 1300 1109 c 128,-1,60
 1329 1112 1329 1112 1350 1115 c 1,61,62
 1230 895 1230 895 1116 657.5 c 128,-1,63
 1002 420 1002 420 898 194 c 2,64,-1
 776 -69 l 1,0,1
EndSplineSet
Validated: 1
EndChar

StartChar: z
Encoding: 122 122 93
Width: 1350
Flags: W
LayerCount: 2
Fore
SplineSet
318 1105 m 1,0,1
 412 1097 412 1097 506 1092.5 c 128,-1,2
 600 1088 600 1088 695 1088 c 0,3,4
 802 1088 802 1088 917 1094 c 128,-1,5
 1032 1100 1032 1100 1157 1113 c 1,6,7
 1153 1094 1153 1094 1148.5 1070.5 c 128,-1,8
 1144 1047 1144 1047 1139.5 1022.5 c 128,-1,9
 1135 998 1135 998 1130.5 974.5 c 128,-1,10
 1126 951 1126 951 1123 932 c 1,11,12
 1061 869 1061 869 998 803.5 c 128,-1,13
 935 738 935 738 874 675 c 0,14,15
 822 621 822 621 776 572.5 c 128,-1,16
 730 524 730 524 684.5 476.5 c 128,-1,17
 639 429 639 429 592 381 c 128,-1,18
 545 333 545 333 492 280 c 1,19,20
 533 281 533 281 572 281 c 128,-1,21
 611 281 611 281 652 281 c 0,22,23
 747 281 747 281 850.5 277.5 c 128,-1,24
 954 274 954 274 1048 268 c 1,25,26
 1047 247 1047 247 1046.5 217 c 128,-1,27
 1046 187 1046 187 1046 166 c 0,28,29
 1046 132 1046 132 1046.5 87.5 c 128,-1,30
 1047 43 1047 43 1048 9 c 1,31,32
 823 30 823 30 614 30 c 0,33,34
 508 30 508 30 393.5 24 c 128,-1,35
 279 18 279 18 154 7 c 1,36,37
 161 37 161 37 167.5 72.5 c 128,-1,38
 174 108 174 108 180.5 144.5 c 128,-1,39
 187 181 187 181 193 216.5 c 128,-1,40
 199 252 199 252 204 283 c 1,41,42
 294 371 294 371 379.5 453 c 128,-1,43
 465 535 465 535 550.5 615.5 c 128,-1,44
 636 696 636 696 723 777 c 128,-1,45
 810 858 810 858 902 944 c 1,46,47
 845 942 845 942 787.5 941 c 128,-1,48
 730 940 730 940 673 940 c 0,49,50
 579 940 579 940 485.5 943.5 c 128,-1,51
 392 947 392 947 296 955 c 1,52,-1
 296 1086 l 1,53,-1
 318 1105 l 1,0,1
EndSplineSet
Validated: 1
EndChar

StartChar: braceleft
Encoding: 123 123 94
Width: 938
Flags: W
LayerCount: 2
Fore
SplineSet
677 -126 m 1,0,1
 676 -146 676 -146 675.5 -165.5 c 128,-1,2
 675 -185 675 -185 673 -205 c 0,3,4
 672 -218 672 -218 671 -234 c 128,-1,5
 670 -250 670 -250 669.5 -267 c 128,-1,6
 669 -284 669 -284 668 -299.5 c 128,-1,7
 667 -315 667 -315 667 -327 c 1,8,-1
 576 -313 l 2,9,10
 539 -307 539 -307 499.5 -300 c 128,-1,11
 460 -293 460 -293 421 -282 c 128,-1,12
 382 -271 382 -271 346 -254.5 c 128,-1,13
 310 -238 310 -238 281 -214 c 1,14,15
 243 -169 243 -169 231.5 -114 c 128,-1,16
 220 -59 220 -59 220 -1 c 0,17,18
 220 41 220 41 224 81 c 128,-1,19
 228 121 228 121 233 163 c 0,20,21
 238 204 238 204 242 244.5 c 128,-1,22
 246 285 246 285 246 324 c 0,23,24
 246 366 246 366 241 407 c 128,-1,25
 236 448 236 448 215 482 c 1,26,-1
 216 481 l 1,27,28
 203 497 203 497 185 507 c 128,-1,29
 167 517 167 517 145.5 523 c 128,-1,30
 124 529 124 529 101 531.5 c 128,-1,31
 78 534 78 534 56 535 c 1,32,-1
 50 535 l 2,33,34
 46 535 46 535 42.5 535.5 c 128,-1,35
 39 536 39 536 35 536 c 2,36,-1
 -10 536 l 1,37,38
 -10 543 -10 543 -9 553.5 c 128,-1,39
 -8 564 -8 564 -7 575.5 c 128,-1,40
 -6 587 -6 587 -5 597.5 c 128,-1,41
 -4 608 -4 608 -3 616 c 2,42,-1
 5 694 l 1,43,44
 25 694 25 694 33 693.5 c 128,-1,45
 41 693 41 693 46 692 c 256,46,47
 51 691 51 691 54.5 691 c 128,-1,48
 58 691 58 691 63 691 c 0,49,50
 108 691 108 691 159 702.5 c 128,-1,51
 210 714 210 714 247 741 c 1,52,53
 263 759 263 759 274.5 781 c 128,-1,54
 286 803 286 803 293 827 c 128,-1,55
 300 851 300 851 304.5 876 c 128,-1,56
 309 901 309 901 312 924 c 1,57,58
 314 951 314 951 317 979.5 c 128,-1,59
 320 1008 320 1008 323 1035 c 2,60,-1
 335 1147 l 1,61,62
 340 1183 340 1183 346 1221 c 128,-1,63
 352 1259 352 1259 364 1295.5 c 128,-1,64
 376 1332 376 1332 395.5 1365 c 128,-1,65
 415 1398 415 1398 447 1425 c 1,66,67
 514 1465 514 1465 586.5 1483 c 128,-1,68
 659 1501 659 1501 731 1512 c 0,69,70
 744 1514 744 1514 762 1517.5 c 128,-1,71
 780 1521 780 1521 799 1524.5 c 128,-1,72
 818 1528 818 1528 835.5 1531.5 c 128,-1,73
 853 1535 853 1535 866 1538 c 1,74,75
 863 1523 863 1523 859 1501 c 128,-1,76
 855 1479 855 1479 851 1456.5 c 128,-1,77
 847 1434 847 1434 843 1412 c 128,-1,78
 839 1390 839 1390 837 1375 c 1,79,80
 808 1367 808 1367 788.5 1363.5 c 128,-1,81
 769 1360 769 1360 752 1357 c 0,82,83
 707 1350 707 1350 661.5 1339.5 c 128,-1,84
 616 1329 616 1329 581 1301 c 1,85,-1
 583 1304 l 1,86,87
 556 1275 556 1275 546.5 1234.5 c 128,-1,88
 537 1194 537 1194 531 1154 c 2,89,-1
 528 1136 l 1,90,-1
 528 1137 l 1,91,92
 524 1108 524 1108 520.5 1079 c 128,-1,93
 517 1050 517 1050 514 1021 c 0,94,95
 510 992 510 992 507 963.5 c 128,-1,96
 504 935 504 935 501 906 c 0,97,98
 495 852 495 852 482.5 795.5 c 128,-1,99
 470 739 470 739 436 688 c 1,100,101
 412 657 412 657 379 637 c 128,-1,102
 346 617 346 617 310 606 c 1,103,104
 342 593 342 593 371 571.5 c 128,-1,105
 400 550 400 550 414 517 c 0,106,107
 431 477 431 477 435 436 c 128,-1,108
 439 395 439 395 439 353 c 2,109,-1
 439 317 l 1,110,-1
 427 201 l 2,111,112
 425 172 425 172 422 143 c 128,-1,113
 419 114 419 114 417 85 c 1,114,115
 417 50 417 50 421.5 16.5 c 128,-1,116
 426 -17 426 -17 446 -43 c 1,117,118
 469 -66 469 -66 507.5 -77 c 128,-1,119
 546 -88 546 -88 582 -93 c 1,120,-1
 604 -97 l 2,121,122
 611 -99 611 -99 619.5 -99.5 c 128,-1,123
 628 -100 628 -100 633 -101 c 0,124,125
 640 -103 640 -103 646 -104 c 128,-1,126
 652 -105 652 -105 657 -105 c 1,127,-1
 677 -126 l 1,0,1
EndSplineSet
Validated: 1
EndChar

StartChar: bar
Encoding: 124 124 95
Width: 481
Flags: W
LayerCount: 2
Fore
SplineSet
263 -428 m 1,0,1
 252 -426 252 -426 241.5 -425 c 128,-1,2
 231 -424 231 -424 222 -424 c 0,3,4
 162 -424 162 -424 72 -482 c 1,5,6
 90 -362 90 -362 109 -232.5 c 128,-1,7
 128 -103 128 -103 147 28.5 c 128,-1,8
 166 160 166 160 183.5 289.5 c 128,-1,9
 201 419 201 419 217 539 c 1,10,11
 234 539 234 539 257.5 539 c 128,-1,12
 281 539 281 539 305.5 539 c 128,-1,13
 330 539 330 539 353.5 539.5 c 128,-1,14
 377 540 377 540 395 540 c 1,15,16
 367 307 367 307 339.5 65 c 128,-1,17
 312 -177 312 -177 286 -411 c 1,18,-1
 263 -428 l 1,0,1
282 1069 m 2,19,20
 295 1176 295 1176 310 1294 c 128,-1,21
 325 1412 325 1412 339 1520 c 1,22,23
 362 1515 362 1515 370 1514 c 128,-1,24
 378 1513 378 1513 383 1513 c 0,25,26
 413 1513 413 1513 451.5 1529.5 c 128,-1,27
 490 1546 490 1546 532 1575 c 1,28,29
 516 1464 516 1464 499 1343 c 128,-1,30
 482 1222 482 1222 464.5 1099 c 128,-1,31
 447 976 447 976 431 855 c 128,-1,32
 415 734 415 734 400 622 c 1,33,34
 374 620 374 620 354 619.5 c 128,-1,35
 334 619 334 619 315 619 c 0,36,37
 306 619 306 619 294 619 c 128,-1,38
 282 619 282 619 269 619.5 c 128,-1,39
 256 620 256 620 244 620.5 c 128,-1,40
 232 621 232 621 224 621 c 1,41,-1
 282 1069 l 2,19,20
EndSplineSet
Validated: 1
EndChar

StartChar: braceright
Encoding: 125 125 96
Width: 911
Flags: W
LayerCount: 2
Fore
SplineSet
177 -139 m 2,0,1
 201 -136 201 -136 227.5 -132.5 c 128,-1,2
 254 -129 254 -129 279.5 -122.5 c 128,-1,3
 305 -116 305 -116 329 -106 c 128,-1,4
 353 -96 353 -96 371 -81 c 1,5,-1
 369 -82 l 1,6,7
 398 -50 398 -50 409 -7 c 128,-1,8
 420 36 420 36 425 78 c 0,9,10
 425 80 425 80 425.5 82 c 128,-1,11
 426 84 426 84 426 87 c 2,12,-1
 428 106 l 1,13,14
 432 160 432 160 437 213 c 128,-1,15
 442 266 442 266 447 320 c 0,16,17
 452 372 452 372 464 425.5 c 128,-1,18
 476 479 476 479 508 527 c 1,19,20
 531 558 531 558 567 578 c 128,-1,21
 603 598 603 598 644 609 c 1,22,23
 607 620 607 620 574 641.5 c 128,-1,24
 541 663 541 663 523 698 c 1,25,-1
 523 697 l 1,26,27
 506 729 506 729 501 766 c 128,-1,28
 496 803 496 803 496 838 c 0,29,30
 496 886 496 886 499.5 933 c 128,-1,31
 503 980 503 980 508 1027 c 256,32,33
 513 1074 513 1074 517 1120.5 c 128,-1,34
 521 1167 521 1167 521 1210 c 0,35,36
 521 1237 521 1237 515 1265.5 c 128,-1,37
 509 1294 509 1294 495 1316 c 1,38,39
 480 1329 480 1329 459 1338.5 c 128,-1,40
 438 1348 438 1348 414.5 1355 c 128,-1,41
 391 1362 391 1362 366.5 1366.5 c 128,-1,42
 342 1371 342 1371 320 1375 c 2,43,-1
 256 1387 l 1,44,-1
 258 1464 l 1,45,-1
 262 1549 l 1,46,47
 274 1546 274 1546 290 1542.5 c 128,-1,48
 306 1539 306 1539 323 1536 c 128,-1,49
 340 1533 340 1533 356.5 1530 c 128,-1,50
 373 1527 373 1527 387 1525 c 0,51,52
 420 1519 420 1519 456 1512 c 128,-1,53
 492 1505 492 1505 527 1494.5 c 128,-1,54
 562 1484 562 1484 594.5 1468.5 c 128,-1,55
 627 1453 627 1453 655 1431 c 1,56,57
 690 1393 690 1393 702 1342 c 128,-1,58
 714 1291 714 1291 714 1237 c 0,59,60
 714 1214 714 1214 713 1192 c 128,-1,61
 712 1170 712 1170 710 1149 c 2,62,-1
 691 924 l 2,63,64
 688 895 688 895 688 867 c 0,65,66
 688 832 688 832 695 798.5 c 128,-1,67
 702 765 702 765 721 739 c 1,68,69
 736 724 736 724 755 715 c 128,-1,70
 774 706 774 706 796 701 c 128,-1,71
 818 696 818 696 840.5 694.5 c 128,-1,72
 863 693 863 693 885 693 c 0,73,74
 890 693 890 693 894.5 693.5 c 128,-1,75
 899 694 899 694 904 694 c 0,76,77
 908 694 908 694 916 693.5 c 128,-1,78
 924 693 924 693 932 693 c 0,79,80
 942 692 942 692 953 692 c 1,81,-1
 942 536 l 1,82,-1
 891 536 l 2,83,84
 867 536 867 536 841 535 c 128,-1,85
 815 534 815 534 790 529 c 128,-1,86
 765 524 765 524 741.5 513.5 c 128,-1,87
 718 503 718 503 699 485 c 1,88,-1
 700 485 l 1,89,90
 683 466 683 466 671.5 443 c 128,-1,91
 660 420 660 420 653 395 c 128,-1,92
 646 370 646 370 641.5 344 c 128,-1,93
 637 318 637 318 634 294 c 1,94,95
 632 256 632 256 628.5 219 c 128,-1,96
 625 182 625 182 622 144 c 2,97,-1
 617 72 l 1,98,99
 613 36 613 36 608 -1.5 c 128,-1,100
 603 -39 603 -39 592 -75.5 c 128,-1,101
 581 -112 581 -112 562.5 -146 c 128,-1,102
 544 -180 544 -180 513 -207 c 1,103,104
 483 -228 483 -228 451.5 -242 c 128,-1,105
 420 -256 420 -256 388 -265.5 c 128,-1,106
 356 -275 356 -275 323.5 -281 c 128,-1,107
 291 -287 291 -287 259 -292 c 0,108,109
 239 -296 239 -296 218 -299 c 128,-1,110
 197 -302 197 -302 177 -307 c 1,111,-1
 138 -313 l 1,112,-1
 139 -313 l 1,113,-1
 98 -321 l 1,114,115
 100 -305 100 -305 103.5 -282 c 128,-1,116
 107 -259 107 -259 110 -234.5 c 128,-1,117
 113 -210 113 -210 116.5 -187 c 128,-1,118
 120 -164 120 -164 122 -147 c 1,119,-1
 177 -139 l 2,0,1
EndSplineSet
Validated: 1
EndChar

StartChar: asciitilde
Encoding: 126 126 97
Width: 1640
Flags: W
LayerCount: 2
Fore
SplineSet
1455 798 m 1,0,-1
 1478 805 l 1,1,2
 1439 740 1439 740 1428 656 c 1,3,-1
 1365 609 l 1,4,5
 1332 583 1332 583 1297 557 c 128,-1,6
 1262 531 1262 531 1225 510.5 c 128,-1,7
 1188 490 1188 490 1148.5 477.5 c 128,-1,8
 1109 465 1109 465 1067 465 c 1,9,10
 1005 467 1005 467 954.5 487.5 c 128,-1,11
 904 508 904 508 853 532 c 2,12,-1
 794 561 l 1,13,14
 743 591 743 591 688 614.5 c 128,-1,15
 633 638 633 638 573 640 c 1,16,17
 530 638 530 638 490 621 c 128,-1,18
 450 604 450 604 413 578 c 1,19,-1
 413 579 l 1,20,21
 363 545 363 545 309 509.5 c 128,-1,22
 255 474 255 474 204 444 c 1,23,-1
 180 466 l 1,24,25
 206 510 206 510 220 557 c 128,-1,26
 234 604 234 604 237 652 c 1,27,28
 274 683 274 683 314.5 710 c 128,-1,29
 355 737 355 737 398.5 756.5 c 128,-1,30
 442 776 442 776 487.5 787 c 128,-1,31
 533 798 533 798 579 798 c 0,32,33
 646 798 646 798 712.5 781.5 c 128,-1,34
 779 765 779 765 842 739 c 1,35,-1
 849 735 l 1,36,37
 856 733 856 733 861.5 731 c 128,-1,38
 867 729 867 729 872 726 c 0,39,40
 923 705 923 705 979.5 687 c 128,-1,41
 1036 669 1036 669 1093 669 c 0,42,43
 1132 669 1132 669 1170 679 c 128,-1,44
 1208 689 1208 689 1245 705 c 128,-1,45
 1282 721 1282 721 1318 741.5 c 128,-1,46
 1354 762 1354 762 1389 783 c 0,47,48
 1406 794 1406 794 1425.5 804.5 c 128,-1,49
 1445 815 1445 815 1462 825 c 1,50,-1
 1455 798 l 1,0,-1
EndSplineSet
Validated: 1
EndChar

StartChar: Aring
Encoding: 197 197 99
Width: 1536
Flags: W
LayerCount: 2
Fore
SplineSet
1012 1578 m 1,0,1
 1013 1583 1013 1583 1013 1586 c 128,-1,2
 1013 1589 1013 1589 1013 1592 c 0,3,4
 1013 1617 1013 1617 1003.5 1638 c 128,-1,5
 994 1659 994 1659 977.5 1674.5 c 128,-1,6
 961 1690 961 1690 939 1698.5 c 128,-1,7
 917 1707 917 1707 892 1707 c 0,8,9
 863 1707 863 1707 836 1696 c 128,-1,10
 809 1685 809 1685 788.5 1665.5 c 128,-1,11
 768 1646 768 1646 756 1620 c 128,-1,12
 744 1594 744 1594 744 1563 c 0,13,14
 744 1537 744 1537 754 1515 c 128,-1,15
 764 1493 764 1493 781 1476.5 c 128,-1,16
 798 1460 798 1460 820.5 1451 c 128,-1,17
 843 1442 843 1442 869 1442 c 256,18,19
 895 1442 895 1442 919.5 1453 c 128,-1,20
 944 1464 944 1464 963.5 1482.5 c 128,-1,21
 983 1501 983 1501 996 1525.5 c 128,-1,22
 1009 1550 1009 1550 1012 1577 c 1,23,-1
 1012 1578 l 1,0,1
786 1090 m 2,24,25
 756 1022 756 1022 727.5 959 c 128,-1,26
 699 896 699 896 671 833.5 c 128,-1,27
 643 771 643 771 614.5 708 c 128,-1,28
 586 645 586 645 555 578 c 1,29,30
 619 580 619 580 682 580 c 128,-1,31
 745 580 745 580 808 580 c 0,32,33
 839 580 839 580 865.5 580 c 128,-1,34
 892 580 892 580 918 580 c 128,-1,35
 944 580 944 580 970.5 579.5 c 128,-1,36
 997 579 997 579 1027 579 c 1,37,38
 998 683 998 683 970 787.5 c 128,-1,39
 942 892 942 892 914 995 c 2,40,-1
 850 1232 l 1,41,-1
 786 1090 l 2,24,25
638 1206 m 0,42,43
 654 1241 654 1241 672.5 1280.5 c 128,-1,44
 691 1320 691 1320 707 1356 c 1,45,46
 661 1392 661 1392 635 1445 c 128,-1,47
 609 1498 609 1498 609 1558 c 0,48,49
 609 1621 609 1621 633 1673.5 c 128,-1,50
 657 1726 657 1726 697.5 1764 c 128,-1,51
 738 1802 738 1802 792.5 1823 c 128,-1,52
 847 1844 847 1844 909 1844 c 0,53,54
 958 1844 958 1844 1002 1826 c 128,-1,55
 1046 1808 1046 1808 1078.5 1776.5 c 128,-1,56
 1111 1745 1111 1745 1130 1702 c 128,-1,57
 1149 1659 1149 1659 1149 1609 c 0,58,59
 1149 1533 1149 1533 1112 1466 c 128,-1,60
 1075 1399 1075 1399 1012 1354 c 1,61,-1
 1092 1070 l 1,62,63
 1127 942 1127 942 1164 811.5 c 128,-1,64
 1201 681 1201 681 1241.5 548 c 128,-1,65
 1282 415 1282 415 1328 279.5 c 128,-1,66
 1374 144 1374 144 1427 6 c 1,67,68
 1404 9 1404 9 1374.5 12 c 128,-1,69
 1345 15 1345 15 1313.5 18 c 128,-1,70
 1282 21 1282 21 1252.5 24 c 128,-1,71
 1223 27 1223 27 1200 29 c 1,72,73
 1168 122 1168 122 1139 214 c 128,-1,74
 1110 306 1110 306 1084 400 c 1,75,76
 1016 402 1016 402 949.5 402.5 c 128,-1,77
 883 403 883 403 814 403 c 0,78,79
 724 403 724 403 641.5 401.5 c 128,-1,80
 559 400 559 400 469 398 c 1,81,82
 427 307 427 307 382 212.5 c 128,-1,83
 337 118 337 118 292 28 c 1,84,85
 269 26 269 26 238 23.5 c 128,-1,86
 207 21 207 21 174.5 18 c 128,-1,87
 142 15 142 15 111 11.5 c 128,-1,88
 80 8 80 8 57 5 c 1,89,90
 134 149 134 149 209 299 c 128,-1,91
 284 449 284 449 357 601.5 c 128,-1,92
 430 754 430 754 500.5 906.5 c 128,-1,93
 571 1059 571 1059 638 1206 c 0,42,43
EndSplineSet
Validated: 1
EndChar

StartChar: dagger
Encoding: 8224 8224 130
Width: 918
Flags: W
LayerCount: 2
Fore
SplineSet
387 1451 m 1,0,1
 410 1450 410 1450 431 1450 c 128,-1,2
 452 1450 452 1450 474 1450 c 0,3,4
 490 1450 490 1450 516.5 1450.5 c 128,-1,5
 543 1451 543 1451 560 1452 c 1,6,7
 555 1402 555 1402 549 1342 c 128,-1,8
 543 1282 543 1282 538 1232 c 0,9,10
 535 1207 535 1207 533 1185.5 c 128,-1,11
 531 1164 531 1164 529.5 1143.5 c 128,-1,12
 528 1123 528 1123 526 1101.5 c 128,-1,13
 524 1080 524 1080 522 1056 c 1,14,15
 604 1057 604 1057 693 1062 c 128,-1,16
 782 1067 782 1067 863 1074 c 1,17,18
 861 1058 861 1058 858.5 1035.5 c 128,-1,19
 856 1013 856 1013 853 989 c 128,-1,20
 850 965 850 965 847.5 943 c 128,-1,21
 845 921 845 921 844 905 c 1,22,23
 759 900 759 900 675 896.5 c 128,-1,24
 591 893 591 893 506 892 c 1,25,26
 483 633 483 633 460.5 369 c 128,-1,27
 438 105 438 105 420 -154 c 1,28,29
 404 -153 404 -153 379 -152.5 c 128,-1,30
 354 -152 354 -152 338 -152 c 0,31,32
 327 -152 327 -152 316 -152.5 c 128,-1,33
 305 -153 305 -153 294 -153 c 2,34,-1
 229 -153 l 1,35,36
 254 110 254 110 278 369.5 c 128,-1,37
 302 629 302 629 324 892 c 1,38,39
 244 893 244 893 155 897 c 128,-1,40
 66 901 66 901 -12 907 c 1,41,42
 -10 926 -10 926 -8 954.5 c 128,-1,43
 -6 983 -6 983 -5 1003 c 2,44,-1
 -1 1075 l 1,45,46
 89 1066 89 1066 172.5 1061.5 c 128,-1,47
 256 1057 256 1057 337 1056 c 1,48,49
 339 1073 339 1073 341 1093.5 c 128,-1,50
 343 1114 343 1114 344 1132 c 0,51,52
 350 1207 350 1207 356 1282 c 128,-1,53
 362 1357 362 1357 367 1432 c 1,54,-1
 387 1451 l 1,0,1
EndSplineSet
Validated: 1
EndChar

StartChar: degree
Encoding: 176 176 131
Width: 965
Flags: W
LayerCount: 2
Fore
SplineSet
473 1403 m 0,0,1
 438 1403 438 1403 405.5 1391 c 128,-1,2
 373 1379 373 1379 347.5 1357 c 128,-1,3
 322 1335 322 1335 307 1305 c 128,-1,4
 292 1275 292 1275 292 1238 c 0,5,6
 292 1206 292 1206 304 1180.5 c 128,-1,7
 316 1155 316 1155 336.5 1138 c 128,-1,8
 357 1121 357 1121 384.5 1111.5 c 128,-1,9
 412 1102 412 1102 442 1101 c 1,10,11
 478 1101 478 1101 510 1113.5 c 128,-1,12
 542 1126 542 1126 567 1149 c 128,-1,13
 592 1172 592 1172 606.5 1203 c 128,-1,14
 621 1234 621 1234 621 1272 c 0,15,16
 621 1303 621 1303 609 1327 c 128,-1,17
 597 1351 597 1351 576.5 1368 c 128,-1,18
 556 1385 556 1385 529 1394 c 128,-1,19
 502 1403 502 1403 473 1403 c 0,0,1
478 1499 m 0,20,21
 538 1499 538 1499 588.5 1479 c 128,-1,22
 639 1459 639 1459 675.5 1422.5 c 128,-1,23
 712 1386 712 1386 732.5 1334.5 c 128,-1,24
 753 1283 753 1283 753 1220 c 0,25,26
 753 1153 753 1153 729 1084.5 c 128,-1,27
 705 1016 705 1016 652 966 c 1,28,-1
 652 967 l 1,29,30
 604 922 604 922 545 902.5 c 128,-1,31
 486 883 486 883 426 883 c 256,32,33
 366 883 366 883 308.5 902.5 c 128,-1,34
 251 922 251 922 211 967 c 1,35,36
 180 1005 180 1005 165 1054 c 128,-1,37
 150 1103 150 1103 150 1154 c 0,38,39
 150 1187 150 1187 155.5 1222 c 128,-1,40
 161 1257 161 1257 173 1291 c 128,-1,41
 185 1325 185 1325 204 1356 c 128,-1,42
 223 1387 223 1387 250 1412 c 1,43,-1
 250 1411 l 1,44,45
 296 1457 296 1457 356 1478 c 128,-1,46
 416 1499 416 1499 478 1499 c 0,20,21
EndSplineSet
Validated: 1
EndChar

StartChar: cent
Encoding: 162 162 132
Width: 987
Flags: W
LayerCount: 2
Fore
SplineSet
460 241 m 2,0,1
 461 241 461 241 462 240.5 c 128,-1,2
 463 240 463 240 465 240 c 2,3,-1
 458 239 l 1,4,-1
 453 231 l 1,5,-1
 453 238 l 1,6,-1
 453 239 l 1,7,8
 454 241 454 241 454 241 c 1,9,-1
 455 241 l 1,10,-1
 464 246 l 1,11,-1
 460 241 l 2,0,1
220 513 m 0,12,13
 220 454 220 454 237 407.5 c 128,-1,14
 254 361 254 361 285 326.5 c 128,-1,15
 316 292 316 292 359 270.5 c 128,-1,16
 402 249 402 249 454 241 c 1,17,18
 472 428 472 428 490 605.5 c 128,-1,19
 508 783 508 783 530 971 c 1,20,21
 449 962 449 962 390.5 915 c 128,-1,22
 332 868 332 868 294 802 c 128,-1,23
 256 736 256 736 238 659.5 c 128,-1,24
 220 583 220 583 220 513 c 0,12,13
906 987 m 1,25,-1
 895 899 l 1,26,27
 832 933 832 933 769 953 c 128,-1,28
 706 973 706 973 648 977 c 1,29,30
 637 882 637 882 626.5 789.5 c 128,-1,31
 616 697 616 697 606 605.5 c 128,-1,32
 596 514 596 514 586.5 421.5 c 128,-1,33
 577 329 577 329 568 233 c 1,34,35
 630 238 630 238 695.5 256.5 c 128,-1,36
 761 275 761 275 830 305 c 1,37,38
 829 292 829 292 828 274.5 c 128,-1,39
 827 257 827 257 825.5 238 c 128,-1,40
 824 219 824 219 822.5 201.5 c 128,-1,41
 821 184 821 184 820 171 c 0,42,43
 817 141 817 141 814.5 105.5 c 128,-1,44
 812 70 812 70 811 41 c 1,45,46
 738 16 738 16 673.5 5 c 128,-1,47
 609 -6 609 -6 546 -10 c 1,48,-1
 536 -126 l 2,49,50
 534 -143 534 -143 532.5 -162.5 c 128,-1,51
 531 -182 531 -182 529.5 -202.5 c 128,-1,52
 528 -223 528 -223 526.5 -243 c 128,-1,53
 525 -263 525 -263 524 -279 c 1,54,55
 518 -279 518 -279 509.5 -278 c 128,-1,56
 501 -277 501 -277 491 -276.5 c 128,-1,57
 481 -276 481 -276 472 -275 c 128,-1,58
 463 -274 463 -274 457 -274 c 0,59,60
 448 -274 448 -274 433 -273 c 128,-1,61
 418 -272 418 -272 404 -270 c 1,62,-1
 419 -116 l 2,63,64
 422 -84 422 -84 424 -58.5 c 128,-1,65
 426 -33 426 -33 430 0 c 1,66,67
 385 6 385 6 338.5 18.5 c 128,-1,68
 292 31 292 31 248.5 50.5 c 128,-1,69
 205 70 205 70 167.5 98 c 128,-1,70
 130 126 130 126 103 164 c 1,71,72
 55 228 55 228 37.5 306.5 c 128,-1,73
 20 385 20 385 20 466 c 0,74,75
 20 524 20 524 27 589.5 c 128,-1,76
 34 655 34 655 52.5 720.5 c 128,-1,77
 71 786 71 786 103 847 c 128,-1,78
 135 908 135 908 184 956 c 1,79,-1
 183 956 l 1,80,81
 219 994 219 994 262.5 1021 c 128,-1,82
 306 1048 306 1048 353 1066.5 c 128,-1,83
 400 1085 400 1085 450 1095.5 c 128,-1,84
 500 1106 500 1106 548 1111 c 1,85,86
 550 1140 550 1140 553.5 1171 c 128,-1,87
 557 1202 557 1202 561 1231 c 2,88,-1
 579 1383 l 1,89,-1
 636 1383 l 2,90,91
 647 1383 647 1383 668 1384 c 128,-1,92
 689 1385 689 1385 700 1386 c 1,93,94
 691 1317 691 1317 682 1249.5 c 128,-1,95
 673 1182 673 1182 665 1113 c 1,96,97
 728 1110 728 1110 789.5 1098 c 128,-1,98
 851 1086 851 1086 908 1060 c 1,99,-1
 892 1044 l 1,100,-1
 915 1048 l 1,101,-1
 906 987 l 1,25,-1
EndSplineSet
Validated: 5
EndChar

StartChar: sterling
Encoding: 163 163 133
Width: 1317
Flags: W
LayerCount: 2
Fore
SplineSet
1182 1382 m 2,0,1
 1179 1367 1179 1367 1175 1347.5 c 128,-1,2
 1171 1328 1171 1328 1167 1308 c 128,-1,3
 1163 1288 1163 1288 1160 1268.5 c 128,-1,4
 1157 1249 1157 1249 1154 1233 c 1,5,6
 1094 1263 1094 1263 1033 1282.5 c 128,-1,7
 972 1302 972 1302 912 1302 c 0,8,9
 886 1302 886 1302 857.5 1297.5 c 128,-1,10
 829 1293 829 1293 801 1283.5 c 128,-1,11
 773 1274 773 1274 747 1259.5 c 128,-1,12
 721 1245 721 1245 702 1226 c 1,13,14
 681 1199 681 1199 667.5 1167.5 c 128,-1,15
 654 1136 654 1136 645 1102 c 128,-1,16
 636 1068 636 1068 630.5 1033 c 128,-1,17
 625 998 625 998 621 965 c 0,18,19
 615 924 615 924 611 885.5 c 128,-1,20
 607 847 607 847 602 806 c 2,21,-1
 598 778 l 1,22,23
 624 778 624 778 648 777 c 128,-1,24
 672 776 672 776 696 776 c 0,25,26
 756 774 756 774 826 773.5 c 128,-1,27
 896 773 896 773 956 772 c 1,28,-1
 947 702 l 1,29,-1
 941 636 l 1,30,-1
 744 639 l 1,31,-1
 584 643 l 1,32,-1
 538 255 l 1,33,34
 666 254 666 254 796 247.5 c 128,-1,35
 926 241 926 241 1060 227 c 1,36,37
 1057 187 1057 187 1055 140 c 128,-1,38
 1053 93 1053 93 1052 55 c 0,39,40
 1052 45 1052 45 1051.5 24 c 128,-1,41
 1051 3 1051 3 1051 -7 c 1,42,43
 907 12 907 12 769.5 20.5 c 128,-1,44
 632 29 632 29 498 29 c 0,45,46
 398 29 398 29 289 23.5 c 128,-1,47
 180 18 180 18 61 7 c 1,48,49
 66 29 66 29 71 56 c 128,-1,50
 76 83 76 83 81.5 110.5 c 128,-1,51
 87 138 87 138 92 164.5 c 128,-1,52
 97 191 97 191 101 214 c 2,53,-1
 107 244 l 1,54,55
 163 248 163 248 218 250.5 c 128,-1,56
 273 253 273 253 329 255 c 1,57,58
 336 306 336 306 342.5 353.5 c 128,-1,59
 349 401 349 401 355.5 448.5 c 128,-1,60
 362 496 362 496 367.5 544.5 c 128,-1,61
 373 593 373 593 379 645 c 1,62,63
 336 645 336 645 287 645.5 c 128,-1,64
 238 646 238 646 197 647 c 1,65,-1
 214 786 l 1,66,67
 259 784 259 784 304.5 783 c 128,-1,68
 350 782 350 782 395 781 c 1,69,-1
 405 880 l 2,70,71
 408 909 408 909 410.5 938.5 c 128,-1,72
 413 968 413 968 417 997 c 0,73,74
 422 1042 422 1042 431.5 1090 c 128,-1,75
 441 1138 441 1138 456.5 1184.5 c 128,-1,76
 472 1231 472 1231 496.5 1274.5 c 128,-1,77
 521 1318 521 1318 556 1353 c 1,78,79
 592 1387 592 1387 637 1410 c 128,-1,80
 682 1433 682 1433 730 1447 c 128,-1,81
 778 1461 778 1461 827 1467.5 c 128,-1,82
 876 1474 876 1474 920 1474 c 0,83,84
 986 1474 986 1474 1051 1463.5 c 128,-1,85
 1116 1453 1116 1453 1179 1434 c 1,86,-1
 1164 1416 l 1,87,-1
 1189 1420 l 1,88,-1
 1182 1382 l 2,0,1
EndSplineSet
Validated: 1
EndChar

StartChar: section
Encoding: 167 167 134
Width: 1116
Flags: W
LayerCount: 2
Fore
SplineSet
443 930 m 1,0,-1
 442 929 l 1,1,-1
 442 930 l 1,2,-1
 443 930 l 1,0,-1
442 929 m 1,3,4
 420 913 420 913 398.5 894.5 c 128,-1,5
 377 876 377 876 360.5 854.5 c 128,-1,6
 344 833 344 833 334 808.5 c 128,-1,7
 324 784 324 784 324 757 c 0,8,9
 324 716 324 716 348 680 c 128,-1,10
 372 644 372 644 409 611.5 c 128,-1,11
 446 579 446 579 491.5 551 c 128,-1,12
 537 523 537 523 580 498 c 0,13,14
 596 488 596 488 611 480 c 128,-1,15
 626 472 626 472 641 463 c 1,16,17
 662 477 662 477 683.5 495.5 c 128,-1,18
 705 514 705 514 722.5 535 c 128,-1,19
 740 556 740 556 750.5 579.5 c 128,-1,20
 761 603 761 603 761 629 c 0,21,22
 761 673 761 673 735 712 c 128,-1,23
 709 751 709 751 668.5 785.5 c 128,-1,24
 628 820 628 820 578.5 850 c 128,-1,25
 529 880 529 880 483 907 c 1,26,-1
 442 929 l 1,3,4
903 1425 m 1,27,-1
 925 1427 l 1,28,29
 923 1412 923 1412 921 1398 c 128,-1,30
 919 1384 919 1384 918 1369 c 1,31,32
 916 1358 916 1358 914.5 1344 c 128,-1,33
 913 1330 913 1330 910.5 1314.5 c 128,-1,34
 908 1299 908 1299 906 1284.5 c 128,-1,35
 904 1270 904 1270 902 1260 c 1,36,37
 829 1286 829 1286 759 1303 c 128,-1,38
 689 1320 689 1320 619 1320 c 0,39,40
 590 1320 590 1320 558 1312.5 c 128,-1,41
 526 1305 526 1305 499.5 1289.5 c 128,-1,42
 473 1274 473 1274 455.5 1250.5 c 128,-1,43
 438 1227 438 1227 437 1194 c 1,44,45
 443 1158 443 1158 465.5 1126.5 c 128,-1,46
 488 1095 488 1095 518.5 1068 c 128,-1,47
 549 1041 549 1041 582 1019.5 c 128,-1,48
 615 998 615 998 642 984 c 1,49,-1
 679 962 l 2,50,51
 723 935 723 935 767.5 905.5 c 128,-1,52
 812 876 812 876 848 839 c 128,-1,53
 884 802 884 802 907 756.5 c 128,-1,54
 930 711 930 711 930 652 c 0,55,56
 930 604 930 604 916.5 561 c 128,-1,57
 903 518 903 518 878 481 c 128,-1,58
 853 444 853 444 819 413 c 128,-1,59
 785 382 785 382 745 358 c 1,60,61
 784 318 784 318 809.5 267.5 c 128,-1,62
 835 217 835 217 835 157 c 0,63,64
 835 124 835 124 829 91 c 128,-1,65
 823 58 823 58 810 27.5 c 128,-1,66
 797 -3 797 -3 775.5 -30 c 128,-1,67
 754 -57 754 -57 723 -77 c 1,68,-1
 724 -76 l 1,69,70
 693 -99 693 -99 658 -113 c 128,-1,71
 623 -127 623 -127 586.5 -135 c 128,-1,72
 550 -143 550 -143 512.5 -146 c 128,-1,73
 475 -149 475 -149 439 -149 c 0,74,75
 365 -149 365 -149 289 -138 c 128,-1,76
 213 -127 213 -127 135 -112 c 1,77,-1
 144 -33 l 1,78,79
 149 -2 149 -2 154 40.5 c 128,-1,80
 159 83 159 83 163 114 c 1,81,82
 234 89 234 89 304.5 71.5 c 128,-1,83
 375 54 375 54 441 54 c 0,84,85
 473 54 473 54 505 56.5 c 128,-1,86
 537 59 537 59 568 68 c 0,87,88
 606 79 606 79 624.5 105 c 128,-1,89
 643 131 643 131 644 160 c 1,90,91
 638 194 638 194 615.5 224 c 128,-1,92
 593 254 593 254 563 279.5 c 128,-1,93
 533 305 533 305 499.5 325.5 c 128,-1,94
 466 346 466 346 439 362 c 2,95,-1
 403 383 l 2,96,97
 358 410 358 410 313 439 c 128,-1,98
 268 468 268 468 232 505 c 128,-1,99
 196 542 196 542 173.5 588 c 128,-1,100
 151 634 151 634 151 695 c 0,101,102
 151 742 151 742 164.5 785.5 c 128,-1,103
 178 829 178 829 202 867 c 128,-1,104
 226 905 226 905 259.5 936 c 128,-1,105
 293 967 293 967 334 989 c 1,106,107
 294 1029 294 1029 269.5 1081 c 128,-1,108
 245 1133 245 1133 245 1193 c 0,109,110
 245 1224 245 1224 251.5 1255 c 128,-1,111
 258 1286 258 1286 271.5 1314.5 c 128,-1,112
 285 1343 285 1343 306.5 1367 c 128,-1,113
 328 1391 328 1391 357 1409 c 1,114,-1
 356 1409 l 1,115,116
 387 1430 387 1430 421 1443.5 c 128,-1,117
 455 1457 455 1457 491 1464.5 c 128,-1,118
 527 1472 527 1472 563 1474.5 c 128,-1,119
 599 1477 599 1477 634 1477 c 0,120,121
 778 1477 778 1477 916 1440 c 1,122,-1
 903 1425 l 1,27,-1
EndSplineSet
Validated: 5
EndChar

StartChar: bullet
Encoding: 8226 8226 135
Width: 926
Flags: W
LayerCount: 2
Fore
SplineSet
148 763 m 0,0,1
 153 817 153 817 176.5 872 c 128,-1,2
 200 927 200 927 238 968 c 1,3,4
 284 1010 284 1010 342.5 1028.5 c 128,-1,5
 401 1047 401 1047 458 1047 c 0,6,7
 513 1047 513 1047 560 1029 c 128,-1,8
 607 1011 607 1011 640.5 978 c 128,-1,9
 674 945 674 945 693 898.5 c 128,-1,10
 712 852 712 852 712 795 c 0,11,12
 712 731 712 731 689.5 666 c 128,-1,13
 667 601 667 601 618 553 c 0,14,15
 574 511 574 511 518.5 492 c 128,-1,16
 463 473 463 473 406 473 c 256,17,18
 349 473 349 473 301.5 490 c 128,-1,19
 254 507 254 507 219.5 539.5 c 128,-1,20
 185 572 185 572 166 620 c 128,-1,21
 147 668 147 668 147 731 c 0,22,23
 147 739 147 739 147 747.5 c 128,-1,24
 147 756 147 756 148 763 c 0,0,1
EndSplineSet
Validated: 1
EndChar

